%TF.GenerationSoftware,KiCad,Pcbnew,(5.1.10)-1*%
%TF.CreationDate,2021-09-10T16:42:04-04:00*%
%TF.ProjectId,Z_Brake,5a5f4272-616b-4652-9e6b-696361645f70,rev?*%
%TF.SameCoordinates,Original*%
%TF.FileFunction,Legend,Top*%
%TF.FilePolarity,Positive*%
%FSLAX46Y46*%
G04 Gerber Fmt 4.6, Leading zero omitted, Abs format (unit mm)*
G04 Created by KiCad (PCBNEW (5.1.10)-1) date 2021-09-10 16:42:04*
%MOMM*%
%LPD*%
G01*
G04 APERTURE LIST*
%ADD10C,0.150000*%
%ADD11C,0.200000*%
%ADD12C,0.250000*%
%ADD13C,0.120000*%
%ADD14C,0.127000*%
G04 APERTURE END LIST*
D10*
X80645000Y-119380000D02*
X80010000Y-118745000D01*
X80010000Y-118745000D02*
X81280000Y-118745000D01*
X80645000Y-115570000D02*
X80645000Y-119380000D01*
X81280000Y-118745000D02*
X80645000Y-119380000D01*
X81280000Y-84455000D02*
X80645000Y-85090000D01*
X80010000Y-84455000D02*
X81280000Y-84455000D01*
X80645000Y-85090000D02*
X80010000Y-84455000D01*
X80645000Y-81280000D02*
X80645000Y-85090000D01*
X58152357Y-110021714D02*
X58390452Y-110688380D01*
X58628547Y-110021714D01*
X59533309Y-110688380D02*
X58961880Y-110688380D01*
X59247595Y-110688380D02*
X59247595Y-109688380D01*
X59152357Y-109831238D01*
X59057119Y-109926476D01*
X58961880Y-109974095D01*
X59961880Y-110593142D02*
X60009500Y-110640761D01*
X59961880Y-110688380D01*
X59914261Y-110640761D01*
X59961880Y-110593142D01*
X59961880Y-110688380D01*
X60628547Y-109688380D02*
X60723785Y-109688380D01*
X60819023Y-109736000D01*
X60866642Y-109783619D01*
X60914261Y-109878857D01*
X60961880Y-110069333D01*
X60961880Y-110307428D01*
X60914261Y-110497904D01*
X60866642Y-110593142D01*
X60819023Y-110640761D01*
X60723785Y-110688380D01*
X60628547Y-110688380D01*
X60533309Y-110640761D01*
X60485690Y-110593142D01*
X60438071Y-110497904D01*
X60390452Y-110307428D01*
X60390452Y-110069333D01*
X60438071Y-109878857D01*
X60485690Y-109783619D01*
X60533309Y-109736000D01*
X60628547Y-109688380D01*
X61390452Y-110593142D02*
X61438071Y-110640761D01*
X61390452Y-110688380D01*
X61342833Y-110640761D01*
X61390452Y-110593142D01*
X61390452Y-110688380D01*
X62057119Y-109688380D02*
X62152357Y-109688380D01*
X62247595Y-109736000D01*
X62295214Y-109783619D01*
X62342833Y-109878857D01*
X62390452Y-110069333D01*
X62390452Y-110307428D01*
X62342833Y-110497904D01*
X62295214Y-110593142D01*
X62247595Y-110640761D01*
X62152357Y-110688380D01*
X62057119Y-110688380D01*
X61961880Y-110640761D01*
X61914261Y-110593142D01*
X61866642Y-110497904D01*
X61819023Y-110307428D01*
X61819023Y-110069333D01*
X61866642Y-109878857D01*
X61914261Y-109783619D01*
X61961880Y-109736000D01*
X62057119Y-109688380D01*
X59057119Y-113863476D02*
X58961880Y-113815857D01*
X58771404Y-113815857D01*
X58676166Y-113863476D01*
X58580928Y-113958714D01*
X58533309Y-114053952D01*
X58533309Y-114244428D01*
X58580928Y-114339666D01*
X58676166Y-114434904D01*
X58771404Y-114482523D01*
X58961880Y-114482523D01*
X59057119Y-114434904D01*
X58866642Y-113482523D02*
X58628547Y-113530142D01*
X58390452Y-113673000D01*
X58247595Y-113911095D01*
X58199976Y-114149190D01*
X58247595Y-114387285D01*
X58390452Y-114625380D01*
X58628547Y-114768238D01*
X58866642Y-114815857D01*
X59104738Y-114768238D01*
X59342833Y-114625380D01*
X59485690Y-114387285D01*
X59533309Y-114149190D01*
X59485690Y-113911095D01*
X59342833Y-113673000D01*
X59104738Y-113530142D01*
X58866642Y-113482523D01*
X60676166Y-113720619D02*
X60723785Y-113673000D01*
X60819023Y-113625380D01*
X61057119Y-113625380D01*
X61152357Y-113673000D01*
X61199976Y-113720619D01*
X61247595Y-113815857D01*
X61247595Y-113911095D01*
X61199976Y-114053952D01*
X60628547Y-114625380D01*
X61247595Y-114625380D01*
X61866642Y-113625380D02*
X61961880Y-113625380D01*
X62057119Y-113673000D01*
X62104738Y-113720619D01*
X62152357Y-113815857D01*
X62199976Y-114006333D01*
X62199976Y-114244428D01*
X62152357Y-114434904D01*
X62104738Y-114530142D01*
X62057119Y-114577761D01*
X61961880Y-114625380D01*
X61866642Y-114625380D01*
X61771404Y-114577761D01*
X61723785Y-114530142D01*
X61676166Y-114434904D01*
X61628547Y-114244428D01*
X61628547Y-114006333D01*
X61676166Y-113815857D01*
X61723785Y-113720619D01*
X61771404Y-113673000D01*
X61866642Y-113625380D01*
X62580928Y-113720619D02*
X62628547Y-113673000D01*
X62723785Y-113625380D01*
X62961880Y-113625380D01*
X63057119Y-113673000D01*
X63104738Y-113720619D01*
X63152357Y-113815857D01*
X63152357Y-113911095D01*
X63104738Y-114053952D01*
X62533309Y-114625380D01*
X63152357Y-114625380D01*
X64104738Y-114625380D02*
X63533309Y-114625380D01*
X63819023Y-114625380D02*
X63819023Y-113625380D01*
X63723785Y-113768238D01*
X63628547Y-113863476D01*
X63533309Y-113911095D01*
X58247595Y-116657380D02*
X58247595Y-115657380D01*
X58628547Y-115657380D01*
X58723785Y-115705000D01*
X58771404Y-115752619D01*
X58819023Y-115847857D01*
X58819023Y-115990714D01*
X58771404Y-116085952D01*
X58723785Y-116133571D01*
X58628547Y-116181190D01*
X58247595Y-116181190D01*
X59247595Y-116657380D02*
X59247595Y-115990714D01*
X59247595Y-116181190D02*
X59295214Y-116085952D01*
X59342833Y-116038333D01*
X59438071Y-115990714D01*
X59533309Y-115990714D01*
X60009500Y-116657380D02*
X59914261Y-116609761D01*
X59866642Y-116562142D01*
X59819023Y-116466904D01*
X59819023Y-116181190D01*
X59866642Y-116085952D01*
X59914261Y-116038333D01*
X60009500Y-115990714D01*
X60152357Y-115990714D01*
X60247595Y-116038333D01*
X60295214Y-116085952D01*
X60342833Y-116181190D01*
X60342833Y-116466904D01*
X60295214Y-116562142D01*
X60247595Y-116609761D01*
X60152357Y-116657380D01*
X60009500Y-116657380D01*
X60771404Y-115990714D02*
X60771404Y-116847857D01*
X60723785Y-116943095D01*
X60628547Y-116990714D01*
X60580928Y-116990714D01*
X60771404Y-115657380D02*
X60723785Y-115705000D01*
X60771404Y-115752619D01*
X60819023Y-115705000D01*
X60771404Y-115657380D01*
X60771404Y-115752619D01*
X61628547Y-116609761D02*
X61533309Y-116657380D01*
X61342833Y-116657380D01*
X61247595Y-116609761D01*
X61199976Y-116514523D01*
X61199976Y-116133571D01*
X61247595Y-116038333D01*
X61342833Y-115990714D01*
X61533309Y-115990714D01*
X61628547Y-116038333D01*
X61676166Y-116133571D01*
X61676166Y-116228809D01*
X61199976Y-116324047D01*
X62533309Y-116609761D02*
X62438071Y-116657380D01*
X62247595Y-116657380D01*
X62152357Y-116609761D01*
X62104738Y-116562142D01*
X62057119Y-116466904D01*
X62057119Y-116181190D01*
X62104738Y-116085952D01*
X62152357Y-116038333D01*
X62247595Y-115990714D01*
X62438071Y-115990714D01*
X62533309Y-116038333D01*
X62819023Y-115990714D02*
X63199976Y-115990714D01*
X62961880Y-115657380D02*
X62961880Y-116514523D01*
X63009500Y-116609761D01*
X63104738Y-116657380D01*
X63199976Y-116657380D01*
X64866642Y-116657380D02*
X64533309Y-116181190D01*
X64295214Y-116657380D02*
X64295214Y-115657380D01*
X64676166Y-115657380D01*
X64771404Y-115705000D01*
X64819023Y-115752619D01*
X64866642Y-115847857D01*
X64866642Y-115990714D01*
X64819023Y-116085952D01*
X64771404Y-116133571D01*
X64676166Y-116181190D01*
X64295214Y-116181190D01*
X65199976Y-115657380D02*
X65819023Y-115657380D01*
X65485690Y-116038333D01*
X65628547Y-116038333D01*
X65723785Y-116085952D01*
X65771404Y-116133571D01*
X65819023Y-116228809D01*
X65819023Y-116466904D01*
X65771404Y-116562142D01*
X65723785Y-116609761D01*
X65628547Y-116657380D01*
X65342833Y-116657380D01*
X65247595Y-116609761D01*
X65199976Y-116562142D01*
X66247595Y-116657380D02*
X66247595Y-115657380D01*
X66485690Y-115657380D01*
X66628547Y-115705000D01*
X66723785Y-115800238D01*
X66771404Y-115895476D01*
X66819023Y-116085952D01*
X66819023Y-116228809D01*
X66771404Y-116419285D01*
X66723785Y-116514523D01*
X66628547Y-116609761D01*
X66485690Y-116657380D01*
X66247595Y-116657380D01*
X68723785Y-115609761D02*
X67866642Y-116895476D01*
X69771404Y-116371666D02*
X70247595Y-116371666D01*
X69676166Y-116657380D02*
X70009500Y-115657380D01*
X70342833Y-116657380D01*
X71104738Y-116657380D02*
X71104738Y-115657380D01*
X71104738Y-116609761D02*
X71009500Y-116657380D01*
X70819023Y-116657380D01*
X70723785Y-116609761D01*
X70676166Y-116562142D01*
X70628547Y-116466904D01*
X70628547Y-116181190D01*
X70676166Y-116085952D01*
X70723785Y-116038333D01*
X70819023Y-115990714D01*
X71009500Y-115990714D01*
X71104738Y-116038333D01*
X72009500Y-116657380D02*
X72009500Y-116133571D01*
X71961880Y-116038333D01*
X71866642Y-115990714D01*
X71676166Y-115990714D01*
X71580928Y-116038333D01*
X72009500Y-116609761D02*
X71914261Y-116657380D01*
X71676166Y-116657380D01*
X71580928Y-116609761D01*
X71533309Y-116514523D01*
X71533309Y-116419285D01*
X71580928Y-116324047D01*
X71676166Y-116276428D01*
X71914261Y-116276428D01*
X72009500Y-116228809D01*
X72485690Y-116657380D02*
X72485690Y-115990714D01*
X72485690Y-116085952D02*
X72533309Y-116038333D01*
X72628547Y-115990714D01*
X72771404Y-115990714D01*
X72866642Y-116038333D01*
X72914261Y-116133571D01*
X72914261Y-116657380D01*
X72914261Y-116133571D02*
X72961880Y-116038333D01*
X73057119Y-115990714D01*
X73199976Y-115990714D01*
X73295214Y-116038333D01*
X73342833Y-116133571D01*
X73342833Y-116657380D01*
X74580928Y-116657380D02*
X74580928Y-115657380D01*
X74580928Y-116133571D02*
X75152357Y-116133571D01*
X75152357Y-116657380D02*
X75152357Y-115657380D01*
X76057119Y-116657380D02*
X76057119Y-116133571D01*
X76009500Y-116038333D01*
X75914261Y-115990714D01*
X75723785Y-115990714D01*
X75628547Y-116038333D01*
X76057119Y-116609761D02*
X75961880Y-116657380D01*
X75723785Y-116657380D01*
X75628547Y-116609761D01*
X75580928Y-116514523D01*
X75580928Y-116419285D01*
X75628547Y-116324047D01*
X75723785Y-116276428D01*
X75961880Y-116276428D01*
X76057119Y-116228809D01*
X76533309Y-116657380D02*
X76533309Y-115990714D01*
X76533309Y-115657380D02*
X76485690Y-115705000D01*
X76533309Y-115752619D01*
X76580928Y-115705000D01*
X76533309Y-115657380D01*
X76533309Y-115752619D01*
X77152357Y-116657380D02*
X77057119Y-116609761D01*
X77009500Y-116514523D01*
X77009500Y-115657380D01*
X77914261Y-116609761D02*
X77819023Y-116657380D01*
X77628547Y-116657380D01*
X77533309Y-116609761D01*
X77485690Y-116514523D01*
X77485690Y-116133571D01*
X77533309Y-116038333D01*
X77628547Y-115990714D01*
X77819023Y-115990714D01*
X77914261Y-116038333D01*
X77961880Y-116133571D01*
X77961880Y-116228809D01*
X77485690Y-116324047D01*
D11*
X58256285Y-107255571D02*
X59256285Y-107255571D01*
X58256285Y-108755571D01*
X59256285Y-108755571D01*
X60970571Y-108755571D02*
X60970571Y-107255571D01*
X61470571Y-108327000D01*
X61970571Y-107255571D01*
X61970571Y-108755571D01*
X62899142Y-108755571D02*
X62756285Y-108684142D01*
X62684857Y-108612714D01*
X62613428Y-108469857D01*
X62613428Y-108041285D01*
X62684857Y-107898428D01*
X62756285Y-107827000D01*
X62899142Y-107755571D01*
X63113428Y-107755571D01*
X63256285Y-107827000D01*
X63327714Y-107898428D01*
X63399142Y-108041285D01*
X63399142Y-108469857D01*
X63327714Y-108612714D01*
X63256285Y-108684142D01*
X63113428Y-108755571D01*
X62899142Y-108755571D01*
X63827714Y-107755571D02*
X64399142Y-107755571D01*
X64042000Y-107255571D02*
X64042000Y-108541285D01*
X64113428Y-108684142D01*
X64256285Y-108755571D01*
X64399142Y-108755571D01*
X65113428Y-108755571D02*
X64970571Y-108684142D01*
X64899142Y-108612714D01*
X64827714Y-108469857D01*
X64827714Y-108041285D01*
X64899142Y-107898428D01*
X64970571Y-107827000D01*
X65113428Y-107755571D01*
X65327714Y-107755571D01*
X65470571Y-107827000D01*
X65542000Y-107898428D01*
X65613428Y-108041285D01*
X65613428Y-108469857D01*
X65542000Y-108612714D01*
X65470571Y-108684142D01*
X65327714Y-108755571D01*
X65113428Y-108755571D01*
X66256285Y-108755571D02*
X66256285Y-107755571D01*
X66256285Y-108041285D02*
X66327714Y-107898428D01*
X66399142Y-107827000D01*
X66542000Y-107755571D01*
X66684857Y-107755571D01*
X68827714Y-107969857D02*
X69042000Y-108041285D01*
X69113428Y-108112714D01*
X69184857Y-108255571D01*
X69184857Y-108469857D01*
X69113428Y-108612714D01*
X69042000Y-108684142D01*
X68899142Y-108755571D01*
X68327714Y-108755571D01*
X68327714Y-107255571D01*
X68827714Y-107255571D01*
X68970571Y-107327000D01*
X69042000Y-107398428D01*
X69113428Y-107541285D01*
X69113428Y-107684142D01*
X69042000Y-107827000D01*
X68970571Y-107898428D01*
X68827714Y-107969857D01*
X68327714Y-107969857D01*
X69827714Y-108755571D02*
X69827714Y-107755571D01*
X69827714Y-108041285D02*
X69899142Y-107898428D01*
X69970571Y-107827000D01*
X70113428Y-107755571D01*
X70256285Y-107755571D01*
X71399142Y-108755571D02*
X71399142Y-107969857D01*
X71327714Y-107827000D01*
X71184857Y-107755571D01*
X70899142Y-107755571D01*
X70756285Y-107827000D01*
X71399142Y-108684142D02*
X71256285Y-108755571D01*
X70899142Y-108755571D01*
X70756285Y-108684142D01*
X70684857Y-108541285D01*
X70684857Y-108398428D01*
X70756285Y-108255571D01*
X70899142Y-108184142D01*
X71256285Y-108184142D01*
X71399142Y-108112714D01*
X72113428Y-108755571D02*
X72113428Y-107255571D01*
X72256285Y-108184142D02*
X72684857Y-108755571D01*
X72684857Y-107755571D02*
X72113428Y-108327000D01*
X73899142Y-108684142D02*
X73756285Y-108755571D01*
X73470571Y-108755571D01*
X73327714Y-108684142D01*
X73256285Y-108541285D01*
X73256285Y-107969857D01*
X73327714Y-107827000D01*
X73470571Y-107755571D01*
X73756285Y-107755571D01*
X73899142Y-107827000D01*
X73970571Y-107969857D01*
X73970571Y-108112714D01*
X73256285Y-108255571D01*
D10*
X84637619Y-121848571D02*
X84780476Y-121896190D01*
X84828095Y-121943809D01*
X84875714Y-122039047D01*
X84875714Y-122181904D01*
X84828095Y-122277142D01*
X84780476Y-122324761D01*
X84685238Y-122372380D01*
X84304285Y-122372380D01*
X84304285Y-121372380D01*
X84637619Y-121372380D01*
X84732857Y-121420000D01*
X84780476Y-121467619D01*
X84828095Y-121562857D01*
X84828095Y-121658095D01*
X84780476Y-121753333D01*
X84732857Y-121800952D01*
X84637619Y-121848571D01*
X84304285Y-121848571D01*
X86018571Y-121324761D02*
X85161428Y-122610476D01*
X87701428Y-121848571D02*
X87844285Y-121896190D01*
X87891904Y-121943809D01*
X87939523Y-122039047D01*
X87939523Y-122181904D01*
X87891904Y-122277142D01*
X87844285Y-122324761D01*
X87749047Y-122372380D01*
X87368095Y-122372380D01*
X87368095Y-121372380D01*
X87701428Y-121372380D01*
X87796666Y-121420000D01*
X87844285Y-121467619D01*
X87891904Y-121562857D01*
X87891904Y-121658095D01*
X87844285Y-121753333D01*
X87796666Y-121800952D01*
X87701428Y-121848571D01*
X87368095Y-121848571D01*
X92471904Y-122086666D02*
X92948095Y-122086666D01*
X92376666Y-122372380D02*
X92710000Y-121372380D01*
X93043333Y-122372380D01*
X89408095Y-122086666D02*
X89884285Y-122086666D01*
X89312857Y-122372380D02*
X89646190Y-121372380D01*
X89979523Y-122372380D01*
X91027142Y-121324761D02*
X90170000Y-122610476D01*
X85542380Y-78811428D02*
X85399523Y-78763809D01*
X85351904Y-78716190D01*
X85304285Y-78620952D01*
X85304285Y-78478095D01*
X85351904Y-78382857D01*
X85399523Y-78335238D01*
X85494761Y-78287619D01*
X85875714Y-78287619D01*
X85875714Y-79287619D01*
X85542380Y-79287619D01*
X85447142Y-79240000D01*
X85399523Y-79192380D01*
X85351904Y-79097142D01*
X85351904Y-79001904D01*
X85399523Y-78906666D01*
X85447142Y-78859047D01*
X85542380Y-78811428D01*
X85875714Y-78811428D01*
X84161428Y-79335238D02*
X85018571Y-78049523D01*
X87558571Y-78811428D02*
X87415714Y-78763809D01*
X87368095Y-78716190D01*
X87320476Y-78620952D01*
X87320476Y-78478095D01*
X87368095Y-78382857D01*
X87415714Y-78335238D01*
X87510952Y-78287619D01*
X87891904Y-78287619D01*
X87891904Y-79287619D01*
X87558571Y-79287619D01*
X87463333Y-79240000D01*
X87415714Y-79192380D01*
X87368095Y-79097142D01*
X87368095Y-79001904D01*
X87415714Y-78906666D01*
X87463333Y-78859047D01*
X87558571Y-78811428D01*
X87891904Y-78811428D01*
X90931904Y-78573333D02*
X90455714Y-78573333D01*
X91027142Y-78287619D02*
X90693809Y-79287619D01*
X90360476Y-78287619D01*
X89312857Y-79335238D02*
X90170000Y-78049523D01*
X92948095Y-78573333D02*
X92471904Y-78573333D01*
X93043333Y-78287619D02*
X92710000Y-79287619D01*
X92376666Y-78287619D01*
X68706904Y-79240000D02*
X68802142Y-79287619D01*
X68945000Y-79287619D01*
X69087857Y-79240000D01*
X69183095Y-79144761D01*
X69230714Y-79049523D01*
X69278333Y-78859047D01*
X69278333Y-78716190D01*
X69230714Y-78525714D01*
X69183095Y-78430476D01*
X69087857Y-78335238D01*
X68945000Y-78287619D01*
X68849761Y-78287619D01*
X68706904Y-78335238D01*
X68659285Y-78382857D01*
X68659285Y-78716190D01*
X68849761Y-78716190D01*
X68230714Y-78287619D02*
X68230714Y-79287619D01*
X67659285Y-78287619D01*
X67659285Y-79287619D01*
X67183095Y-78287619D02*
X67183095Y-79287619D01*
X66945000Y-79287619D01*
X66802142Y-79240000D01*
X66706904Y-79144761D01*
X66659285Y-79049523D01*
X66611666Y-78859047D01*
X66611666Y-78716190D01*
X66659285Y-78525714D01*
X66706904Y-78430476D01*
X66802142Y-78335238D01*
X66945000Y-78287619D01*
X67183095Y-78287619D01*
X65325476Y-79192380D02*
X65277857Y-79240000D01*
X65182619Y-79287619D01*
X64944523Y-79287619D01*
X64849285Y-79240000D01*
X64801666Y-79192380D01*
X64754047Y-79097142D01*
X64754047Y-79001904D01*
X64801666Y-78859047D01*
X65373095Y-78287619D01*
X64754047Y-78287619D01*
X63896904Y-78954285D02*
X63896904Y-78287619D01*
X64135000Y-79335238D02*
X64373095Y-78620952D01*
X63754047Y-78620952D01*
X63515952Y-79287619D02*
X63182619Y-78287619D01*
X62849285Y-79287619D01*
D11*
X66421000Y-91313000D02*
X65913000Y-90805000D01*
X66421000Y-90297000D02*
X66421000Y-91313000D01*
X65913000Y-90805000D02*
X66421000Y-90297000D01*
X65659000Y-90297000D02*
X65659000Y-91313000D01*
X74803000Y-84455000D02*
X73787000Y-84455000D01*
X73787000Y-83693000D02*
X74803000Y-83693000D01*
X74295000Y-84201000D02*
X73787000Y-83693000D01*
X74803000Y-83693000D02*
X74295000Y-84201000D01*
X83439000Y-104267000D02*
X83439000Y-105283000D01*
X83947000Y-104775000D02*
X83439000Y-104267000D01*
X83439000Y-105283000D02*
X83947000Y-104775000D01*
X84201000Y-104267000D02*
X84201000Y-105283000D01*
X94361000Y-104267000D02*
X94361000Y-105283000D01*
X93599000Y-104267000D02*
X93599000Y-105283000D01*
X94107000Y-104775000D02*
X93599000Y-104267000D01*
X93599000Y-105283000D02*
X94107000Y-104775000D01*
X81153000Y-104267000D02*
X81153000Y-105283000D01*
X80391000Y-105283000D02*
X80899000Y-104775000D01*
X80391000Y-104267000D02*
X80391000Y-105283000D01*
X80899000Y-104775000D02*
X80391000Y-104267000D01*
X90551000Y-105283000D02*
X91059000Y-104775000D01*
X90551000Y-104267000D02*
X90551000Y-105283000D01*
X91059000Y-104775000D02*
X90551000Y-104267000D01*
X91313000Y-104267000D02*
X91313000Y-105283000D01*
X71628000Y-91948000D02*
X71628000Y-90932000D01*
X71882000Y-91440000D02*
X72390000Y-91948000D01*
X72390000Y-90932000D02*
X71882000Y-91440000D01*
X72390000Y-91948000D02*
X72390000Y-90932000D01*
X62357000Y-88773000D02*
X61849000Y-88265000D01*
X62357000Y-87757000D02*
X62357000Y-88773000D01*
X61849000Y-88265000D02*
X62357000Y-87757000D01*
X72263000Y-88519000D02*
X71247000Y-88519000D01*
X71755000Y-88265000D02*
X71247000Y-87757000D01*
X72263000Y-87757000D02*
X71755000Y-88265000D01*
X71247000Y-87757000D02*
X72263000Y-87757000D01*
X61595000Y-87757000D02*
X61595000Y-88773000D01*
D12*
%TO.C,P3*%
X96075000Y-118225000D02*
G75*
G03*
X96075000Y-118225000I-125000J0D01*
G01*
D10*
X82350000Y-114110000D02*
X95450000Y-114110000D01*
X95450000Y-120840000D02*
X95450000Y-114110000D01*
X82350000Y-120840000D02*
X95450000Y-120840000D01*
X82350000Y-120840000D02*
X82350000Y-114110000D01*
D13*
%TO.C,RV1*%
X91667064Y-111660000D02*
X91212936Y-111660000D01*
X91667064Y-113130000D02*
X91212936Y-113130000D01*
%TO.C,RV2*%
X86587064Y-113130000D02*
X86132936Y-113130000D01*
X86587064Y-111660000D02*
X86132936Y-111660000D01*
%TO.C,C1*%
X68726267Y-104015000D02*
X68433733Y-104015000D01*
X68726267Y-102995000D02*
X68433733Y-102995000D01*
%TO.C,D1*%
X61640000Y-89155000D02*
X68540000Y-89155000D01*
X61640000Y-92455000D02*
X68540000Y-92455000D01*
X61640000Y-89155000D02*
X61640000Y-92455000D01*
%TO.C,D2*%
X96230000Y-105775000D02*
X92330000Y-105775000D01*
X96230000Y-103775000D02*
X92330000Y-103775000D01*
X96230000Y-105775000D02*
X96230000Y-103775000D01*
%TO.C,D3*%
X86070000Y-105775000D02*
X86070000Y-103775000D01*
X86070000Y-103775000D02*
X82170000Y-103775000D01*
X86070000Y-105775000D02*
X82170000Y-105775000D01*
%TO.C,D4*%
X75095000Y-90705000D02*
X72635000Y-90705000D01*
X72635000Y-90705000D02*
X72635000Y-92175000D01*
X72635000Y-92175000D02*
X75095000Y-92175000D01*
%TO.C,D5*%
X72645000Y-88474000D02*
X75945000Y-88474000D01*
X75945000Y-88474000D02*
X75945000Y-81574000D01*
X72645000Y-88474000D02*
X72645000Y-81574000D01*
D10*
%TO.C,K1*%
X90170000Y-88770000D02*
X91440000Y-88770000D01*
X90170000Y-90040000D02*
X90170000Y-88770000D01*
X97790000Y-88770000D02*
X97790000Y-90040000D01*
X96520000Y-88770000D02*
X97790000Y-88770000D01*
X97790000Y-102870000D02*
X96520000Y-102870000D01*
X97790000Y-101600000D02*
X97790000Y-102870000D01*
X90170000Y-102870000D02*
X90170000Y-101600000D01*
X91440000Y-102870000D02*
X90170000Y-102870000D01*
%TO.C,K2*%
X81280000Y-102870000D02*
X80010000Y-102870000D01*
X80010000Y-102870000D02*
X80010000Y-101600000D01*
X87630000Y-101600000D02*
X87630000Y-102870000D01*
X87630000Y-102870000D02*
X86360000Y-102870000D01*
X86360000Y-88770000D02*
X87630000Y-88770000D01*
X87630000Y-88770000D02*
X87630000Y-90040000D01*
X80010000Y-90040000D02*
X80010000Y-88770000D01*
X80010000Y-88770000D02*
X81280000Y-88770000D01*
%TO.C,P1*%
X82350000Y-86550000D02*
X82350000Y-79820000D01*
X82350000Y-86550000D02*
X95450000Y-86550000D01*
X95450000Y-86550000D02*
X95450000Y-79820000D01*
X82350000Y-79820000D02*
X95450000Y-79820000D01*
D12*
X96075000Y-83935000D02*
G75*
G03*
X96075000Y-83935000I-125000J0D01*
G01*
D14*
%TO.C,P2*%
X69725000Y-79885000D02*
X69725000Y-86485000D01*
X69725000Y-86485000D02*
X62355000Y-86485000D01*
X62355000Y-86485000D02*
X62355000Y-79885000D01*
X62355000Y-79885000D02*
X69725000Y-79885000D01*
D11*
X70420000Y-83945000D02*
G75*
G03*
X70420000Y-83945000I-100000J0D01*
G01*
D13*
%TO.C,Q1*%
X75055000Y-103180000D02*
X75055000Y-102250000D01*
X75055000Y-100020000D02*
X75055000Y-100950000D01*
X75055000Y-100020000D02*
X71895000Y-100020000D01*
X75055000Y-103180000D02*
X73595000Y-103180000D01*
%TO.C,R1*%
X63006500Y-97535276D02*
X63006500Y-98044724D01*
X61961500Y-97535276D02*
X61961500Y-98044724D01*
%TO.C,R2*%
X63739500Y-102743724D02*
X63739500Y-102234276D01*
X64784500Y-102743724D02*
X64784500Y-102234276D01*
%TO.C,R3*%
X63739500Y-97535276D02*
X63739500Y-98044724D01*
X64784500Y-97535276D02*
X64784500Y-98044724D01*
%TO.C,R4*%
X68834724Y-106059500D02*
X68325276Y-106059500D01*
X68834724Y-105014500D02*
X68325276Y-105014500D01*
%TO.C,R5*%
X68325276Y-96280500D02*
X68834724Y-96280500D01*
X68325276Y-95235500D02*
X68834724Y-95235500D01*
%TO.C,R6*%
X72883500Y-95123724D02*
X72883500Y-94614276D01*
X73928500Y-95123724D02*
X73928500Y-94614276D01*
%TO.C,R7*%
X74661500Y-94614276D02*
X74661500Y-95123724D01*
X75706500Y-94614276D02*
X75706500Y-95123724D01*
%TO.C,U1*%
X67680000Y-101940000D02*
X69480000Y-101940000D01*
X69480000Y-98720000D02*
X67030000Y-98720000D01*
%TO.C,RV1*%
D10*
X90844761Y-111069380D02*
X90511428Y-110593190D01*
X90273333Y-111069380D02*
X90273333Y-110069380D01*
X90654285Y-110069380D01*
X90749523Y-110117000D01*
X90797142Y-110164619D01*
X90844761Y-110259857D01*
X90844761Y-110402714D01*
X90797142Y-110497952D01*
X90749523Y-110545571D01*
X90654285Y-110593190D01*
X90273333Y-110593190D01*
X91130476Y-110069380D02*
X91463809Y-111069380D01*
X91797142Y-110069380D01*
X92654285Y-111069380D02*
X92082857Y-111069380D01*
X92368571Y-111069380D02*
X92368571Y-110069380D01*
X92273333Y-110212238D01*
X92178095Y-110307476D01*
X92082857Y-110355095D01*
%TO.C,RV2*%
X85764761Y-111069380D02*
X85431428Y-110593190D01*
X85193333Y-111069380D02*
X85193333Y-110069380D01*
X85574285Y-110069380D01*
X85669523Y-110117000D01*
X85717142Y-110164619D01*
X85764761Y-110259857D01*
X85764761Y-110402714D01*
X85717142Y-110497952D01*
X85669523Y-110545571D01*
X85574285Y-110593190D01*
X85193333Y-110593190D01*
X86050476Y-110069380D02*
X86383809Y-111069380D01*
X86717142Y-110069380D01*
X87002857Y-110164619D02*
X87050476Y-110117000D01*
X87145714Y-110069380D01*
X87383809Y-110069380D01*
X87479047Y-110117000D01*
X87526666Y-110164619D01*
X87574285Y-110259857D01*
X87574285Y-110355095D01*
X87526666Y-110497952D01*
X86955238Y-111069380D01*
X87574285Y-111069380D01*
%TO.C,C1*%
X66651142Y-103671666D02*
X66698761Y-103719285D01*
X66746380Y-103862142D01*
X66746380Y-103957380D01*
X66698761Y-104100238D01*
X66603523Y-104195476D01*
X66508285Y-104243095D01*
X66317809Y-104290714D01*
X66174952Y-104290714D01*
X65984476Y-104243095D01*
X65889238Y-104195476D01*
X65794000Y-104100238D01*
X65746380Y-103957380D01*
X65746380Y-103862142D01*
X65794000Y-103719285D01*
X65841619Y-103671666D01*
X66746380Y-102719285D02*
X66746380Y-103290714D01*
X66746380Y-103005000D02*
X65746380Y-103005000D01*
X65889238Y-103100238D01*
X65984476Y-103195476D01*
X66032095Y-103290714D01*
%TO.C,D1*%
X65301904Y-88757380D02*
X65301904Y-87757380D01*
X65540000Y-87757380D01*
X65682857Y-87805000D01*
X65778095Y-87900238D01*
X65825714Y-87995476D01*
X65873333Y-88185952D01*
X65873333Y-88328809D01*
X65825714Y-88519285D01*
X65778095Y-88614523D01*
X65682857Y-88709761D01*
X65540000Y-88757380D01*
X65301904Y-88757380D01*
X66825714Y-88757380D02*
X66254285Y-88757380D01*
X66540000Y-88757380D02*
X66540000Y-87757380D01*
X66444761Y-87900238D01*
X66349523Y-87995476D01*
X66254285Y-88043095D01*
%TO.C,D2*%
X97607380Y-105513095D02*
X96607380Y-105513095D01*
X96607380Y-105275000D01*
X96655000Y-105132142D01*
X96750238Y-105036904D01*
X96845476Y-104989285D01*
X97035952Y-104941666D01*
X97178809Y-104941666D01*
X97369285Y-104989285D01*
X97464523Y-105036904D01*
X97559761Y-105132142D01*
X97607380Y-105275000D01*
X97607380Y-105513095D01*
X96702619Y-104560714D02*
X96655000Y-104513095D01*
X96607380Y-104417857D01*
X96607380Y-104179761D01*
X96655000Y-104084523D01*
X96702619Y-104036904D01*
X96797857Y-103989285D01*
X96893095Y-103989285D01*
X97035952Y-104036904D01*
X97607380Y-104608333D01*
X97607380Y-103989285D01*
%TO.C,D3*%
X87447380Y-105513095D02*
X86447380Y-105513095D01*
X86447380Y-105275000D01*
X86495000Y-105132142D01*
X86590238Y-105036904D01*
X86685476Y-104989285D01*
X86875952Y-104941666D01*
X87018809Y-104941666D01*
X87209285Y-104989285D01*
X87304523Y-105036904D01*
X87399761Y-105132142D01*
X87447380Y-105275000D01*
X87447380Y-105513095D01*
X86447380Y-104608333D02*
X86447380Y-103989285D01*
X86828333Y-104322619D01*
X86828333Y-104179761D01*
X86875952Y-104084523D01*
X86923571Y-104036904D01*
X87018809Y-103989285D01*
X87256904Y-103989285D01*
X87352142Y-104036904D01*
X87399761Y-104084523D01*
X87447380Y-104179761D01*
X87447380Y-104465476D01*
X87399761Y-104560714D01*
X87352142Y-104608333D01*
%TO.C,D4*%
X73556904Y-90462380D02*
X73556904Y-89462380D01*
X73795000Y-89462380D01*
X73937857Y-89510000D01*
X74033095Y-89605238D01*
X74080714Y-89700476D01*
X74128333Y-89890952D01*
X74128333Y-90033809D01*
X74080714Y-90224285D01*
X74033095Y-90319523D01*
X73937857Y-90414761D01*
X73795000Y-90462380D01*
X73556904Y-90462380D01*
X74985476Y-89795714D02*
X74985476Y-90462380D01*
X74747380Y-89414761D02*
X74509285Y-90129047D01*
X75128333Y-90129047D01*
%TO.C,D5*%
X72247380Y-84812095D02*
X71247380Y-84812095D01*
X71247380Y-84574000D01*
X71295000Y-84431142D01*
X71390238Y-84335904D01*
X71485476Y-84288285D01*
X71675952Y-84240666D01*
X71818809Y-84240666D01*
X72009285Y-84288285D01*
X72104523Y-84335904D01*
X72199761Y-84431142D01*
X72247380Y-84574000D01*
X72247380Y-84812095D01*
X71247380Y-83335904D02*
X71247380Y-83812095D01*
X71723571Y-83859714D01*
X71675952Y-83812095D01*
X71628333Y-83716857D01*
X71628333Y-83478761D01*
X71675952Y-83383523D01*
X71723571Y-83335904D01*
X71818809Y-83288285D01*
X72056904Y-83288285D01*
X72152142Y-83335904D01*
X72199761Y-83383523D01*
X72247380Y-83478761D01*
X72247380Y-83716857D01*
X72199761Y-83812095D01*
X72152142Y-83859714D01*
%TO.C,K1*%
X93241904Y-90622380D02*
X93241904Y-89622380D01*
X93813333Y-90622380D02*
X93384761Y-90050952D01*
X93813333Y-89622380D02*
X93241904Y-90193809D01*
X94765714Y-90622380D02*
X94194285Y-90622380D01*
X94480000Y-90622380D02*
X94480000Y-89622380D01*
X94384761Y-89765238D01*
X94289523Y-89860476D01*
X94194285Y-89908095D01*
%TO.C,K2*%
X83081904Y-90622380D02*
X83081904Y-89622380D01*
X83653333Y-90622380D02*
X83224761Y-90050952D01*
X83653333Y-89622380D02*
X83081904Y-90193809D01*
X84034285Y-89717619D02*
X84081904Y-89670000D01*
X84177142Y-89622380D01*
X84415238Y-89622380D01*
X84510476Y-89670000D01*
X84558095Y-89717619D01*
X84605714Y-89812857D01*
X84605714Y-89908095D01*
X84558095Y-90050952D01*
X83986666Y-90622380D01*
X84605714Y-90622380D01*
%TO.C,Q1*%
X74199761Y-99647619D02*
X74104523Y-99600000D01*
X74009285Y-99504761D01*
X73866428Y-99361904D01*
X73771190Y-99314285D01*
X73675952Y-99314285D01*
X73723571Y-99552380D02*
X73628333Y-99504761D01*
X73533095Y-99409523D01*
X73485476Y-99219047D01*
X73485476Y-98885714D01*
X73533095Y-98695238D01*
X73628333Y-98600000D01*
X73723571Y-98552380D01*
X73914047Y-98552380D01*
X74009285Y-98600000D01*
X74104523Y-98695238D01*
X74152142Y-98885714D01*
X74152142Y-99219047D01*
X74104523Y-99409523D01*
X74009285Y-99504761D01*
X73914047Y-99552380D01*
X73723571Y-99552380D01*
X75104523Y-99552380D02*
X74533095Y-99552380D01*
X74818809Y-99552380D02*
X74818809Y-98552380D01*
X74723571Y-98695238D01*
X74628333Y-98790476D01*
X74533095Y-98838095D01*
%TO.C,R1*%
X62317333Y-95956380D02*
X61984000Y-95480190D01*
X61745904Y-95956380D02*
X61745904Y-94956380D01*
X62126857Y-94956380D01*
X62222095Y-95004000D01*
X62269714Y-95051619D01*
X62317333Y-95146857D01*
X62317333Y-95289714D01*
X62269714Y-95384952D01*
X62222095Y-95432571D01*
X62126857Y-95480190D01*
X61745904Y-95480190D01*
X63269714Y-95956380D02*
X62698285Y-95956380D01*
X62984000Y-95956380D02*
X62984000Y-94956380D01*
X62888761Y-95099238D01*
X62793523Y-95194476D01*
X62698285Y-95242095D01*
%TO.C,R2*%
X64095333Y-105354380D02*
X63762000Y-104878190D01*
X63523904Y-105354380D02*
X63523904Y-104354380D01*
X63904857Y-104354380D01*
X64000095Y-104402000D01*
X64047714Y-104449619D01*
X64095333Y-104544857D01*
X64095333Y-104687714D01*
X64047714Y-104782952D01*
X64000095Y-104830571D01*
X63904857Y-104878190D01*
X63523904Y-104878190D01*
X64476285Y-104449619D02*
X64523904Y-104402000D01*
X64619142Y-104354380D01*
X64857238Y-104354380D01*
X64952476Y-104402000D01*
X65000095Y-104449619D01*
X65047714Y-104544857D01*
X65047714Y-104640095D01*
X65000095Y-104782952D01*
X64428666Y-105354380D01*
X65047714Y-105354380D01*
%TO.C,R3*%
X64095333Y-95956380D02*
X63762000Y-95480190D01*
X63523904Y-95956380D02*
X63523904Y-94956380D01*
X63904857Y-94956380D01*
X64000095Y-95004000D01*
X64047714Y-95051619D01*
X64095333Y-95146857D01*
X64095333Y-95289714D01*
X64047714Y-95384952D01*
X64000095Y-95432571D01*
X63904857Y-95480190D01*
X63523904Y-95480190D01*
X64428666Y-94956380D02*
X65047714Y-94956380D01*
X64714380Y-95337333D01*
X64857238Y-95337333D01*
X64952476Y-95384952D01*
X65000095Y-95432571D01*
X65047714Y-95527809D01*
X65047714Y-95765904D01*
X65000095Y-95861142D01*
X64952476Y-95908761D01*
X64857238Y-95956380D01*
X64571523Y-95956380D01*
X64476285Y-95908761D01*
X64428666Y-95861142D01*
%TO.C,R4*%
X66746380Y-105703666D02*
X66270190Y-106037000D01*
X66746380Y-106275095D02*
X65746380Y-106275095D01*
X65746380Y-105894142D01*
X65794000Y-105798904D01*
X65841619Y-105751285D01*
X65936857Y-105703666D01*
X66079714Y-105703666D01*
X66174952Y-105751285D01*
X66222571Y-105798904D01*
X66270190Y-105894142D01*
X66270190Y-106275095D01*
X66079714Y-104846523D02*
X66746380Y-104846523D01*
X65698761Y-105084619D02*
X66413047Y-105322714D01*
X66413047Y-104703666D01*
%TO.C,R5*%
X68413333Y-94780380D02*
X68080000Y-94304190D01*
X67841904Y-94780380D02*
X67841904Y-93780380D01*
X68222857Y-93780380D01*
X68318095Y-93828000D01*
X68365714Y-93875619D01*
X68413333Y-93970857D01*
X68413333Y-94113714D01*
X68365714Y-94208952D01*
X68318095Y-94256571D01*
X68222857Y-94304190D01*
X67841904Y-94304190D01*
X69318095Y-93780380D02*
X68841904Y-93780380D01*
X68794285Y-94256571D01*
X68841904Y-94208952D01*
X68937142Y-94161333D01*
X69175238Y-94161333D01*
X69270476Y-94208952D01*
X69318095Y-94256571D01*
X69365714Y-94351809D01*
X69365714Y-94589904D01*
X69318095Y-94685142D01*
X69270476Y-94732761D01*
X69175238Y-94780380D01*
X68937142Y-94780380D01*
X68841904Y-94732761D01*
X68794285Y-94685142D01*
%TO.C,R6*%
X72428380Y-95035666D02*
X71952190Y-95369000D01*
X72428380Y-95607095D02*
X71428380Y-95607095D01*
X71428380Y-95226142D01*
X71476000Y-95130904D01*
X71523619Y-95083285D01*
X71618857Y-95035666D01*
X71761714Y-95035666D01*
X71856952Y-95083285D01*
X71904571Y-95130904D01*
X71952190Y-95226142D01*
X71952190Y-95607095D01*
X71428380Y-94178523D02*
X71428380Y-94369000D01*
X71476000Y-94464238D01*
X71523619Y-94511857D01*
X71666476Y-94607095D01*
X71856952Y-94654714D01*
X72237904Y-94654714D01*
X72333142Y-94607095D01*
X72380761Y-94559476D01*
X72428380Y-94464238D01*
X72428380Y-94273761D01*
X72380761Y-94178523D01*
X72333142Y-94130904D01*
X72237904Y-94083285D01*
X71999809Y-94083285D01*
X71904571Y-94130904D01*
X71856952Y-94178523D01*
X71809333Y-94273761D01*
X71809333Y-94464238D01*
X71856952Y-94559476D01*
X71904571Y-94607095D01*
X71999809Y-94654714D01*
%TO.C,R7*%
X77066380Y-95035666D02*
X76590190Y-95369000D01*
X77066380Y-95607095D02*
X76066380Y-95607095D01*
X76066380Y-95226142D01*
X76114000Y-95130904D01*
X76161619Y-95083285D01*
X76256857Y-95035666D01*
X76399714Y-95035666D01*
X76494952Y-95083285D01*
X76542571Y-95130904D01*
X76590190Y-95226142D01*
X76590190Y-95607095D01*
X76066380Y-94702333D02*
X76066380Y-94035666D01*
X77066380Y-94464238D01*
%TO.C,U1*%
X67818095Y-97369380D02*
X67818095Y-98178904D01*
X67865714Y-98274142D01*
X67913333Y-98321761D01*
X68008571Y-98369380D01*
X68199047Y-98369380D01*
X68294285Y-98321761D01*
X68341904Y-98274142D01*
X68389523Y-98178904D01*
X68389523Y-97369380D01*
X69389523Y-98369380D02*
X68818095Y-98369380D01*
X69103809Y-98369380D02*
X69103809Y-97369380D01*
X69008571Y-97512238D01*
X68913333Y-97607476D01*
X68818095Y-97655095D01*
%TD*%
M02*
