M48
; DRILL file {KiCad (5.1.10)-1} date 09/10/21 16:41:41
; FORMAT={-:-/ absolute / metric / decimal}
; #@! TF.CreationDate,2021-09-10T16:41:41-04:00
; #@! TF.GenerationSoftware,Kicad,Pcbnew,(5.1.10)-1
; #@! TF.FileFunction,Plated,1,2,PTH
FMAT,2
METRIC
T1C0.400
T2C0.762
T3C1.090
T4C1.170
T5C2.500
%
G90
G05
T1
X66.675Y-93.98
X66.675Y-97.536
T2
X81.28Y-91.44
X81.28Y-93.98
X81.28Y-96.52
X81.28Y-101.6
X86.36Y-91.44
X86.36Y-93.98
X86.36Y-96.52
X86.36Y-101.6
X91.44Y-91.44
X91.44Y-93.98
X91.44Y-96.52
X91.44Y-101.6
X96.52Y-91.44
X96.52Y-93.98
X96.52Y-96.52
X96.52Y-101.6
T3
X85.09Y-83.945
X85.09Y-118.235
X87.63Y-83.945
X87.63Y-118.235
X90.17Y-83.945
X90.17Y-118.235
X92.71Y-83.945
X92.71Y-118.235
T4
X64.77Y-83.945
X67.31Y-83.945
T5
X59.055Y-80.01
X59.055Y-120.65
X99.695Y-80.01
X99.695Y-120.65
T0
M30
