%TF.GenerationSoftware,KiCad,Pcbnew,(5.1.10)-1*%
%TF.CreationDate,2021-09-10T16:42:04-04:00*%
%TF.ProjectId,Z_Brake,5a5f4272-616b-4652-9e6b-696361645f70,rev?*%
%TF.SameCoordinates,Original*%
%TF.FileFunction,Copper,L1,Top*%
%TF.FilePolarity,Positive*%
%FSLAX46Y46*%
G04 Gerber Fmt 4.6, Leading zero omitted, Abs format (unit mm)*
G04 Created by KiCad (PCBNEW (5.1.10)-1) date 2021-09-10 16:42:04*
%MOMM*%
%LPD*%
G01*
G04 APERTURE LIST*
%TA.AperFunction,ComponentPad*%
%ADD10R,1.690000X1.690000*%
%TD*%
%TA.AperFunction,ComponentPad*%
%ADD11C,1.690000*%
%TD*%
%TA.AperFunction,SMDPad,CuDef*%
%ADD12R,3.500000X1.800000*%
%TD*%
%TA.AperFunction,SMDPad,CuDef*%
%ADD13R,0.900000X1.200000*%
%TD*%
%TA.AperFunction,SMDPad,CuDef*%
%ADD14R,1.800000X3.500000*%
%TD*%
%TA.AperFunction,ComponentPad*%
%ADD15C,1.524000*%
%TD*%
%TA.AperFunction,ComponentPad*%
%ADD16C,5.000000*%
%TD*%
%TA.AperFunction,ComponentPad*%
%ADD17R,1.755000X1.755000*%
%TD*%
%TA.AperFunction,ComponentPad*%
%ADD18C,1.755000*%
%TD*%
%TA.AperFunction,SMDPad,CuDef*%
%ADD19R,1.900000X0.800000*%
%TD*%
%TA.AperFunction,SMDPad,CuDef*%
%ADD20R,1.560000X0.650000*%
%TD*%
%TA.AperFunction,ViaPad*%
%ADD21C,0.800000*%
%TD*%
%TA.AperFunction,Conductor*%
%ADD22C,0.350000*%
%TD*%
%TA.AperFunction,Conductor*%
%ADD23C,1.000000*%
%TD*%
%TA.AperFunction,Conductor*%
%ADD24C,1.500000*%
%TD*%
%TA.AperFunction,Conductor*%
%ADD25C,0.254000*%
%TD*%
%TA.AperFunction,Conductor*%
%ADD26C,0.100000*%
%TD*%
G04 APERTURE END LIST*
D10*
%TO.P,P3,1*%
%TO.N,Net-(K1-Pad4)*%
X92710000Y-118235000D03*
D11*
%TO.P,P3,2*%
%TO.N,Net-(K1-Pad9)*%
X90170000Y-118235000D03*
%TO.P,P3,3*%
%TO.N,Net-(K2-Pad4)*%
X87630000Y-118235000D03*
%TO.P,P3,4*%
%TO.N,Net-(K2-Pad9)*%
X85090000Y-118235000D03*
%TD*%
%TO.P,RV1,2*%
%TO.N,Net-(K1-Pad9)*%
%TA.AperFunction,SMDPad,CuDef*%
G36*
G01*
X91040000Y-111944999D02*
X91040000Y-112845001D01*
G75*
G02*
X90790001Y-113095000I-249999J0D01*
G01*
X90089999Y-113095000D01*
G75*
G02*
X89840000Y-112845001I0J249999D01*
G01*
X89840000Y-111944999D01*
G75*
G02*
X90089999Y-111695000I249999J0D01*
G01*
X90790001Y-111695000D01*
G75*
G02*
X91040000Y-111944999I0J-249999D01*
G01*
G37*
%TD.AperFunction*%
%TO.P,RV1,1*%
%TO.N,Net-(K1-Pad4)*%
%TA.AperFunction,SMDPad,CuDef*%
G36*
G01*
X93040000Y-111944999D02*
X93040000Y-112845001D01*
G75*
G02*
X92790001Y-113095000I-249999J0D01*
G01*
X92089999Y-113095000D01*
G75*
G02*
X91840000Y-112845001I0J249999D01*
G01*
X91840000Y-111944999D01*
G75*
G02*
X92089999Y-111695000I249999J0D01*
G01*
X92790001Y-111695000D01*
G75*
G02*
X93040000Y-111944999I0J-249999D01*
G01*
G37*
%TD.AperFunction*%
%TD*%
%TO.P,RV2,1*%
%TO.N,Net-(K2-Pad4)*%
%TA.AperFunction,SMDPad,CuDef*%
G36*
G01*
X87960000Y-111944999D02*
X87960000Y-112845001D01*
G75*
G02*
X87710001Y-113095000I-249999J0D01*
G01*
X87009999Y-113095000D01*
G75*
G02*
X86760000Y-112845001I0J249999D01*
G01*
X86760000Y-111944999D01*
G75*
G02*
X87009999Y-111695000I249999J0D01*
G01*
X87710001Y-111695000D01*
G75*
G02*
X87960000Y-111944999I0J-249999D01*
G01*
G37*
%TD.AperFunction*%
%TO.P,RV2,2*%
%TO.N,Net-(K2-Pad9)*%
%TA.AperFunction,SMDPad,CuDef*%
G36*
G01*
X85960000Y-111944999D02*
X85960000Y-112845001D01*
G75*
G02*
X85710001Y-113095000I-249999J0D01*
G01*
X85009999Y-113095000D01*
G75*
G02*
X84760000Y-112845001I0J249999D01*
G01*
X84760000Y-111944999D01*
G75*
G02*
X85009999Y-111695000I249999J0D01*
G01*
X85710001Y-111695000D01*
G75*
G02*
X85960000Y-111944999I0J-249999D01*
G01*
G37*
%TD.AperFunction*%
%TD*%
%TO.P,C1,1*%
%TO.N,Net-(C1-Pad1)*%
%TA.AperFunction,SMDPad,CuDef*%
G36*
G01*
X69980000Y-103267500D02*
X69980000Y-103742500D01*
G75*
G02*
X69742500Y-103980000I-237500J0D01*
G01*
X69142500Y-103980000D01*
G75*
G02*
X68905000Y-103742500I0J237500D01*
G01*
X68905000Y-103267500D01*
G75*
G02*
X69142500Y-103030000I237500J0D01*
G01*
X69742500Y-103030000D01*
G75*
G02*
X69980000Y-103267500I0J-237500D01*
G01*
G37*
%TD.AperFunction*%
%TO.P,C1,2*%
%TO.N,Net-(C1-Pad2)*%
%TA.AperFunction,SMDPad,CuDef*%
G36*
G01*
X68255000Y-103267500D02*
X68255000Y-103742500D01*
G75*
G02*
X68017500Y-103980000I-237500J0D01*
G01*
X67417500Y-103980000D01*
G75*
G02*
X67180000Y-103742500I0J237500D01*
G01*
X67180000Y-103267500D01*
G75*
G02*
X67417500Y-103030000I237500J0D01*
G01*
X68017500Y-103030000D01*
G75*
G02*
X68255000Y-103267500I0J-237500D01*
G01*
G37*
%TD.AperFunction*%
%TD*%
D12*
%TO.P,D1,2*%
%TO.N,GND*%
X68540000Y-90805000D03*
%TO.P,D1,1*%
%TO.N,Net-(D1-Pad1)*%
X63540000Y-90805000D03*
%TD*%
D13*
%TO.P,D2,2*%
%TO.N,Net-(D2-Pad2)*%
X92330000Y-104775000D03*
%TO.P,D2,1*%
%TO.N,VDD*%
X95630000Y-104775000D03*
%TD*%
%TO.P,D3,1*%
%TO.N,VDD*%
X85470000Y-104775000D03*
%TO.P,D3,2*%
%TO.N,Net-(D2-Pad2)*%
X82170000Y-104775000D03*
%TD*%
%TO.P,D4,1*%
%TO.N,Net-(D4-Pad1)*%
%TA.AperFunction,SMDPad,CuDef*%
G36*
G01*
X72895000Y-91677500D02*
X72895000Y-91202500D01*
G75*
G02*
X73132500Y-90965000I237500J0D01*
G01*
X73707500Y-90965000D01*
G75*
G02*
X73945000Y-91202500I0J-237500D01*
G01*
X73945000Y-91677500D01*
G75*
G02*
X73707500Y-91915000I-237500J0D01*
G01*
X73132500Y-91915000D01*
G75*
G02*
X72895000Y-91677500I0J237500D01*
G01*
G37*
%TD.AperFunction*%
%TO.P,D4,2*%
%TO.N,VDD*%
%TA.AperFunction,SMDPad,CuDef*%
G36*
G01*
X74645000Y-91677500D02*
X74645000Y-91202500D01*
G75*
G02*
X74882500Y-90965000I237500J0D01*
G01*
X75457500Y-90965000D01*
G75*
G02*
X75695000Y-91202500I0J-237500D01*
G01*
X75695000Y-91677500D01*
G75*
G02*
X75457500Y-91915000I-237500J0D01*
G01*
X74882500Y-91915000D01*
G75*
G02*
X74645000Y-91677500I0J237500D01*
G01*
G37*
%TD.AperFunction*%
%TD*%
D14*
%TO.P,D5,1*%
%TO.N,VDD*%
X74295000Y-86574000D03*
%TO.P,D5,2*%
%TO.N,+24V*%
X74295000Y-81574000D03*
%TD*%
D15*
%TO.P,K1,10*%
%TO.N,Net-(K1-Pad10)*%
X91440000Y-96520000D03*
%TO.P,K1,9*%
%TO.N,Net-(K1-Pad9)*%
X91440000Y-93980000D03*
%TO.P,K1,8*%
%TO.N,Net-(K1-Pad8)*%
X91440000Y-91440000D03*
%TO.P,K1,12*%
%TO.N,Net-(D2-Pad2)*%
X91440000Y-101600000D03*
%TO.P,K1,1*%
%TO.N,VDD*%
X96520000Y-101600000D03*
%TO.P,K1,3*%
%TO.N,Net-(K1-Pad10)*%
X96520000Y-96520000D03*
%TO.P,K1,4*%
%TO.N,Net-(K1-Pad4)*%
X96520000Y-93980000D03*
%TO.P,K1,5*%
%TO.N,Net-(K1-Pad5)*%
X96520000Y-91440000D03*
%TD*%
%TO.P,K2,5*%
%TO.N,Net-(K2-Pad5)*%
X86360000Y-91440000D03*
%TO.P,K2,4*%
%TO.N,Net-(K2-Pad4)*%
X86360000Y-93980000D03*
%TO.P,K2,3*%
%TO.N,Net-(K2-Pad10)*%
X86360000Y-96520000D03*
%TO.P,K2,1*%
%TO.N,VDD*%
X86360000Y-101600000D03*
%TO.P,K2,12*%
%TO.N,Net-(D2-Pad2)*%
X81280000Y-101600000D03*
%TO.P,K2,8*%
%TO.N,Net-(K2-Pad8)*%
X81280000Y-91440000D03*
%TO.P,K2,9*%
%TO.N,Net-(K2-Pad9)*%
X81280000Y-93980000D03*
%TO.P,K2,10*%
%TO.N,Net-(K2-Pad10)*%
X81280000Y-96520000D03*
%TD*%
D16*
%TO.P,MH1,1*%
%TO.N,GND*%
X59055000Y-80010000D03*
%TD*%
%TO.P,MH2,1*%
%TO.N,GND*%
X99695000Y-80010000D03*
%TD*%
%TO.P,MH3,1*%
%TO.N,GND*%
X59055000Y-120650000D03*
%TD*%
%TO.P,MH4,1*%
%TO.N,GND*%
X99695000Y-120650000D03*
%TD*%
D11*
%TO.P,P1,4*%
%TO.N,Net-(K2-Pad8)*%
X85090000Y-83945000D03*
%TO.P,P1,3*%
%TO.N,Net-(K2-Pad5)*%
X87630000Y-83945000D03*
%TO.P,P1,2*%
%TO.N,Net-(K1-Pad8)*%
X90170000Y-83945000D03*
D10*
%TO.P,P1,1*%
%TO.N,Net-(K1-Pad5)*%
X92710000Y-83945000D03*
%TD*%
D17*
%TO.P,P2,1*%
%TO.N,GND*%
X67310000Y-83945000D03*
D18*
%TO.P,P2,2*%
%TO.N,+24V*%
X64770000Y-83945000D03*
%TD*%
D19*
%TO.P,Q1,1*%
%TO.N,Net-(Q1-Pad1)*%
X72795000Y-100650000D03*
%TO.P,Q1,2*%
%TO.N,GND*%
X72795000Y-102550000D03*
%TO.P,Q1,3*%
%TO.N,Net-(D2-Pad2)*%
X75795000Y-101600000D03*
%TD*%
%TO.P,R1,1*%
%TO.N,VDD*%
%TA.AperFunction,SMDPad,CuDef*%
G36*
G01*
X62246500Y-96390000D02*
X62721500Y-96390000D01*
G75*
G02*
X62959000Y-96627500I0J-237500D01*
G01*
X62959000Y-97127500D01*
G75*
G02*
X62721500Y-97365000I-237500J0D01*
G01*
X62246500Y-97365000D01*
G75*
G02*
X62009000Y-97127500I0J237500D01*
G01*
X62009000Y-96627500D01*
G75*
G02*
X62246500Y-96390000I237500J0D01*
G01*
G37*
%TD.AperFunction*%
%TO.P,R1,2*%
%TO.N,Net-(C1-Pad2)*%
%TA.AperFunction,SMDPad,CuDef*%
G36*
G01*
X62246500Y-98215000D02*
X62721500Y-98215000D01*
G75*
G02*
X62959000Y-98452500I0J-237500D01*
G01*
X62959000Y-98952500D01*
G75*
G02*
X62721500Y-99190000I-237500J0D01*
G01*
X62246500Y-99190000D01*
G75*
G02*
X62009000Y-98952500I0J237500D01*
G01*
X62009000Y-98452500D01*
G75*
G02*
X62246500Y-98215000I237500J0D01*
G01*
G37*
%TD.AperFunction*%
%TD*%
%TO.P,R2,1*%
%TO.N,Net-(C1-Pad2)*%
%TA.AperFunction,SMDPad,CuDef*%
G36*
G01*
X64499500Y-103889000D02*
X64024500Y-103889000D01*
G75*
G02*
X63787000Y-103651500I0J237500D01*
G01*
X63787000Y-103151500D01*
G75*
G02*
X64024500Y-102914000I237500J0D01*
G01*
X64499500Y-102914000D01*
G75*
G02*
X64737000Y-103151500I0J-237500D01*
G01*
X64737000Y-103651500D01*
G75*
G02*
X64499500Y-103889000I-237500J0D01*
G01*
G37*
%TD.AperFunction*%
%TO.P,R2,2*%
%TO.N,GND*%
%TA.AperFunction,SMDPad,CuDef*%
G36*
G01*
X64499500Y-102064000D02*
X64024500Y-102064000D01*
G75*
G02*
X63787000Y-101826500I0J237500D01*
G01*
X63787000Y-101326500D01*
G75*
G02*
X64024500Y-101089000I237500J0D01*
G01*
X64499500Y-101089000D01*
G75*
G02*
X64737000Y-101326500I0J-237500D01*
G01*
X64737000Y-101826500D01*
G75*
G02*
X64499500Y-102064000I-237500J0D01*
G01*
G37*
%TD.AperFunction*%
%TD*%
%TO.P,R3,2*%
%TO.N,Net-(D1-Pad1)*%
%TA.AperFunction,SMDPad,CuDef*%
G36*
G01*
X64024500Y-98215000D02*
X64499500Y-98215000D01*
G75*
G02*
X64737000Y-98452500I0J-237500D01*
G01*
X64737000Y-98952500D01*
G75*
G02*
X64499500Y-99190000I-237500J0D01*
G01*
X64024500Y-99190000D01*
G75*
G02*
X63787000Y-98952500I0J237500D01*
G01*
X63787000Y-98452500D01*
G75*
G02*
X64024500Y-98215000I237500J0D01*
G01*
G37*
%TD.AperFunction*%
%TO.P,R3,1*%
%TO.N,VDD*%
%TA.AperFunction,SMDPad,CuDef*%
G36*
G01*
X64024500Y-96390000D02*
X64499500Y-96390000D01*
G75*
G02*
X64737000Y-96627500I0J-237500D01*
G01*
X64737000Y-97127500D01*
G75*
G02*
X64499500Y-97365000I-237500J0D01*
G01*
X64024500Y-97365000D01*
G75*
G02*
X63787000Y-97127500I0J237500D01*
G01*
X63787000Y-96627500D01*
G75*
G02*
X64024500Y-96390000I237500J0D01*
G01*
G37*
%TD.AperFunction*%
%TD*%
%TO.P,R4,1*%
%TO.N,Net-(C1-Pad1)*%
%TA.AperFunction,SMDPad,CuDef*%
G36*
G01*
X69980000Y-105299500D02*
X69980000Y-105774500D01*
G75*
G02*
X69742500Y-106012000I-237500J0D01*
G01*
X69242500Y-106012000D01*
G75*
G02*
X69005000Y-105774500I0J237500D01*
G01*
X69005000Y-105299500D01*
G75*
G02*
X69242500Y-105062000I237500J0D01*
G01*
X69742500Y-105062000D01*
G75*
G02*
X69980000Y-105299500I0J-237500D01*
G01*
G37*
%TD.AperFunction*%
%TO.P,R4,2*%
%TO.N,Net-(C1-Pad2)*%
%TA.AperFunction,SMDPad,CuDef*%
G36*
G01*
X68155000Y-105299500D02*
X68155000Y-105774500D01*
G75*
G02*
X67917500Y-106012000I-237500J0D01*
G01*
X67417500Y-106012000D01*
G75*
G02*
X67180000Y-105774500I0J237500D01*
G01*
X67180000Y-105299500D01*
G75*
G02*
X67417500Y-105062000I237500J0D01*
G01*
X67917500Y-105062000D01*
G75*
G02*
X68155000Y-105299500I0J-237500D01*
G01*
G37*
%TD.AperFunction*%
%TD*%
%TO.P,R5,2*%
%TO.N,Net-(C1-Pad1)*%
%TA.AperFunction,SMDPad,CuDef*%
G36*
G01*
X69005000Y-95995500D02*
X69005000Y-95520500D01*
G75*
G02*
X69242500Y-95283000I237500J0D01*
G01*
X69742500Y-95283000D01*
G75*
G02*
X69980000Y-95520500I0J-237500D01*
G01*
X69980000Y-95995500D01*
G75*
G02*
X69742500Y-96233000I-237500J0D01*
G01*
X69242500Y-96233000D01*
G75*
G02*
X69005000Y-95995500I0J237500D01*
G01*
G37*
%TD.AperFunction*%
%TO.P,R5,1*%
%TO.N,VDD*%
%TA.AperFunction,SMDPad,CuDef*%
G36*
G01*
X67180000Y-95995500D02*
X67180000Y-95520500D01*
G75*
G02*
X67417500Y-95283000I237500J0D01*
G01*
X67917500Y-95283000D01*
G75*
G02*
X68155000Y-95520500I0J-237500D01*
G01*
X68155000Y-95995500D01*
G75*
G02*
X67917500Y-96233000I-237500J0D01*
G01*
X67417500Y-96233000D01*
G75*
G02*
X67180000Y-95995500I0J237500D01*
G01*
G37*
%TD.AperFunction*%
%TD*%
%TO.P,R6,1*%
%TO.N,Net-(Q1-Pad1)*%
%TA.AperFunction,SMDPad,CuDef*%
G36*
G01*
X73643500Y-96269000D02*
X73168500Y-96269000D01*
G75*
G02*
X72931000Y-96031500I0J237500D01*
G01*
X72931000Y-95531500D01*
G75*
G02*
X73168500Y-95294000I237500J0D01*
G01*
X73643500Y-95294000D01*
G75*
G02*
X73881000Y-95531500I0J-237500D01*
G01*
X73881000Y-96031500D01*
G75*
G02*
X73643500Y-96269000I-237500J0D01*
G01*
G37*
%TD.AperFunction*%
%TO.P,R6,2*%
%TO.N,Net-(C1-Pad1)*%
%TA.AperFunction,SMDPad,CuDef*%
G36*
G01*
X73643500Y-94444000D02*
X73168500Y-94444000D01*
G75*
G02*
X72931000Y-94206500I0J237500D01*
G01*
X72931000Y-93706500D01*
G75*
G02*
X73168500Y-93469000I237500J0D01*
G01*
X73643500Y-93469000D01*
G75*
G02*
X73881000Y-93706500I0J-237500D01*
G01*
X73881000Y-94206500D01*
G75*
G02*
X73643500Y-94444000I-237500J0D01*
G01*
G37*
%TD.AperFunction*%
%TD*%
%TO.P,R7,2*%
%TO.N,Net-(D2-Pad2)*%
%TA.AperFunction,SMDPad,CuDef*%
G36*
G01*
X74946500Y-95294000D02*
X75421500Y-95294000D01*
G75*
G02*
X75659000Y-95531500I0J-237500D01*
G01*
X75659000Y-96031500D01*
G75*
G02*
X75421500Y-96269000I-237500J0D01*
G01*
X74946500Y-96269000D01*
G75*
G02*
X74709000Y-96031500I0J237500D01*
G01*
X74709000Y-95531500D01*
G75*
G02*
X74946500Y-95294000I237500J0D01*
G01*
G37*
%TD.AperFunction*%
%TO.P,R7,1*%
%TO.N,Net-(D4-Pad1)*%
%TA.AperFunction,SMDPad,CuDef*%
G36*
G01*
X74946500Y-93469000D02*
X75421500Y-93469000D01*
G75*
G02*
X75659000Y-93706500I0J-237500D01*
G01*
X75659000Y-94206500D01*
G75*
G02*
X75421500Y-94444000I-237500J0D01*
G01*
X74946500Y-94444000D01*
G75*
G02*
X74709000Y-94206500I0J237500D01*
G01*
X74709000Y-93706500D01*
G75*
G02*
X74946500Y-93469000I237500J0D01*
G01*
G37*
%TD.AperFunction*%
%TD*%
D20*
%TO.P,U1,1*%
%TO.N,Net-(D1-Pad1)*%
X67230000Y-99380000D03*
%TO.P,U1,2*%
%TO.N,GND*%
X67230000Y-100330000D03*
%TO.P,U1,3*%
%TO.N,Net-(C1-Pad2)*%
X67230000Y-101280000D03*
%TO.P,U1,4*%
%TO.N,Net-(C1-Pad1)*%
X69930000Y-101280000D03*
%TO.P,U1,5*%
%TO.N,VDD*%
X69930000Y-99380000D03*
%TD*%
D21*
%TO.N,GND*%
X66675000Y-97536000D03*
X66675000Y-93980000D03*
%TD*%
D22*
%TO.N,Net-(C1-Pad1)*%
X69492500Y-103555000D02*
X69442500Y-103505000D01*
X69492500Y-105537000D02*
X69492500Y-103555000D01*
X69442500Y-101767500D02*
X69930000Y-101280000D01*
X69442500Y-103505000D02*
X69442500Y-101767500D01*
X71120000Y-97385500D02*
X69492500Y-95758000D01*
X71120000Y-100090000D02*
X71120000Y-97385500D01*
X69930000Y-101280000D02*
X71120000Y-100090000D01*
X69492500Y-95758000D02*
X69492500Y-94972500D01*
X70508500Y-93956500D02*
X73406000Y-93956500D01*
X69492500Y-94972500D02*
X70508500Y-93956500D01*
%TO.N,Net-(C1-Pad2)*%
X62484000Y-98702500D02*
X62484000Y-102489000D01*
X63396500Y-103401500D02*
X64262000Y-103401500D01*
X62484000Y-102489000D02*
X63396500Y-103401500D01*
X67614000Y-103401500D02*
X67717500Y-103505000D01*
X64262000Y-103401500D02*
X67614000Y-103401500D01*
X67717500Y-101767500D02*
X67230000Y-101280000D01*
X67717500Y-103505000D02*
X67717500Y-101767500D01*
X67717500Y-105487000D02*
X67667500Y-105537000D01*
X67717500Y-103505000D02*
X67717500Y-105487000D01*
%TO.N,Net-(D1-Pad1)*%
X63349500Y-97790000D02*
X64262000Y-98702500D01*
X61595000Y-97790000D02*
X63349500Y-97790000D01*
X61214000Y-97409000D02*
X61595000Y-97790000D01*
X61214000Y-94488000D02*
X61214000Y-97409000D01*
X63540000Y-92162000D02*
X61214000Y-94488000D01*
X63540000Y-90805000D02*
X63540000Y-92162000D01*
X66552500Y-98702500D02*
X67230000Y-99380000D01*
X64262000Y-98702500D02*
X66552500Y-98702500D01*
D23*
%TO.N,GND*%
X67310000Y-83945000D02*
X67310000Y-86995000D01*
X68540000Y-88225000D02*
X68540000Y-90805000D01*
X67310000Y-86995000D02*
X68540000Y-88225000D01*
D22*
X64262000Y-101576500D02*
X64262000Y-100838000D01*
X64770000Y-100330000D02*
X67230000Y-100330000D01*
X64262000Y-100838000D02*
X64770000Y-100330000D01*
X67230000Y-100330000D02*
X68199000Y-100330000D01*
X68199000Y-100330000D02*
X68580000Y-99949000D01*
X67166002Y-97536000D02*
X66675000Y-97536000D01*
X68580000Y-98949998D02*
X67166002Y-97536000D01*
X68580000Y-99949000D02*
X68580000Y-98949998D01*
X66675000Y-92670000D02*
X68540000Y-90805000D01*
X66675000Y-93980000D02*
X66675000Y-92670000D01*
X72795000Y-106910000D02*
X59055000Y-120650000D01*
X72795000Y-102550000D02*
X72795000Y-106910000D01*
D24*
%TO.N,+24V*%
X64770000Y-83945000D02*
X64770000Y-82296000D01*
X65492000Y-81574000D02*
X74295000Y-81574000D01*
X64770000Y-82296000D02*
X65492000Y-81574000D01*
D23*
%TO.N,Net-(D2-Pad2)*%
X91440000Y-103885000D02*
X92330000Y-104775000D01*
X91440000Y-101600000D02*
X91440000Y-103885000D01*
X81280000Y-103885000D02*
X82170000Y-104775000D01*
X81280000Y-101600000D02*
X81280000Y-103885000D01*
D22*
X75184000Y-95781500D02*
X75184000Y-98679000D01*
X75795000Y-99290000D02*
X75795000Y-101600000D01*
X75184000Y-98679000D02*
X75795000Y-99290000D01*
D23*
X75795000Y-101600000D02*
X81280000Y-101600000D01*
X82170000Y-104775000D02*
X82170000Y-105665000D01*
X82170000Y-105665000D02*
X83185000Y-106680000D01*
X83185000Y-106680000D02*
X91440000Y-106680000D01*
X92330000Y-105790000D02*
X92330000Y-104775000D01*
X91440000Y-106680000D02*
X92330000Y-105790000D01*
%TO.N,Net-(K1-Pad10)*%
X91440000Y-96520000D02*
X96520000Y-96520000D01*
%TO.N,Net-(K1-Pad9)*%
X90170000Y-111395000D02*
X90440000Y-111125000D01*
X90170000Y-118235000D02*
X90170000Y-112665000D01*
%TO.N,Net-(K1-Pad8)*%
X90170000Y-90170000D02*
X91440000Y-91440000D01*
X90170000Y-83945000D02*
X90170000Y-90170000D01*
%TO.N,Net-(K1-Pad4)*%
X92710000Y-111395000D02*
X92440000Y-111125000D01*
X92710000Y-118235000D02*
X92710000Y-112665000D01*
%TO.N,Net-(K1-Pad5)*%
X92710000Y-83945000D02*
X92835000Y-83945000D01*
X96520000Y-87630000D02*
X96520000Y-91440000D01*
X92835000Y-83945000D02*
X96520000Y-87630000D01*
%TO.N,Net-(K2-Pad10)*%
X81280000Y-96520000D02*
X86360000Y-96520000D01*
%TO.N,Net-(K2-Pad9)*%
X85090000Y-111395000D02*
X85360000Y-111125000D01*
X85090000Y-118235000D02*
X85090000Y-112665000D01*
%TO.N,Net-(K2-Pad8)*%
X85090000Y-83945000D02*
X81280000Y-87755000D01*
X81280000Y-87755000D02*
X81280000Y-91440000D01*
%TO.N,Net-(K2-Pad4)*%
X87630000Y-111395000D02*
X87360000Y-111125000D01*
X87630000Y-118235000D02*
X87630000Y-112665000D01*
%TO.N,Net-(K2-Pad5)*%
X87630000Y-90170000D02*
X86360000Y-91440000D01*
X87630000Y-83945000D02*
X87630000Y-90170000D01*
D22*
%TO.N,Net-(Q1-Pad1)*%
X73406000Y-95781500D02*
X73406000Y-97409000D01*
X72795000Y-98020000D02*
X72795000Y-100650000D01*
X73406000Y-97409000D02*
X72795000Y-98020000D01*
D23*
%TO.N,VDD*%
X86360000Y-103885000D02*
X85470000Y-104775000D01*
X86360000Y-101600000D02*
X86360000Y-103885000D01*
X96520000Y-103885000D02*
X95630000Y-104775000D01*
X96520000Y-101600000D02*
X96520000Y-103885000D01*
D22*
X74295000Y-86574000D02*
X74295000Y-89535000D01*
X75170000Y-90410000D02*
X75170000Y-91440000D01*
X74295000Y-89535000D02*
X75170000Y-90410000D01*
X74295000Y-86574000D02*
X72176000Y-86574000D01*
X72176000Y-86574000D02*
X71755000Y-86995000D01*
X71755000Y-86995000D02*
X71755000Y-92075000D01*
X71755000Y-92075000D02*
X70485000Y-93345000D01*
X70485000Y-93345000D02*
X68580000Y-93345000D01*
X67667500Y-94257500D02*
X67667500Y-95758000D01*
X68580000Y-93345000D02*
X67667500Y-94257500D01*
X62484000Y-96877500D02*
X64262000Y-96877500D01*
X64262000Y-96877500D02*
X65047500Y-96877500D01*
X66167000Y-95758000D02*
X67667500Y-95758000D01*
X65047500Y-96877500D02*
X66167000Y-95758000D01*
X69930000Y-99380000D02*
X69930000Y-98505000D01*
X69930000Y-98505000D02*
X69215000Y-97790000D01*
X69215000Y-97790000D02*
X68580000Y-97790000D01*
X67667500Y-96877500D02*
X67667500Y-95758000D01*
X68580000Y-97790000D02*
X67667500Y-96877500D01*
D23*
X86360000Y-101600000D02*
X88265000Y-99695000D01*
X94615000Y-99695000D02*
X96520000Y-101600000D01*
X88265000Y-99695000D02*
X94615000Y-99695000D01*
X74295000Y-86574000D02*
X77049000Y-86574000D01*
X77049000Y-86574000D02*
X79375000Y-88900000D01*
X79375000Y-88900000D02*
X79375000Y-98425000D01*
X79375000Y-98425000D02*
X80645000Y-99695000D01*
X84455000Y-99695000D02*
X86360000Y-101600000D01*
X80645000Y-99695000D02*
X84455000Y-99695000D01*
D22*
%TO.N,Net-(D4-Pad1)*%
X75184000Y-93204000D02*
X73420000Y-91440000D01*
X75184000Y-93956500D02*
X75184000Y-93204000D01*
%TD*%
D25*
%TO.N,GND*%
X97671457Y-77806852D02*
X99695000Y-79830395D01*
X99709143Y-79816253D01*
X99888748Y-79995858D01*
X99874605Y-80010000D01*
X101898148Y-82033543D01*
X102108000Y-81894885D01*
X102108000Y-118765115D01*
X101898148Y-118626457D01*
X99874605Y-120650000D01*
X99888748Y-120664143D01*
X99709143Y-120843748D01*
X99695000Y-120829605D01*
X97671457Y-122853148D01*
X97810115Y-123063000D01*
X60939885Y-123063000D01*
X61078543Y-122853148D01*
X59055000Y-120829605D01*
X59040858Y-120843748D01*
X58861253Y-120664143D01*
X58875395Y-120650000D01*
X59234605Y-120650000D01*
X61258148Y-122673543D01*
X61676118Y-122397373D01*
X61966649Y-121852443D01*
X62145287Y-121261304D01*
X62204519Y-120653328D01*
X96544832Y-120653328D01*
X96606010Y-121267831D01*
X96785897Y-121858592D01*
X97073882Y-122397373D01*
X97491852Y-122673543D01*
X99515395Y-120650000D01*
X97491852Y-118626457D01*
X97073882Y-118902627D01*
X96783351Y-119447557D01*
X96604713Y-120038696D01*
X96544832Y-120653328D01*
X62204519Y-120653328D01*
X62205168Y-120646672D01*
X62143990Y-120032169D01*
X61964103Y-119441408D01*
X61676118Y-118902627D01*
X61258148Y-118626457D01*
X59234605Y-120650000D01*
X58875395Y-120650000D01*
X56851852Y-118626457D01*
X56642000Y-118765115D01*
X56642000Y-118446852D01*
X57031457Y-118446852D01*
X59055000Y-120470395D01*
X61078543Y-118446852D01*
X60858780Y-118114250D01*
X83864000Y-118114250D01*
X83864000Y-118355750D01*
X83911115Y-118592611D01*
X84003533Y-118815729D01*
X84137704Y-119016529D01*
X84308471Y-119187296D01*
X84509271Y-119321467D01*
X84732389Y-119413885D01*
X84969250Y-119461000D01*
X85210750Y-119461000D01*
X85447611Y-119413885D01*
X85670729Y-119321467D01*
X85871529Y-119187296D01*
X86042296Y-119016529D01*
X86176467Y-118815729D01*
X86268885Y-118592611D01*
X86316000Y-118355750D01*
X86316000Y-118114250D01*
X86268885Y-117877389D01*
X86176467Y-117654271D01*
X86042296Y-117453471D01*
X85971000Y-117382175D01*
X85971000Y-113419611D01*
X86061589Y-113371190D01*
X86157488Y-113292488D01*
X86236190Y-113196589D01*
X86294671Y-113087179D01*
X86330683Y-112968462D01*
X86342843Y-112845001D01*
X86342843Y-111944999D01*
X86377157Y-111944999D01*
X86377157Y-112845001D01*
X86389317Y-112968462D01*
X86425329Y-113087179D01*
X86483810Y-113196589D01*
X86562512Y-113292488D01*
X86658411Y-113371190D01*
X86749001Y-113419611D01*
X86749000Y-117382175D01*
X86677704Y-117453471D01*
X86543533Y-117654271D01*
X86451115Y-117877389D01*
X86404000Y-118114250D01*
X86404000Y-118355750D01*
X86451115Y-118592611D01*
X86543533Y-118815729D01*
X86677704Y-119016529D01*
X86848471Y-119187296D01*
X87049271Y-119321467D01*
X87272389Y-119413885D01*
X87509250Y-119461000D01*
X87750750Y-119461000D01*
X87987611Y-119413885D01*
X88210729Y-119321467D01*
X88411529Y-119187296D01*
X88582296Y-119016529D01*
X88716467Y-118815729D01*
X88808885Y-118592611D01*
X88856000Y-118355750D01*
X88856000Y-118114250D01*
X88944000Y-118114250D01*
X88944000Y-118355750D01*
X88991115Y-118592611D01*
X89083533Y-118815729D01*
X89217704Y-119016529D01*
X89388471Y-119187296D01*
X89589271Y-119321467D01*
X89812389Y-119413885D01*
X90049250Y-119461000D01*
X90290750Y-119461000D01*
X90527611Y-119413885D01*
X90750729Y-119321467D01*
X90951529Y-119187296D01*
X91122296Y-119016529D01*
X91256467Y-118815729D01*
X91348885Y-118592611D01*
X91396000Y-118355750D01*
X91396000Y-118114250D01*
X91348885Y-117877389D01*
X91256467Y-117654271D01*
X91122296Y-117453471D01*
X91051000Y-117382175D01*
X91051000Y-113419611D01*
X91141589Y-113371190D01*
X91237488Y-113292488D01*
X91316190Y-113196589D01*
X91374671Y-113087179D01*
X91410683Y-112968462D01*
X91422843Y-112845001D01*
X91422843Y-111944999D01*
X91457157Y-111944999D01*
X91457157Y-112845001D01*
X91469317Y-112968462D01*
X91505329Y-113087179D01*
X91563810Y-113196589D01*
X91642512Y-113292488D01*
X91738411Y-113371190D01*
X91829001Y-113419611D01*
X91829000Y-117010703D01*
X91790311Y-117014513D01*
X91718492Y-117036299D01*
X91652304Y-117071678D01*
X91594289Y-117119289D01*
X91546678Y-117177304D01*
X91511299Y-117243492D01*
X91489513Y-117315311D01*
X91482157Y-117390000D01*
X91482157Y-119080000D01*
X91489513Y-119154689D01*
X91511299Y-119226508D01*
X91546678Y-119292696D01*
X91594289Y-119350711D01*
X91652304Y-119398322D01*
X91718492Y-119433701D01*
X91790311Y-119455487D01*
X91865000Y-119462843D01*
X93555000Y-119462843D01*
X93629689Y-119455487D01*
X93701508Y-119433701D01*
X93767696Y-119398322D01*
X93825711Y-119350711D01*
X93873322Y-119292696D01*
X93908701Y-119226508D01*
X93930487Y-119154689D01*
X93937843Y-119080000D01*
X93937843Y-118446852D01*
X97671457Y-118446852D01*
X99695000Y-120470395D01*
X101718543Y-118446852D01*
X101442373Y-118028882D01*
X100897443Y-117738351D01*
X100306304Y-117559713D01*
X99691672Y-117499832D01*
X99077169Y-117561010D01*
X98486408Y-117740897D01*
X97947627Y-118028882D01*
X97671457Y-118446852D01*
X93937843Y-118446852D01*
X93937843Y-117390000D01*
X93930487Y-117315311D01*
X93908701Y-117243492D01*
X93873322Y-117177304D01*
X93825711Y-117119289D01*
X93767696Y-117071678D01*
X93701508Y-117036299D01*
X93629689Y-117014513D01*
X93591000Y-117010703D01*
X93591000Y-112621727D01*
X93578252Y-112492294D01*
X93527875Y-112326225D01*
X93446068Y-112173175D01*
X93422843Y-112144875D01*
X93422843Y-111944999D01*
X93420216Y-111918326D01*
X93446068Y-111886825D01*
X93527875Y-111733775D01*
X93578251Y-111567706D01*
X93595262Y-111395000D01*
X93578251Y-111222294D01*
X93527875Y-111056226D01*
X93446068Y-110903175D01*
X93363559Y-110802638D01*
X93032362Y-110471441D01*
X92931825Y-110388932D01*
X92778774Y-110307125D01*
X92612705Y-110256749D01*
X92440000Y-110239738D01*
X92267295Y-110256749D01*
X92101226Y-110307125D01*
X91948175Y-110388932D01*
X91814026Y-110499026D01*
X91703932Y-110633175D01*
X91622125Y-110786226D01*
X91571749Y-110952295D01*
X91554738Y-111125000D01*
X91571749Y-111297705D01*
X91622125Y-111463774D01*
X91641087Y-111499249D01*
X91563810Y-111593411D01*
X91505329Y-111702821D01*
X91469317Y-111821538D01*
X91457157Y-111944999D01*
X91422843Y-111944999D01*
X91410683Y-111821538D01*
X91374671Y-111702821D01*
X91316190Y-111593411D01*
X91238913Y-111499249D01*
X91257875Y-111463774D01*
X91308251Y-111297706D01*
X91325262Y-111125000D01*
X91308251Y-110952294D01*
X91257875Y-110786225D01*
X91176068Y-110633175D01*
X91065975Y-110499025D01*
X90931825Y-110388932D01*
X90778775Y-110307125D01*
X90612706Y-110256749D01*
X90440000Y-110239738D01*
X90267294Y-110256749D01*
X90101226Y-110307125D01*
X89948175Y-110388932D01*
X89847638Y-110471441D01*
X89516441Y-110802638D01*
X89433932Y-110903175D01*
X89352125Y-111056226D01*
X89301749Y-111222295D01*
X89284738Y-111395000D01*
X89301749Y-111567705D01*
X89352125Y-111733774D01*
X89433932Y-111886825D01*
X89459784Y-111918326D01*
X89457157Y-111944999D01*
X89457157Y-112144876D01*
X89433933Y-112173175D01*
X89352126Y-112326225D01*
X89301749Y-112492294D01*
X89289001Y-112621727D01*
X89289000Y-117382175D01*
X89217704Y-117453471D01*
X89083533Y-117654271D01*
X88991115Y-117877389D01*
X88944000Y-118114250D01*
X88856000Y-118114250D01*
X88808885Y-117877389D01*
X88716467Y-117654271D01*
X88582296Y-117453471D01*
X88511000Y-117382175D01*
X88511000Y-112621727D01*
X88498252Y-112492294D01*
X88447875Y-112326225D01*
X88366068Y-112173175D01*
X88342843Y-112144875D01*
X88342843Y-111944999D01*
X88340216Y-111918326D01*
X88366068Y-111886825D01*
X88447875Y-111733775D01*
X88498251Y-111567706D01*
X88515262Y-111395000D01*
X88498251Y-111222294D01*
X88447875Y-111056226D01*
X88366068Y-110903175D01*
X88283559Y-110802638D01*
X87952362Y-110471441D01*
X87851825Y-110388932D01*
X87698774Y-110307125D01*
X87532705Y-110256749D01*
X87360000Y-110239738D01*
X87187295Y-110256749D01*
X87021226Y-110307125D01*
X86868175Y-110388932D01*
X86734026Y-110499026D01*
X86623932Y-110633175D01*
X86542125Y-110786226D01*
X86491749Y-110952295D01*
X86474738Y-111125000D01*
X86491749Y-111297705D01*
X86542125Y-111463774D01*
X86561087Y-111499249D01*
X86483810Y-111593411D01*
X86425329Y-111702821D01*
X86389317Y-111821538D01*
X86377157Y-111944999D01*
X86342843Y-111944999D01*
X86330683Y-111821538D01*
X86294671Y-111702821D01*
X86236190Y-111593411D01*
X86158913Y-111499249D01*
X86177875Y-111463774D01*
X86228251Y-111297706D01*
X86245262Y-111125000D01*
X86228251Y-110952294D01*
X86177875Y-110786225D01*
X86096068Y-110633175D01*
X85985975Y-110499025D01*
X85851825Y-110388932D01*
X85698775Y-110307125D01*
X85532706Y-110256749D01*
X85360000Y-110239738D01*
X85187294Y-110256749D01*
X85021226Y-110307125D01*
X84868175Y-110388932D01*
X84767638Y-110471441D01*
X84436441Y-110802638D01*
X84353932Y-110903175D01*
X84272125Y-111056226D01*
X84221749Y-111222295D01*
X84204738Y-111395000D01*
X84221749Y-111567705D01*
X84272125Y-111733774D01*
X84353932Y-111886825D01*
X84379784Y-111918326D01*
X84377157Y-111944999D01*
X84377157Y-112144876D01*
X84353933Y-112173175D01*
X84272126Y-112326225D01*
X84221749Y-112492294D01*
X84209001Y-112621727D01*
X84209000Y-117382175D01*
X84137704Y-117453471D01*
X84003533Y-117654271D01*
X83911115Y-117877389D01*
X83864000Y-118114250D01*
X60858780Y-118114250D01*
X60802373Y-118028882D01*
X60257443Y-117738351D01*
X59666304Y-117559713D01*
X59051672Y-117499832D01*
X58437169Y-117561010D01*
X57846408Y-117740897D01*
X57307627Y-118028882D01*
X57031457Y-118446852D01*
X56642000Y-118446852D01*
X56642000Y-94488000D01*
X60655311Y-94488000D01*
X60658000Y-94515305D01*
X60658001Y-97381686D01*
X60655311Y-97409000D01*
X60666045Y-97517994D01*
X60683702Y-97576198D01*
X60697839Y-97622801D01*
X60749467Y-97719392D01*
X60818948Y-97804053D01*
X60840162Y-97821464D01*
X61182539Y-98163842D01*
X61199947Y-98185053D01*
X61221157Y-98202460D01*
X61221160Y-98202463D01*
X61243981Y-98221192D01*
X61284608Y-98254534D01*
X61381199Y-98306162D01*
X61454211Y-98328310D01*
X61486004Y-98337955D01*
X61497040Y-98339042D01*
X61567688Y-98346000D01*
X61567694Y-98346000D01*
X61594999Y-98348689D01*
X61622304Y-98346000D01*
X61636647Y-98346000D01*
X61626157Y-98452500D01*
X61626157Y-98952500D01*
X61638077Y-99073523D01*
X61673378Y-99189895D01*
X61730704Y-99297144D01*
X61807851Y-99391149D01*
X61901856Y-99468296D01*
X61928000Y-99482270D01*
X61928001Y-102461686D01*
X61925311Y-102489000D01*
X61936045Y-102597994D01*
X61940571Y-102612913D01*
X61967839Y-102702801D01*
X62019467Y-102799392D01*
X62088948Y-102884053D01*
X62110163Y-102901464D01*
X62984035Y-103775337D01*
X63001447Y-103796553D01*
X63086108Y-103866034D01*
X63182699Y-103917662D01*
X63287505Y-103949455D01*
X63369188Y-103957500D01*
X63369195Y-103957500D01*
X63396500Y-103960189D01*
X63423804Y-103957500D01*
X63488048Y-103957500D01*
X63508704Y-103996144D01*
X63585851Y-104090149D01*
X63679856Y-104167296D01*
X63787105Y-104224622D01*
X63903477Y-104259923D01*
X64024500Y-104271843D01*
X64499500Y-104271843D01*
X64620523Y-104259923D01*
X64736895Y-104224622D01*
X64844144Y-104167296D01*
X64938149Y-104090149D01*
X65015296Y-103996144D01*
X65035952Y-103957500D01*
X66837585Y-103957500D01*
X66844378Y-103979895D01*
X66901704Y-104087144D01*
X66978851Y-104181149D01*
X67072856Y-104258296D01*
X67161500Y-104305678D01*
X67161501Y-104736322D01*
X67072856Y-104783704D01*
X66978851Y-104860851D01*
X66901704Y-104954856D01*
X66844378Y-105062105D01*
X66809077Y-105178477D01*
X66797157Y-105299500D01*
X66797157Y-105774500D01*
X66809077Y-105895523D01*
X66844378Y-106011895D01*
X66901704Y-106119144D01*
X66978851Y-106213149D01*
X67072856Y-106290296D01*
X67180105Y-106347622D01*
X67296477Y-106382923D01*
X67417500Y-106394843D01*
X67917500Y-106394843D01*
X68038523Y-106382923D01*
X68154895Y-106347622D01*
X68262144Y-106290296D01*
X68356149Y-106213149D01*
X68433296Y-106119144D01*
X68490622Y-106011895D01*
X68525923Y-105895523D01*
X68537843Y-105774500D01*
X68537843Y-105299500D01*
X68525923Y-105178477D01*
X68490622Y-105062105D01*
X68433296Y-104954856D01*
X68356149Y-104860851D01*
X68273500Y-104793024D01*
X68273500Y-104305677D01*
X68362144Y-104258296D01*
X68456149Y-104181149D01*
X68533296Y-104087144D01*
X68580000Y-103999767D01*
X68626704Y-104087144D01*
X68703851Y-104181149D01*
X68797856Y-104258296D01*
X68905105Y-104315622D01*
X68936501Y-104325146D01*
X68936500Y-104763048D01*
X68897856Y-104783704D01*
X68803851Y-104860851D01*
X68726704Y-104954856D01*
X68669378Y-105062105D01*
X68634077Y-105178477D01*
X68622157Y-105299500D01*
X68622157Y-105774500D01*
X68634077Y-105895523D01*
X68669378Y-106011895D01*
X68726704Y-106119144D01*
X68803851Y-106213149D01*
X68897856Y-106290296D01*
X69005105Y-106347622D01*
X69121477Y-106382923D01*
X69242500Y-106394843D01*
X69742500Y-106394843D01*
X69863523Y-106382923D01*
X69979895Y-106347622D01*
X70087144Y-106290296D01*
X70181149Y-106213149D01*
X70258296Y-106119144D01*
X70315622Y-106011895D01*
X70350923Y-105895523D01*
X70362843Y-105774500D01*
X70362843Y-105299500D01*
X70350923Y-105178477D01*
X70315622Y-105062105D01*
X70258296Y-104954856D01*
X70181149Y-104860851D01*
X70087144Y-104783704D01*
X70048500Y-104763048D01*
X70048500Y-104278952D01*
X70087144Y-104258296D01*
X70181149Y-104181149D01*
X70258296Y-104087144D01*
X70315622Y-103979895D01*
X70350923Y-103863523D01*
X70362843Y-103742500D01*
X70362843Y-103267500D01*
X70350923Y-103146477D01*
X70315622Y-103030105D01*
X70272805Y-102950000D01*
X71206928Y-102950000D01*
X71219188Y-103074482D01*
X71255498Y-103194180D01*
X71314463Y-103304494D01*
X71393815Y-103401185D01*
X71490506Y-103480537D01*
X71600820Y-103539502D01*
X71720518Y-103575812D01*
X71845000Y-103588072D01*
X72509250Y-103585000D01*
X72668000Y-103426250D01*
X72668000Y-102677000D01*
X72922000Y-102677000D01*
X72922000Y-103426250D01*
X73080750Y-103585000D01*
X73745000Y-103588072D01*
X73869482Y-103575812D01*
X73989180Y-103539502D01*
X74099494Y-103480537D01*
X74196185Y-103401185D01*
X74275537Y-103304494D01*
X74334502Y-103194180D01*
X74370812Y-103074482D01*
X74383072Y-102950000D01*
X74380000Y-102835750D01*
X74221250Y-102677000D01*
X72922000Y-102677000D01*
X72668000Y-102677000D01*
X71368750Y-102677000D01*
X71210000Y-102835750D01*
X71206928Y-102950000D01*
X70272805Y-102950000D01*
X70258296Y-102922856D01*
X70181149Y-102828851D01*
X70087144Y-102751704D01*
X69998500Y-102704323D01*
X69998500Y-102150000D01*
X71206928Y-102150000D01*
X71210000Y-102264250D01*
X71368750Y-102423000D01*
X72668000Y-102423000D01*
X72668000Y-101673750D01*
X72922000Y-101673750D01*
X72922000Y-102423000D01*
X74221250Y-102423000D01*
X74380000Y-102264250D01*
X74383072Y-102150000D01*
X74370812Y-102025518D01*
X74334502Y-101905820D01*
X74275537Y-101795506D01*
X74196185Y-101698815D01*
X74099494Y-101619463D01*
X73989180Y-101560498D01*
X73869482Y-101524188D01*
X73745000Y-101511928D01*
X73080750Y-101515000D01*
X72922000Y-101673750D01*
X72668000Y-101673750D01*
X72509250Y-101515000D01*
X71845000Y-101511928D01*
X71720518Y-101524188D01*
X71600820Y-101560498D01*
X71490506Y-101619463D01*
X71393815Y-101698815D01*
X71314463Y-101795506D01*
X71255498Y-101905820D01*
X71219188Y-102025518D01*
X71206928Y-102150000D01*
X69998500Y-102150000D01*
X69998500Y-101997801D01*
X70008458Y-101987843D01*
X70710000Y-101987843D01*
X70784689Y-101980487D01*
X70856508Y-101958701D01*
X70922696Y-101923322D01*
X70980711Y-101875711D01*
X71028322Y-101817696D01*
X71063701Y-101751508D01*
X71085487Y-101679689D01*
X71092843Y-101605000D01*
X71092843Y-100955000D01*
X71088222Y-100908080D01*
X71462157Y-100534145D01*
X71462157Y-101050000D01*
X71469513Y-101124689D01*
X71491299Y-101196508D01*
X71526678Y-101262696D01*
X71574289Y-101320711D01*
X71632304Y-101368322D01*
X71698492Y-101403701D01*
X71770311Y-101425487D01*
X71845000Y-101432843D01*
X73745000Y-101432843D01*
X73819689Y-101425487D01*
X73891508Y-101403701D01*
X73957696Y-101368322D01*
X74015711Y-101320711D01*
X74063322Y-101262696D01*
X74098701Y-101196508D01*
X74120487Y-101124689D01*
X74127843Y-101050000D01*
X74127843Y-100250000D01*
X74120487Y-100175311D01*
X74098701Y-100103492D01*
X74063322Y-100037304D01*
X74015711Y-99979289D01*
X73957696Y-99931678D01*
X73891508Y-99896299D01*
X73819689Y-99874513D01*
X73745000Y-99867157D01*
X73351000Y-99867157D01*
X73351000Y-98250302D01*
X73779842Y-97821460D01*
X73801053Y-97804053D01*
X73818460Y-97782843D01*
X73818463Y-97782840D01*
X73847184Y-97747843D01*
X73870534Y-97719392D01*
X73922162Y-97622801D01*
X73953955Y-97517995D01*
X73962000Y-97436312D01*
X73962000Y-97436298D01*
X73964688Y-97409001D01*
X73962000Y-97381704D01*
X73962000Y-96561270D01*
X73988144Y-96547296D01*
X74082149Y-96470149D01*
X74159296Y-96376144D01*
X74216622Y-96268895D01*
X74251923Y-96152523D01*
X74263843Y-96031500D01*
X74263843Y-95531500D01*
X74251923Y-95410477D01*
X74216622Y-95294105D01*
X74159296Y-95186856D01*
X74082149Y-95092851D01*
X73988144Y-95015704D01*
X73880895Y-94958378D01*
X73764523Y-94923077D01*
X73643500Y-94911157D01*
X73168500Y-94911157D01*
X73047477Y-94923077D01*
X72931105Y-94958378D01*
X72823856Y-95015704D01*
X72729851Y-95092851D01*
X72652704Y-95186856D01*
X72595378Y-95294105D01*
X72560077Y-95410477D01*
X72548157Y-95531500D01*
X72548157Y-96031500D01*
X72560077Y-96152523D01*
X72595378Y-96268895D01*
X72652704Y-96376144D01*
X72729851Y-96470149D01*
X72823856Y-96547296D01*
X72850000Y-96561271D01*
X72850001Y-97178697D01*
X72421167Y-97607532D01*
X72399947Y-97624947D01*
X72330466Y-97709608D01*
X72278838Y-97806200D01*
X72247045Y-97911006D01*
X72239000Y-97992689D01*
X72239000Y-97992696D01*
X72236311Y-98020000D01*
X72239000Y-98047305D01*
X72239001Y-99867157D01*
X71845000Y-99867157D01*
X71770311Y-99874513D01*
X71698492Y-99896299D01*
X71676000Y-99908321D01*
X71676000Y-97412805D01*
X71678689Y-97385500D01*
X71676000Y-97358195D01*
X71676000Y-97358188D01*
X71667955Y-97276505D01*
X71636162Y-97171699D01*
X71636162Y-97171698D01*
X71584534Y-97075108D01*
X71532464Y-97011661D01*
X71532460Y-97011657D01*
X71515053Y-96990447D01*
X71493843Y-96973040D01*
X70362843Y-95842041D01*
X70362843Y-95520500D01*
X70350923Y-95399477D01*
X70315622Y-95283105D01*
X70258296Y-95175856D01*
X70181149Y-95081851D01*
X70174724Y-95076578D01*
X70738802Y-94512500D01*
X72632048Y-94512500D01*
X72652704Y-94551144D01*
X72729851Y-94645149D01*
X72823856Y-94722296D01*
X72931105Y-94779622D01*
X73047477Y-94814923D01*
X73168500Y-94826843D01*
X73643500Y-94826843D01*
X73764523Y-94814923D01*
X73880895Y-94779622D01*
X73988144Y-94722296D01*
X74082149Y-94645149D01*
X74159296Y-94551144D01*
X74216622Y-94443895D01*
X74251923Y-94327523D01*
X74263843Y-94206500D01*
X74263843Y-93706500D01*
X74251923Y-93585477D01*
X74216622Y-93469105D01*
X74159296Y-93361856D01*
X74082149Y-93267851D01*
X73988144Y-93190704D01*
X73880895Y-93133378D01*
X73764523Y-93098077D01*
X73643500Y-93086157D01*
X73168500Y-93086157D01*
X73047477Y-93098077D01*
X72931105Y-93133378D01*
X72823856Y-93190704D01*
X72729851Y-93267851D01*
X72652704Y-93361856D01*
X72632048Y-93400500D01*
X71215802Y-93400500D01*
X72128843Y-92487460D01*
X72150053Y-92470053D01*
X72167460Y-92448843D01*
X72167463Y-92448840D01*
X72186192Y-92426019D01*
X72219534Y-92385392D01*
X72271162Y-92288801D01*
X72302955Y-92183995D01*
X72311000Y-92102312D01*
X72311000Y-92102306D01*
X72313689Y-92075001D01*
X72311000Y-92047696D01*
X72311000Y-87225301D01*
X72406302Y-87130000D01*
X73012157Y-87130000D01*
X73012157Y-88324000D01*
X73019513Y-88398689D01*
X73041299Y-88470508D01*
X73076678Y-88536696D01*
X73124289Y-88594711D01*
X73182304Y-88642322D01*
X73248492Y-88677701D01*
X73320311Y-88699487D01*
X73395000Y-88706843D01*
X73739001Y-88706843D01*
X73739001Y-89507686D01*
X73736311Y-89535000D01*
X73747045Y-89643994D01*
X73778839Y-89748801D01*
X73830467Y-89845392D01*
X73899948Y-89930053D01*
X73921163Y-89947464D01*
X74614000Y-90640302D01*
X74614000Y-90646004D01*
X74537856Y-90686704D01*
X74443851Y-90763851D01*
X74366704Y-90857856D01*
X74309378Y-90965105D01*
X74295000Y-91012503D01*
X74280622Y-90965105D01*
X74223296Y-90857856D01*
X74146149Y-90763851D01*
X74052144Y-90686704D01*
X73944895Y-90629378D01*
X73828523Y-90594077D01*
X73707500Y-90582157D01*
X73132500Y-90582157D01*
X73011477Y-90594077D01*
X72895105Y-90629378D01*
X72787856Y-90686704D01*
X72693851Y-90763851D01*
X72616704Y-90857856D01*
X72559378Y-90965105D01*
X72524077Y-91081477D01*
X72512157Y-91202500D01*
X72512157Y-91677500D01*
X72524077Y-91798523D01*
X72559378Y-91914895D01*
X72616704Y-92022144D01*
X72693851Y-92116149D01*
X72787856Y-92193296D01*
X72895105Y-92250622D01*
X73011477Y-92285923D01*
X73132500Y-92297843D01*
X73491541Y-92297843D01*
X74486980Y-93293283D01*
X74430704Y-93361856D01*
X74373378Y-93469105D01*
X74338077Y-93585477D01*
X74326157Y-93706500D01*
X74326157Y-94206500D01*
X74338077Y-94327523D01*
X74373378Y-94443895D01*
X74430704Y-94551144D01*
X74507851Y-94645149D01*
X74601856Y-94722296D01*
X74709105Y-94779622D01*
X74825477Y-94814923D01*
X74946500Y-94826843D01*
X75421500Y-94826843D01*
X75542523Y-94814923D01*
X75658895Y-94779622D01*
X75766144Y-94722296D01*
X75860149Y-94645149D01*
X75937296Y-94551144D01*
X75994622Y-94443895D01*
X76029923Y-94327523D01*
X76041843Y-94206500D01*
X76041843Y-93706500D01*
X76029923Y-93585477D01*
X75994622Y-93469105D01*
X75937296Y-93361856D01*
X75860149Y-93267851D01*
X75766144Y-93190704D01*
X75740004Y-93176732D01*
X75740000Y-93176695D01*
X75740000Y-93176688D01*
X75731955Y-93095005D01*
X75700162Y-92990199D01*
X75648534Y-92893608D01*
X75618626Y-92857166D01*
X75596464Y-92830161D01*
X75596460Y-92830157D01*
X75579053Y-92808947D01*
X75557843Y-92791540D01*
X75064145Y-92297843D01*
X75457500Y-92297843D01*
X75578523Y-92285923D01*
X75694895Y-92250622D01*
X75802144Y-92193296D01*
X75896149Y-92116149D01*
X75973296Y-92022144D01*
X76030622Y-91914895D01*
X76065923Y-91798523D01*
X76077843Y-91677500D01*
X76077843Y-91202500D01*
X76065923Y-91081477D01*
X76030622Y-90965105D01*
X75973296Y-90857856D01*
X75896149Y-90763851D01*
X75802144Y-90686704D01*
X75726000Y-90646004D01*
X75726000Y-90437304D01*
X75728689Y-90410000D01*
X75726000Y-90382695D01*
X75726000Y-90382688D01*
X75717955Y-90301005D01*
X75686162Y-90196199D01*
X75634534Y-90099608D01*
X75565053Y-90014947D01*
X75543837Y-89997535D01*
X74851000Y-89304699D01*
X74851000Y-88706843D01*
X75195000Y-88706843D01*
X75269689Y-88699487D01*
X75341508Y-88677701D01*
X75407696Y-88642322D01*
X75465711Y-88594711D01*
X75513322Y-88536696D01*
X75548701Y-88470508D01*
X75570487Y-88398689D01*
X75577843Y-88324000D01*
X75577843Y-87455000D01*
X76684079Y-87455000D01*
X78494000Y-89264922D01*
X78494001Y-98381720D01*
X78489738Y-98425000D01*
X78506749Y-98597705D01*
X78557125Y-98763774D01*
X78638932Y-98916825D01*
X78707085Y-98999869D01*
X78749026Y-99050975D01*
X78782640Y-99078561D01*
X79991439Y-100287361D01*
X80019025Y-100320975D01*
X80052637Y-100348559D01*
X80153174Y-100431068D01*
X80201690Y-100457000D01*
X80306225Y-100512875D01*
X80472294Y-100563252D01*
X80601727Y-100576000D01*
X80601729Y-100576000D01*
X80644999Y-100580262D01*
X80688269Y-100576000D01*
X80765353Y-100576000D01*
X80738587Y-100587087D01*
X80551380Y-100712174D01*
X80544554Y-100719000D01*
X76351000Y-100719000D01*
X76351000Y-99317296D01*
X76353688Y-99289999D01*
X76351000Y-99262702D01*
X76351000Y-99262688D01*
X76342955Y-99181005D01*
X76311162Y-99076199D01*
X76259534Y-98979608D01*
X76208533Y-98917464D01*
X76207463Y-98916160D01*
X76207460Y-98916157D01*
X76190053Y-98894947D01*
X76168842Y-98877540D01*
X75740000Y-98448698D01*
X75740000Y-96561270D01*
X75766144Y-96547296D01*
X75860149Y-96470149D01*
X75937296Y-96376144D01*
X75994622Y-96268895D01*
X76029923Y-96152523D01*
X76041843Y-96031500D01*
X76041843Y-95531500D01*
X76029923Y-95410477D01*
X75994622Y-95294105D01*
X75937296Y-95186856D01*
X75860149Y-95092851D01*
X75766144Y-95015704D01*
X75658895Y-94958378D01*
X75542523Y-94923077D01*
X75421500Y-94911157D01*
X74946500Y-94911157D01*
X74825477Y-94923077D01*
X74709105Y-94958378D01*
X74601856Y-95015704D01*
X74507851Y-95092851D01*
X74430704Y-95186856D01*
X74373378Y-95294105D01*
X74338077Y-95410477D01*
X74326157Y-95531500D01*
X74326157Y-96031500D01*
X74338077Y-96152523D01*
X74373378Y-96268895D01*
X74430704Y-96376144D01*
X74507851Y-96470149D01*
X74601856Y-96547296D01*
X74628000Y-96561270D01*
X74628001Y-98651686D01*
X74625311Y-98679000D01*
X74636045Y-98787994D01*
X74663084Y-98877125D01*
X74667839Y-98892801D01*
X74719467Y-98989392D01*
X74788948Y-99074053D01*
X74810163Y-99091464D01*
X75239000Y-99520303D01*
X75239001Y-100817157D01*
X74845000Y-100817157D01*
X74770311Y-100824513D01*
X74698492Y-100846299D01*
X74632304Y-100881678D01*
X74574289Y-100929289D01*
X74526678Y-100987304D01*
X74491299Y-101053492D01*
X74469513Y-101125311D01*
X74462157Y-101200000D01*
X74462157Y-102000000D01*
X74469513Y-102074689D01*
X74491299Y-102146508D01*
X74526678Y-102212696D01*
X74574289Y-102270711D01*
X74632304Y-102318322D01*
X74698492Y-102353701D01*
X74770311Y-102375487D01*
X74845000Y-102382843D01*
X75390685Y-102382843D01*
X75456225Y-102417875D01*
X75622294Y-102468252D01*
X75751727Y-102481000D01*
X80399000Y-102481000D01*
X80399001Y-103841720D01*
X80394738Y-103885000D01*
X80407989Y-104019534D01*
X80411749Y-104057706D01*
X80415831Y-104071162D01*
X80462125Y-104223774D01*
X80543932Y-104376825D01*
X80612085Y-104459869D01*
X80654026Y-104510975D01*
X80687640Y-104538561D01*
X81289000Y-105139922D01*
X81289000Y-105621730D01*
X81284738Y-105665000D01*
X81289000Y-105708270D01*
X81289000Y-105708273D01*
X81301749Y-105837706D01*
X81315202Y-105882053D01*
X81352125Y-106003774D01*
X81433932Y-106156825D01*
X81480156Y-106213149D01*
X81544026Y-106290975D01*
X81577640Y-106318561D01*
X82531439Y-107272361D01*
X82559025Y-107305975D01*
X82592637Y-107333559D01*
X82693174Y-107416068D01*
X82846225Y-107497875D01*
X83012294Y-107548252D01*
X83141727Y-107561000D01*
X83141730Y-107561000D01*
X83185000Y-107565262D01*
X83228270Y-107561000D01*
X91396730Y-107561000D01*
X91440000Y-107565262D01*
X91483270Y-107561000D01*
X91483273Y-107561000D01*
X91612706Y-107548252D01*
X91778775Y-107497875D01*
X91931825Y-107416068D01*
X92065975Y-107305975D01*
X92093565Y-107272356D01*
X92922362Y-106443560D01*
X92955975Y-106415975D01*
X93017320Y-106341225D01*
X93066068Y-106281826D01*
X93147875Y-106128775D01*
X93157911Y-106095690D01*
X93198252Y-105962706D01*
X93211000Y-105833273D01*
X93211000Y-105833271D01*
X93215262Y-105790001D01*
X93211000Y-105746731D01*
X93211000Y-104818269D01*
X93215262Y-104774999D01*
X93205822Y-104679157D01*
X93198252Y-104602294D01*
X93162843Y-104485567D01*
X93162843Y-104175000D01*
X93155487Y-104100311D01*
X93133701Y-104028492D01*
X93098322Y-103962304D01*
X93050711Y-103904289D01*
X92992696Y-103856678D01*
X92926508Y-103821299D01*
X92854689Y-103799513D01*
X92780000Y-103792157D01*
X92593079Y-103792157D01*
X92321000Y-103520079D01*
X92321000Y-102335446D01*
X92327826Y-102328620D01*
X92452913Y-102141413D01*
X92539075Y-101933401D01*
X92583000Y-101712576D01*
X92583000Y-101487424D01*
X92539075Y-101266599D01*
X92452913Y-101058587D01*
X92327826Y-100871380D01*
X92168620Y-100712174D01*
X91981413Y-100587087D01*
X91954647Y-100576000D01*
X94250079Y-100576000D01*
X95377000Y-101702922D01*
X95377000Y-101712576D01*
X95420925Y-101933401D01*
X95507087Y-102141413D01*
X95632174Y-102328620D01*
X95639000Y-102335446D01*
X95639001Y-103520077D01*
X95366922Y-103792157D01*
X95180000Y-103792157D01*
X95105311Y-103799513D01*
X95033492Y-103821299D01*
X94967304Y-103856678D01*
X94909289Y-103904289D01*
X94861678Y-103962304D01*
X94826299Y-104028492D01*
X94804513Y-104100311D01*
X94797157Y-104175000D01*
X94797157Y-104485569D01*
X94761749Y-104602295D01*
X94744738Y-104775000D01*
X94761749Y-104947705D01*
X94797157Y-105064431D01*
X94797157Y-105375000D01*
X94804513Y-105449689D01*
X94826299Y-105521508D01*
X94861678Y-105587696D01*
X94909289Y-105645711D01*
X94967304Y-105693322D01*
X95033492Y-105728701D01*
X95105311Y-105750487D01*
X95180000Y-105757843D01*
X96080000Y-105757843D01*
X96154689Y-105750487D01*
X96226508Y-105728701D01*
X96292696Y-105693322D01*
X96350711Y-105645711D01*
X96398322Y-105587696D01*
X96433701Y-105521508D01*
X96455487Y-105449689D01*
X96462843Y-105375000D01*
X96462843Y-105188078D01*
X97112360Y-104538561D01*
X97145975Y-104510975D01*
X97207320Y-104436225D01*
X97256068Y-104376826D01*
X97337875Y-104223775D01*
X97350354Y-104182637D01*
X97388252Y-104057706D01*
X97401000Y-103928273D01*
X97401000Y-103928271D01*
X97405262Y-103885001D01*
X97401000Y-103841731D01*
X97401000Y-102335446D01*
X97407826Y-102328620D01*
X97532913Y-102141413D01*
X97619075Y-101933401D01*
X97663000Y-101712576D01*
X97663000Y-101487424D01*
X97619075Y-101266599D01*
X97532913Y-101058587D01*
X97407826Y-100871380D01*
X97248620Y-100712174D01*
X97061413Y-100587087D01*
X96853401Y-100500925D01*
X96632576Y-100457000D01*
X96622922Y-100457000D01*
X95268566Y-99102645D01*
X95240975Y-99069025D01*
X95106825Y-98958932D01*
X94953775Y-98877125D01*
X94787706Y-98826748D01*
X94658273Y-98814000D01*
X94658270Y-98814000D01*
X94615000Y-98809738D01*
X94571730Y-98814000D01*
X88308270Y-98814000D01*
X88265000Y-98809738D01*
X88221730Y-98814000D01*
X88221727Y-98814000D01*
X88092294Y-98826748D01*
X87926225Y-98877125D01*
X87773174Y-98958932D01*
X87747124Y-98980311D01*
X87639025Y-99069025D01*
X87611441Y-99102637D01*
X86360000Y-100354078D01*
X85108566Y-99102645D01*
X85080975Y-99069025D01*
X84946825Y-98958932D01*
X84793775Y-98877125D01*
X84627706Y-98826748D01*
X84498273Y-98814000D01*
X84498270Y-98814000D01*
X84455000Y-98809738D01*
X84411730Y-98814000D01*
X81009922Y-98814000D01*
X80256000Y-98060079D01*
X80256000Y-97034647D01*
X80267087Y-97061413D01*
X80392174Y-97248620D01*
X80551380Y-97407826D01*
X80738587Y-97532913D01*
X80946599Y-97619075D01*
X81167424Y-97663000D01*
X81392576Y-97663000D01*
X81613401Y-97619075D01*
X81821413Y-97532913D01*
X82008620Y-97407826D01*
X82015446Y-97401000D01*
X85624554Y-97401000D01*
X85631380Y-97407826D01*
X85818587Y-97532913D01*
X86026599Y-97619075D01*
X86247424Y-97663000D01*
X86472576Y-97663000D01*
X86693401Y-97619075D01*
X86901413Y-97532913D01*
X87088620Y-97407826D01*
X87247826Y-97248620D01*
X87372913Y-97061413D01*
X87459075Y-96853401D01*
X87503000Y-96632576D01*
X87503000Y-96407424D01*
X90297000Y-96407424D01*
X90297000Y-96632576D01*
X90340925Y-96853401D01*
X90427087Y-97061413D01*
X90552174Y-97248620D01*
X90711380Y-97407826D01*
X90898587Y-97532913D01*
X91106599Y-97619075D01*
X91327424Y-97663000D01*
X91552576Y-97663000D01*
X91773401Y-97619075D01*
X91981413Y-97532913D01*
X92168620Y-97407826D01*
X92175446Y-97401000D01*
X95784554Y-97401000D01*
X95791380Y-97407826D01*
X95978587Y-97532913D01*
X96186599Y-97619075D01*
X96407424Y-97663000D01*
X96632576Y-97663000D01*
X96853401Y-97619075D01*
X97061413Y-97532913D01*
X97248620Y-97407826D01*
X97407826Y-97248620D01*
X97532913Y-97061413D01*
X97619075Y-96853401D01*
X97663000Y-96632576D01*
X97663000Y-96407424D01*
X97619075Y-96186599D01*
X97532913Y-95978587D01*
X97407826Y-95791380D01*
X97248620Y-95632174D01*
X97061413Y-95507087D01*
X96853401Y-95420925D01*
X96632576Y-95377000D01*
X96407424Y-95377000D01*
X96186599Y-95420925D01*
X95978587Y-95507087D01*
X95791380Y-95632174D01*
X95784554Y-95639000D01*
X92175446Y-95639000D01*
X92168620Y-95632174D01*
X91981413Y-95507087D01*
X91773401Y-95420925D01*
X91552576Y-95377000D01*
X91327424Y-95377000D01*
X91106599Y-95420925D01*
X90898587Y-95507087D01*
X90711380Y-95632174D01*
X90552174Y-95791380D01*
X90427087Y-95978587D01*
X90340925Y-96186599D01*
X90297000Y-96407424D01*
X87503000Y-96407424D01*
X87459075Y-96186599D01*
X87372913Y-95978587D01*
X87247826Y-95791380D01*
X87088620Y-95632174D01*
X86901413Y-95507087D01*
X86693401Y-95420925D01*
X86472576Y-95377000D01*
X86247424Y-95377000D01*
X86026599Y-95420925D01*
X85818587Y-95507087D01*
X85631380Y-95632174D01*
X85624554Y-95639000D01*
X82015446Y-95639000D01*
X82008620Y-95632174D01*
X81821413Y-95507087D01*
X81613401Y-95420925D01*
X81392576Y-95377000D01*
X81167424Y-95377000D01*
X80946599Y-95420925D01*
X80738587Y-95507087D01*
X80551380Y-95632174D01*
X80392174Y-95791380D01*
X80267087Y-95978587D01*
X80256000Y-96005353D01*
X80256000Y-94494647D01*
X80267087Y-94521413D01*
X80392174Y-94708620D01*
X80551380Y-94867826D01*
X80738587Y-94992913D01*
X80946599Y-95079075D01*
X81167424Y-95123000D01*
X81392576Y-95123000D01*
X81613401Y-95079075D01*
X81821413Y-94992913D01*
X82008620Y-94867826D01*
X82167826Y-94708620D01*
X82292913Y-94521413D01*
X82379075Y-94313401D01*
X82423000Y-94092576D01*
X82423000Y-93867424D01*
X85217000Y-93867424D01*
X85217000Y-94092576D01*
X85260925Y-94313401D01*
X85347087Y-94521413D01*
X85472174Y-94708620D01*
X85631380Y-94867826D01*
X85818587Y-94992913D01*
X86026599Y-95079075D01*
X86247424Y-95123000D01*
X86472576Y-95123000D01*
X86693401Y-95079075D01*
X86901413Y-94992913D01*
X87088620Y-94867826D01*
X87247826Y-94708620D01*
X87372913Y-94521413D01*
X87459075Y-94313401D01*
X87503000Y-94092576D01*
X87503000Y-93867424D01*
X90297000Y-93867424D01*
X90297000Y-94092576D01*
X90340925Y-94313401D01*
X90427087Y-94521413D01*
X90552174Y-94708620D01*
X90711380Y-94867826D01*
X90898587Y-94992913D01*
X91106599Y-95079075D01*
X91327424Y-95123000D01*
X91552576Y-95123000D01*
X91773401Y-95079075D01*
X91981413Y-94992913D01*
X92168620Y-94867826D01*
X92327826Y-94708620D01*
X92452913Y-94521413D01*
X92539075Y-94313401D01*
X92583000Y-94092576D01*
X92583000Y-93867424D01*
X95377000Y-93867424D01*
X95377000Y-94092576D01*
X95420925Y-94313401D01*
X95507087Y-94521413D01*
X95632174Y-94708620D01*
X95791380Y-94867826D01*
X95978587Y-94992913D01*
X96186599Y-95079075D01*
X96407424Y-95123000D01*
X96632576Y-95123000D01*
X96853401Y-95079075D01*
X97061413Y-94992913D01*
X97248620Y-94867826D01*
X97407826Y-94708620D01*
X97532913Y-94521413D01*
X97619075Y-94313401D01*
X97663000Y-94092576D01*
X97663000Y-93867424D01*
X97619075Y-93646599D01*
X97532913Y-93438587D01*
X97407826Y-93251380D01*
X97248620Y-93092174D01*
X97061413Y-92967087D01*
X96853401Y-92880925D01*
X96632576Y-92837000D01*
X96407424Y-92837000D01*
X96186599Y-92880925D01*
X95978587Y-92967087D01*
X95791380Y-93092174D01*
X95632174Y-93251380D01*
X95507087Y-93438587D01*
X95420925Y-93646599D01*
X95377000Y-93867424D01*
X92583000Y-93867424D01*
X92539075Y-93646599D01*
X92452913Y-93438587D01*
X92327826Y-93251380D01*
X92168620Y-93092174D01*
X91981413Y-92967087D01*
X91773401Y-92880925D01*
X91552576Y-92837000D01*
X91327424Y-92837000D01*
X91106599Y-92880925D01*
X90898587Y-92967087D01*
X90711380Y-93092174D01*
X90552174Y-93251380D01*
X90427087Y-93438587D01*
X90340925Y-93646599D01*
X90297000Y-93867424D01*
X87503000Y-93867424D01*
X87459075Y-93646599D01*
X87372913Y-93438587D01*
X87247826Y-93251380D01*
X87088620Y-93092174D01*
X86901413Y-92967087D01*
X86693401Y-92880925D01*
X86472576Y-92837000D01*
X86247424Y-92837000D01*
X86026599Y-92880925D01*
X85818587Y-92967087D01*
X85631380Y-93092174D01*
X85472174Y-93251380D01*
X85347087Y-93438587D01*
X85260925Y-93646599D01*
X85217000Y-93867424D01*
X82423000Y-93867424D01*
X82379075Y-93646599D01*
X82292913Y-93438587D01*
X82167826Y-93251380D01*
X82008620Y-93092174D01*
X81821413Y-92967087D01*
X81613401Y-92880925D01*
X81392576Y-92837000D01*
X81167424Y-92837000D01*
X80946599Y-92880925D01*
X80738587Y-92967087D01*
X80551380Y-93092174D01*
X80392174Y-93251380D01*
X80267087Y-93438587D01*
X80256000Y-93465353D01*
X80256000Y-91954647D01*
X80267087Y-91981413D01*
X80392174Y-92168620D01*
X80551380Y-92327826D01*
X80738587Y-92452913D01*
X80946599Y-92539075D01*
X81167424Y-92583000D01*
X81392576Y-92583000D01*
X81613401Y-92539075D01*
X81821413Y-92452913D01*
X82008620Y-92327826D01*
X82167826Y-92168620D01*
X82292913Y-91981413D01*
X82379075Y-91773401D01*
X82423000Y-91552576D01*
X82423000Y-91327424D01*
X85217000Y-91327424D01*
X85217000Y-91552576D01*
X85260925Y-91773401D01*
X85347087Y-91981413D01*
X85472174Y-92168620D01*
X85631380Y-92327826D01*
X85818587Y-92452913D01*
X86026599Y-92539075D01*
X86247424Y-92583000D01*
X86472576Y-92583000D01*
X86693401Y-92539075D01*
X86901413Y-92452913D01*
X87088620Y-92327826D01*
X87247826Y-92168620D01*
X87372913Y-91981413D01*
X87459075Y-91773401D01*
X87503000Y-91552576D01*
X87503000Y-91542921D01*
X88222361Y-90823561D01*
X88255975Y-90795975D01*
X88338017Y-90696006D01*
X88366068Y-90661826D01*
X88442276Y-90519250D01*
X88447875Y-90508775D01*
X88498252Y-90342706D01*
X88511000Y-90213273D01*
X88511000Y-90213271D01*
X88515262Y-90170001D01*
X88511000Y-90126731D01*
X88511000Y-84797825D01*
X88582296Y-84726529D01*
X88716467Y-84525729D01*
X88808885Y-84302611D01*
X88856000Y-84065750D01*
X88856000Y-83824250D01*
X88944000Y-83824250D01*
X88944000Y-84065750D01*
X88991115Y-84302611D01*
X89083533Y-84525729D01*
X89217704Y-84726529D01*
X89289000Y-84797825D01*
X89289001Y-90126720D01*
X89284738Y-90170000D01*
X89293312Y-90257045D01*
X89301749Y-90342706D01*
X89313878Y-90382688D01*
X89352125Y-90508774D01*
X89433932Y-90661825D01*
X89461984Y-90696006D01*
X89544026Y-90795975D01*
X89577640Y-90823561D01*
X90297000Y-91542922D01*
X90297000Y-91552576D01*
X90340925Y-91773401D01*
X90427087Y-91981413D01*
X90552174Y-92168620D01*
X90711380Y-92327826D01*
X90898587Y-92452913D01*
X91106599Y-92539075D01*
X91327424Y-92583000D01*
X91552576Y-92583000D01*
X91773401Y-92539075D01*
X91981413Y-92452913D01*
X92168620Y-92327826D01*
X92327826Y-92168620D01*
X92452913Y-91981413D01*
X92539075Y-91773401D01*
X92583000Y-91552576D01*
X92583000Y-91327424D01*
X92539075Y-91106599D01*
X92452913Y-90898587D01*
X92327826Y-90711380D01*
X92168620Y-90552174D01*
X91981413Y-90427087D01*
X91773401Y-90340925D01*
X91552576Y-90297000D01*
X91542922Y-90297000D01*
X91051000Y-89805079D01*
X91051000Y-84797825D01*
X91122296Y-84726529D01*
X91256467Y-84525729D01*
X91348885Y-84302611D01*
X91396000Y-84065750D01*
X91396000Y-83824250D01*
X91348885Y-83587389D01*
X91256467Y-83364271D01*
X91122296Y-83163471D01*
X91058825Y-83100000D01*
X91482157Y-83100000D01*
X91482157Y-84790000D01*
X91489513Y-84864689D01*
X91511299Y-84936508D01*
X91546678Y-85002696D01*
X91594289Y-85060711D01*
X91652304Y-85108322D01*
X91718492Y-85143701D01*
X91790311Y-85165487D01*
X91865000Y-85172843D01*
X92816922Y-85172843D01*
X95639000Y-87994922D01*
X95639001Y-90704553D01*
X95632174Y-90711380D01*
X95507087Y-90898587D01*
X95420925Y-91106599D01*
X95377000Y-91327424D01*
X95377000Y-91552576D01*
X95420925Y-91773401D01*
X95507087Y-91981413D01*
X95632174Y-92168620D01*
X95791380Y-92327826D01*
X95978587Y-92452913D01*
X96186599Y-92539075D01*
X96407424Y-92583000D01*
X96632576Y-92583000D01*
X96853401Y-92539075D01*
X97061413Y-92452913D01*
X97248620Y-92327826D01*
X97407826Y-92168620D01*
X97532913Y-91981413D01*
X97619075Y-91773401D01*
X97663000Y-91552576D01*
X97663000Y-91327424D01*
X97619075Y-91106599D01*
X97532913Y-90898587D01*
X97407826Y-90711380D01*
X97401000Y-90704554D01*
X97401000Y-87673270D01*
X97405262Y-87630000D01*
X97397746Y-87553689D01*
X97388252Y-87457294D01*
X97337875Y-87291225D01*
X97256068Y-87138174D01*
X97196692Y-87065825D01*
X97145975Y-87004025D01*
X97112362Y-86976440D01*
X93937843Y-83801922D01*
X93937843Y-83100000D01*
X93930487Y-83025311D01*
X93908701Y-82953492D01*
X93873322Y-82887304D01*
X93825711Y-82829289D01*
X93767696Y-82781678D01*
X93701508Y-82746299D01*
X93629689Y-82724513D01*
X93555000Y-82717157D01*
X91865000Y-82717157D01*
X91790311Y-82724513D01*
X91718492Y-82746299D01*
X91652304Y-82781678D01*
X91594289Y-82829289D01*
X91546678Y-82887304D01*
X91511299Y-82953492D01*
X91489513Y-83025311D01*
X91482157Y-83100000D01*
X91058825Y-83100000D01*
X90951529Y-82992704D01*
X90750729Y-82858533D01*
X90527611Y-82766115D01*
X90290750Y-82719000D01*
X90049250Y-82719000D01*
X89812389Y-82766115D01*
X89589271Y-82858533D01*
X89388471Y-82992704D01*
X89217704Y-83163471D01*
X89083533Y-83364271D01*
X88991115Y-83587389D01*
X88944000Y-83824250D01*
X88856000Y-83824250D01*
X88808885Y-83587389D01*
X88716467Y-83364271D01*
X88582296Y-83163471D01*
X88411529Y-82992704D01*
X88210729Y-82858533D01*
X87987611Y-82766115D01*
X87750750Y-82719000D01*
X87509250Y-82719000D01*
X87272389Y-82766115D01*
X87049271Y-82858533D01*
X86848471Y-82992704D01*
X86677704Y-83163471D01*
X86543533Y-83364271D01*
X86451115Y-83587389D01*
X86404000Y-83824250D01*
X86404000Y-84065750D01*
X86451115Y-84302611D01*
X86543533Y-84525729D01*
X86677704Y-84726529D01*
X86749000Y-84797825D01*
X86749001Y-89805077D01*
X86257079Y-90297000D01*
X86247424Y-90297000D01*
X86026599Y-90340925D01*
X85818587Y-90427087D01*
X85631380Y-90552174D01*
X85472174Y-90711380D01*
X85347087Y-90898587D01*
X85260925Y-91106599D01*
X85217000Y-91327424D01*
X82423000Y-91327424D01*
X82379075Y-91106599D01*
X82292913Y-90898587D01*
X82167826Y-90711380D01*
X82161000Y-90704554D01*
X82161000Y-88119921D01*
X85109922Y-85171000D01*
X85210750Y-85171000D01*
X85447611Y-85123885D01*
X85670729Y-85031467D01*
X85871529Y-84897296D01*
X86042296Y-84726529D01*
X86176467Y-84525729D01*
X86268885Y-84302611D01*
X86316000Y-84065750D01*
X86316000Y-83824250D01*
X86268885Y-83587389D01*
X86176467Y-83364271D01*
X86042296Y-83163471D01*
X85871529Y-82992704D01*
X85670729Y-82858533D01*
X85447611Y-82766115D01*
X85210750Y-82719000D01*
X84969250Y-82719000D01*
X84732389Y-82766115D01*
X84509271Y-82858533D01*
X84308471Y-82992704D01*
X84137704Y-83163471D01*
X84003533Y-83364271D01*
X83911115Y-83587389D01*
X83864000Y-83824250D01*
X83864000Y-83925078D01*
X80687645Y-87101434D01*
X80654025Y-87129025D01*
X80595799Y-87199975D01*
X80543932Y-87263175D01*
X80476115Y-87390053D01*
X80462125Y-87416226D01*
X80411748Y-87582295D01*
X80399000Y-87711727D01*
X80394738Y-87755000D01*
X80399000Y-87798270D01*
X80399001Y-90704553D01*
X80392174Y-90711380D01*
X80267087Y-90898587D01*
X80256000Y-90925353D01*
X80256000Y-88943270D01*
X80260262Y-88900000D01*
X80256000Y-88856727D01*
X80243252Y-88727294D01*
X80192875Y-88561225D01*
X80159215Y-88498251D01*
X80111068Y-88408174D01*
X80028559Y-88307637D01*
X80000975Y-88274025D01*
X79967362Y-88246440D01*
X77702566Y-85981645D01*
X77674975Y-85948025D01*
X77540825Y-85837932D01*
X77387775Y-85756125D01*
X77221706Y-85705748D01*
X77092273Y-85693000D01*
X77092270Y-85693000D01*
X77049000Y-85688738D01*
X77005730Y-85693000D01*
X75577843Y-85693000D01*
X75577843Y-84824000D01*
X75570487Y-84749311D01*
X75548701Y-84677492D01*
X75513322Y-84611304D01*
X75465711Y-84553289D01*
X75407696Y-84505678D01*
X75341508Y-84470299D01*
X75269689Y-84448513D01*
X75195000Y-84441157D01*
X73395000Y-84441157D01*
X73320311Y-84448513D01*
X73248492Y-84470299D01*
X73182304Y-84505678D01*
X73124289Y-84553289D01*
X73076678Y-84611304D01*
X73041299Y-84677492D01*
X73019513Y-84749311D01*
X73012157Y-84824000D01*
X73012157Y-86018000D01*
X72203304Y-86018000D01*
X72176000Y-86015311D01*
X72148695Y-86018000D01*
X72148688Y-86018000D01*
X72067005Y-86026045D01*
X71962199Y-86057838D01*
X71865608Y-86109466D01*
X71780947Y-86178947D01*
X71763535Y-86200163D01*
X71381168Y-86582531D01*
X71359947Y-86599947D01*
X71290466Y-86684608D01*
X71238838Y-86781200D01*
X71207045Y-86886006D01*
X71199000Y-86967689D01*
X71199000Y-86967696D01*
X71196311Y-86995000D01*
X71199000Y-87022304D01*
X71199001Y-91844696D01*
X70254699Y-92789000D01*
X68607304Y-92789000D01*
X68580000Y-92786311D01*
X68552695Y-92789000D01*
X68552688Y-92789000D01*
X68471005Y-92797045D01*
X68366199Y-92828838D01*
X68269608Y-92880466D01*
X68184947Y-92949947D01*
X68167536Y-92971162D01*
X67293668Y-93845031D01*
X67272447Y-93862447D01*
X67202966Y-93947108D01*
X67151338Y-94043700D01*
X67119545Y-94148506D01*
X67111500Y-94230189D01*
X67111500Y-94230196D01*
X67108811Y-94257500D01*
X67111500Y-94284805D01*
X67111500Y-94984048D01*
X67072856Y-95004704D01*
X66978851Y-95081851D01*
X66901704Y-95175856D01*
X66887730Y-95202000D01*
X66194304Y-95202000D01*
X66166999Y-95199311D01*
X66139695Y-95202000D01*
X66139688Y-95202000D01*
X66058005Y-95210045D01*
X65953199Y-95241838D01*
X65856608Y-95293466D01*
X65771947Y-95362947D01*
X65754535Y-95384163D01*
X64943422Y-96195277D01*
X64938149Y-96188851D01*
X64844144Y-96111704D01*
X64736895Y-96054378D01*
X64620523Y-96019077D01*
X64499500Y-96007157D01*
X64024500Y-96007157D01*
X63903477Y-96019077D01*
X63787105Y-96054378D01*
X63679856Y-96111704D01*
X63585851Y-96188851D01*
X63508704Y-96282856D01*
X63488048Y-96321500D01*
X63257952Y-96321500D01*
X63237296Y-96282856D01*
X63160149Y-96188851D01*
X63066144Y-96111704D01*
X62958895Y-96054378D01*
X62842523Y-96019077D01*
X62721500Y-96007157D01*
X62246500Y-96007157D01*
X62125477Y-96019077D01*
X62009105Y-96054378D01*
X61901856Y-96111704D01*
X61807851Y-96188851D01*
X61770000Y-96234973D01*
X61770000Y-94718301D01*
X63913843Y-92574460D01*
X63935053Y-92557053D01*
X63952460Y-92535843D01*
X63952464Y-92535839D01*
X63974626Y-92508834D01*
X64004534Y-92472392D01*
X64056162Y-92375801D01*
X64087955Y-92270995D01*
X64096000Y-92189312D01*
X64096000Y-92189305D01*
X64098689Y-92162000D01*
X64096000Y-92134695D01*
X64096000Y-92087843D01*
X65290000Y-92087843D01*
X65364689Y-92080487D01*
X65436508Y-92058701D01*
X65502696Y-92023322D01*
X65560711Y-91975711D01*
X65608322Y-91917696D01*
X65643701Y-91851508D01*
X65665487Y-91779689D01*
X65672843Y-91705000D01*
X66151928Y-91705000D01*
X66164188Y-91829482D01*
X66200498Y-91949180D01*
X66259463Y-92059494D01*
X66338815Y-92156185D01*
X66435506Y-92235537D01*
X66545820Y-92294502D01*
X66665518Y-92330812D01*
X66790000Y-92343072D01*
X68254250Y-92340000D01*
X68413000Y-92181250D01*
X68413000Y-90932000D01*
X68667000Y-90932000D01*
X68667000Y-92181250D01*
X68825750Y-92340000D01*
X70290000Y-92343072D01*
X70414482Y-92330812D01*
X70534180Y-92294502D01*
X70644494Y-92235537D01*
X70741185Y-92156185D01*
X70820537Y-92059494D01*
X70879502Y-91949180D01*
X70915812Y-91829482D01*
X70928072Y-91705000D01*
X70925000Y-91090750D01*
X70766250Y-90932000D01*
X68667000Y-90932000D01*
X68413000Y-90932000D01*
X66313750Y-90932000D01*
X66155000Y-91090750D01*
X66151928Y-91705000D01*
X65672843Y-91705000D01*
X65672843Y-89905000D01*
X66151928Y-89905000D01*
X66155000Y-90519250D01*
X66313750Y-90678000D01*
X68413000Y-90678000D01*
X68413000Y-89428750D01*
X68667000Y-89428750D01*
X68667000Y-90678000D01*
X70766250Y-90678000D01*
X70925000Y-90519250D01*
X70928072Y-89905000D01*
X70915812Y-89780518D01*
X70879502Y-89660820D01*
X70820537Y-89550506D01*
X70741185Y-89453815D01*
X70644494Y-89374463D01*
X70534180Y-89315498D01*
X70414482Y-89279188D01*
X70290000Y-89266928D01*
X68825750Y-89270000D01*
X68667000Y-89428750D01*
X68413000Y-89428750D01*
X68254250Y-89270000D01*
X66790000Y-89266928D01*
X66665518Y-89279188D01*
X66545820Y-89315498D01*
X66435506Y-89374463D01*
X66338815Y-89453815D01*
X66259463Y-89550506D01*
X66200498Y-89660820D01*
X66164188Y-89780518D01*
X66151928Y-89905000D01*
X65672843Y-89905000D01*
X65665487Y-89830311D01*
X65643701Y-89758492D01*
X65608322Y-89692304D01*
X65560711Y-89634289D01*
X65502696Y-89586678D01*
X65436508Y-89551299D01*
X65364689Y-89529513D01*
X65290000Y-89522157D01*
X61790000Y-89522157D01*
X61715311Y-89529513D01*
X61643492Y-89551299D01*
X61577304Y-89586678D01*
X61519289Y-89634289D01*
X61471678Y-89692304D01*
X61436299Y-89758492D01*
X61414513Y-89830311D01*
X61407157Y-89905000D01*
X61407157Y-91705000D01*
X61414513Y-91779689D01*
X61436299Y-91851508D01*
X61471678Y-91917696D01*
X61519289Y-91975711D01*
X61577304Y-92023322D01*
X61643492Y-92058701D01*
X61715311Y-92080487D01*
X61790000Y-92087843D01*
X62827854Y-92087843D01*
X60840168Y-94075531D01*
X60818947Y-94092947D01*
X60749466Y-94177608D01*
X60697838Y-94274200D01*
X60666045Y-94379006D01*
X60658000Y-94460689D01*
X60658000Y-94460696D01*
X60655311Y-94488000D01*
X56642000Y-94488000D01*
X56642000Y-83821049D01*
X63511500Y-83821049D01*
X63511500Y-84068951D01*
X63559864Y-84312091D01*
X63654732Y-84541123D01*
X63792459Y-84747247D01*
X63967753Y-84922541D01*
X64173877Y-85060268D01*
X64402909Y-85155136D01*
X64646049Y-85203500D01*
X64893951Y-85203500D01*
X65137091Y-85155136D01*
X65366123Y-85060268D01*
X65572247Y-84922541D01*
X65747541Y-84747247D01*
X65795189Y-84675937D01*
X65794428Y-84822500D01*
X65806688Y-84946982D01*
X65842998Y-85066680D01*
X65901963Y-85176994D01*
X65981315Y-85273685D01*
X66078006Y-85353037D01*
X66188320Y-85412002D01*
X66308018Y-85448312D01*
X66432500Y-85460572D01*
X67024250Y-85457500D01*
X67183000Y-85298750D01*
X67183000Y-84072000D01*
X67437000Y-84072000D01*
X67437000Y-85298750D01*
X67595750Y-85457500D01*
X68187500Y-85460572D01*
X68311982Y-85448312D01*
X68431680Y-85412002D01*
X68541994Y-85353037D01*
X68638685Y-85273685D01*
X68718037Y-85176994D01*
X68777002Y-85066680D01*
X68813312Y-84946982D01*
X68825572Y-84822500D01*
X68822500Y-84230750D01*
X68663750Y-84072000D01*
X67437000Y-84072000D01*
X67183000Y-84072000D01*
X67163000Y-84072000D01*
X67163000Y-83818000D01*
X67183000Y-83818000D01*
X67183000Y-83798000D01*
X67437000Y-83798000D01*
X67437000Y-83818000D01*
X68663750Y-83818000D01*
X68822500Y-83659250D01*
X68825572Y-83067500D01*
X68813312Y-82943018D01*
X68777002Y-82823320D01*
X68718037Y-82713006D01*
X68711467Y-82705000D01*
X73012157Y-82705000D01*
X73012157Y-83324000D01*
X73019513Y-83398689D01*
X73041299Y-83470508D01*
X73076678Y-83536696D01*
X73124289Y-83594711D01*
X73182304Y-83642322D01*
X73248492Y-83677701D01*
X73320311Y-83699487D01*
X73395000Y-83706843D01*
X75195000Y-83706843D01*
X75269689Y-83699487D01*
X75341508Y-83677701D01*
X75407696Y-83642322D01*
X75465711Y-83594711D01*
X75513322Y-83536696D01*
X75548701Y-83470508D01*
X75570487Y-83398689D01*
X75577843Y-83324000D01*
X75577843Y-82213148D01*
X97671457Y-82213148D01*
X97947627Y-82631118D01*
X98492557Y-82921649D01*
X99083696Y-83100287D01*
X99698328Y-83160168D01*
X100312831Y-83098990D01*
X100903592Y-82919103D01*
X101442373Y-82631118D01*
X101718543Y-82213148D01*
X99695000Y-80189605D01*
X97671457Y-82213148D01*
X75577843Y-82213148D01*
X75577843Y-80013328D01*
X96544832Y-80013328D01*
X96606010Y-80627831D01*
X96785897Y-81218592D01*
X97073882Y-81757373D01*
X97491852Y-82033543D01*
X99515395Y-80010000D01*
X97491852Y-77986457D01*
X97073882Y-78262627D01*
X96783351Y-78807557D01*
X96604713Y-79398696D01*
X96544832Y-80013328D01*
X75577843Y-80013328D01*
X75577843Y-79824000D01*
X75570487Y-79749311D01*
X75548701Y-79677492D01*
X75513322Y-79611304D01*
X75465711Y-79553289D01*
X75407696Y-79505678D01*
X75341508Y-79470299D01*
X75269689Y-79448513D01*
X75195000Y-79441157D01*
X73395000Y-79441157D01*
X73320311Y-79448513D01*
X73248492Y-79470299D01*
X73182304Y-79505678D01*
X73124289Y-79553289D01*
X73076678Y-79611304D01*
X73041299Y-79677492D01*
X73019513Y-79749311D01*
X73012157Y-79824000D01*
X73012157Y-80443000D01*
X65547547Y-80443000D01*
X65491999Y-80437529D01*
X65436451Y-80443000D01*
X65436442Y-80443000D01*
X65270285Y-80459365D01*
X65057091Y-80524037D01*
X64860610Y-80629058D01*
X64688393Y-80770393D01*
X64652975Y-80813550D01*
X64009546Y-81456979D01*
X63966394Y-81492393D01*
X63930980Y-81535545D01*
X63930977Y-81535548D01*
X63825058Y-81664611D01*
X63720037Y-81861092D01*
X63675197Y-82008909D01*
X63655365Y-82074285D01*
X63639000Y-82240442D01*
X63639000Y-82240450D01*
X63633529Y-82296000D01*
X63639000Y-82351550D01*
X63639000Y-83386857D01*
X63559864Y-83577909D01*
X63511500Y-83821049D01*
X56642000Y-83821049D01*
X56642000Y-82213148D01*
X57031457Y-82213148D01*
X57307627Y-82631118D01*
X57852557Y-82921649D01*
X58443696Y-83100287D01*
X59058328Y-83160168D01*
X59672831Y-83098990D01*
X60263592Y-82919103D01*
X60802373Y-82631118D01*
X61078543Y-82213148D01*
X59055000Y-80189605D01*
X57031457Y-82213148D01*
X56642000Y-82213148D01*
X56642000Y-81894885D01*
X56851852Y-82033543D01*
X58875395Y-80010000D01*
X59234605Y-80010000D01*
X61258148Y-82033543D01*
X61676118Y-81757373D01*
X61966649Y-81212443D01*
X62145287Y-80621304D01*
X62205168Y-80006672D01*
X62143990Y-79392169D01*
X61964103Y-78801408D01*
X61676118Y-78262627D01*
X61258148Y-77986457D01*
X59234605Y-80010000D01*
X58875395Y-80010000D01*
X58861253Y-79995858D01*
X59040858Y-79816253D01*
X59055000Y-79830395D01*
X61078543Y-77806852D01*
X60939885Y-77597000D01*
X97810115Y-77597000D01*
X97671457Y-77806852D01*
%TA.AperFunction,Conductor*%
D26*
G36*
X97671457Y-77806852D02*
G01*
X99695000Y-79830395D01*
X99709143Y-79816253D01*
X99888748Y-79995858D01*
X99874605Y-80010000D01*
X101898148Y-82033543D01*
X102108000Y-81894885D01*
X102108000Y-118765115D01*
X101898148Y-118626457D01*
X99874605Y-120650000D01*
X99888748Y-120664143D01*
X99709143Y-120843748D01*
X99695000Y-120829605D01*
X97671457Y-122853148D01*
X97810115Y-123063000D01*
X60939885Y-123063000D01*
X61078543Y-122853148D01*
X59055000Y-120829605D01*
X59040858Y-120843748D01*
X58861253Y-120664143D01*
X58875395Y-120650000D01*
X59234605Y-120650000D01*
X61258148Y-122673543D01*
X61676118Y-122397373D01*
X61966649Y-121852443D01*
X62145287Y-121261304D01*
X62204519Y-120653328D01*
X96544832Y-120653328D01*
X96606010Y-121267831D01*
X96785897Y-121858592D01*
X97073882Y-122397373D01*
X97491852Y-122673543D01*
X99515395Y-120650000D01*
X97491852Y-118626457D01*
X97073882Y-118902627D01*
X96783351Y-119447557D01*
X96604713Y-120038696D01*
X96544832Y-120653328D01*
X62204519Y-120653328D01*
X62205168Y-120646672D01*
X62143990Y-120032169D01*
X61964103Y-119441408D01*
X61676118Y-118902627D01*
X61258148Y-118626457D01*
X59234605Y-120650000D01*
X58875395Y-120650000D01*
X56851852Y-118626457D01*
X56642000Y-118765115D01*
X56642000Y-118446852D01*
X57031457Y-118446852D01*
X59055000Y-120470395D01*
X61078543Y-118446852D01*
X60858780Y-118114250D01*
X83864000Y-118114250D01*
X83864000Y-118355750D01*
X83911115Y-118592611D01*
X84003533Y-118815729D01*
X84137704Y-119016529D01*
X84308471Y-119187296D01*
X84509271Y-119321467D01*
X84732389Y-119413885D01*
X84969250Y-119461000D01*
X85210750Y-119461000D01*
X85447611Y-119413885D01*
X85670729Y-119321467D01*
X85871529Y-119187296D01*
X86042296Y-119016529D01*
X86176467Y-118815729D01*
X86268885Y-118592611D01*
X86316000Y-118355750D01*
X86316000Y-118114250D01*
X86268885Y-117877389D01*
X86176467Y-117654271D01*
X86042296Y-117453471D01*
X85971000Y-117382175D01*
X85971000Y-113419611D01*
X86061589Y-113371190D01*
X86157488Y-113292488D01*
X86236190Y-113196589D01*
X86294671Y-113087179D01*
X86330683Y-112968462D01*
X86342843Y-112845001D01*
X86342843Y-111944999D01*
X86377157Y-111944999D01*
X86377157Y-112845001D01*
X86389317Y-112968462D01*
X86425329Y-113087179D01*
X86483810Y-113196589D01*
X86562512Y-113292488D01*
X86658411Y-113371190D01*
X86749001Y-113419611D01*
X86749000Y-117382175D01*
X86677704Y-117453471D01*
X86543533Y-117654271D01*
X86451115Y-117877389D01*
X86404000Y-118114250D01*
X86404000Y-118355750D01*
X86451115Y-118592611D01*
X86543533Y-118815729D01*
X86677704Y-119016529D01*
X86848471Y-119187296D01*
X87049271Y-119321467D01*
X87272389Y-119413885D01*
X87509250Y-119461000D01*
X87750750Y-119461000D01*
X87987611Y-119413885D01*
X88210729Y-119321467D01*
X88411529Y-119187296D01*
X88582296Y-119016529D01*
X88716467Y-118815729D01*
X88808885Y-118592611D01*
X88856000Y-118355750D01*
X88856000Y-118114250D01*
X88944000Y-118114250D01*
X88944000Y-118355750D01*
X88991115Y-118592611D01*
X89083533Y-118815729D01*
X89217704Y-119016529D01*
X89388471Y-119187296D01*
X89589271Y-119321467D01*
X89812389Y-119413885D01*
X90049250Y-119461000D01*
X90290750Y-119461000D01*
X90527611Y-119413885D01*
X90750729Y-119321467D01*
X90951529Y-119187296D01*
X91122296Y-119016529D01*
X91256467Y-118815729D01*
X91348885Y-118592611D01*
X91396000Y-118355750D01*
X91396000Y-118114250D01*
X91348885Y-117877389D01*
X91256467Y-117654271D01*
X91122296Y-117453471D01*
X91051000Y-117382175D01*
X91051000Y-113419611D01*
X91141589Y-113371190D01*
X91237488Y-113292488D01*
X91316190Y-113196589D01*
X91374671Y-113087179D01*
X91410683Y-112968462D01*
X91422843Y-112845001D01*
X91422843Y-111944999D01*
X91457157Y-111944999D01*
X91457157Y-112845001D01*
X91469317Y-112968462D01*
X91505329Y-113087179D01*
X91563810Y-113196589D01*
X91642512Y-113292488D01*
X91738411Y-113371190D01*
X91829001Y-113419611D01*
X91829000Y-117010703D01*
X91790311Y-117014513D01*
X91718492Y-117036299D01*
X91652304Y-117071678D01*
X91594289Y-117119289D01*
X91546678Y-117177304D01*
X91511299Y-117243492D01*
X91489513Y-117315311D01*
X91482157Y-117390000D01*
X91482157Y-119080000D01*
X91489513Y-119154689D01*
X91511299Y-119226508D01*
X91546678Y-119292696D01*
X91594289Y-119350711D01*
X91652304Y-119398322D01*
X91718492Y-119433701D01*
X91790311Y-119455487D01*
X91865000Y-119462843D01*
X93555000Y-119462843D01*
X93629689Y-119455487D01*
X93701508Y-119433701D01*
X93767696Y-119398322D01*
X93825711Y-119350711D01*
X93873322Y-119292696D01*
X93908701Y-119226508D01*
X93930487Y-119154689D01*
X93937843Y-119080000D01*
X93937843Y-118446852D01*
X97671457Y-118446852D01*
X99695000Y-120470395D01*
X101718543Y-118446852D01*
X101442373Y-118028882D01*
X100897443Y-117738351D01*
X100306304Y-117559713D01*
X99691672Y-117499832D01*
X99077169Y-117561010D01*
X98486408Y-117740897D01*
X97947627Y-118028882D01*
X97671457Y-118446852D01*
X93937843Y-118446852D01*
X93937843Y-117390000D01*
X93930487Y-117315311D01*
X93908701Y-117243492D01*
X93873322Y-117177304D01*
X93825711Y-117119289D01*
X93767696Y-117071678D01*
X93701508Y-117036299D01*
X93629689Y-117014513D01*
X93591000Y-117010703D01*
X93591000Y-112621727D01*
X93578252Y-112492294D01*
X93527875Y-112326225D01*
X93446068Y-112173175D01*
X93422843Y-112144875D01*
X93422843Y-111944999D01*
X93420216Y-111918326D01*
X93446068Y-111886825D01*
X93527875Y-111733775D01*
X93578251Y-111567706D01*
X93595262Y-111395000D01*
X93578251Y-111222294D01*
X93527875Y-111056226D01*
X93446068Y-110903175D01*
X93363559Y-110802638D01*
X93032362Y-110471441D01*
X92931825Y-110388932D01*
X92778774Y-110307125D01*
X92612705Y-110256749D01*
X92440000Y-110239738D01*
X92267295Y-110256749D01*
X92101226Y-110307125D01*
X91948175Y-110388932D01*
X91814026Y-110499026D01*
X91703932Y-110633175D01*
X91622125Y-110786226D01*
X91571749Y-110952295D01*
X91554738Y-111125000D01*
X91571749Y-111297705D01*
X91622125Y-111463774D01*
X91641087Y-111499249D01*
X91563810Y-111593411D01*
X91505329Y-111702821D01*
X91469317Y-111821538D01*
X91457157Y-111944999D01*
X91422843Y-111944999D01*
X91410683Y-111821538D01*
X91374671Y-111702821D01*
X91316190Y-111593411D01*
X91238913Y-111499249D01*
X91257875Y-111463774D01*
X91308251Y-111297706D01*
X91325262Y-111125000D01*
X91308251Y-110952294D01*
X91257875Y-110786225D01*
X91176068Y-110633175D01*
X91065975Y-110499025D01*
X90931825Y-110388932D01*
X90778775Y-110307125D01*
X90612706Y-110256749D01*
X90440000Y-110239738D01*
X90267294Y-110256749D01*
X90101226Y-110307125D01*
X89948175Y-110388932D01*
X89847638Y-110471441D01*
X89516441Y-110802638D01*
X89433932Y-110903175D01*
X89352125Y-111056226D01*
X89301749Y-111222295D01*
X89284738Y-111395000D01*
X89301749Y-111567705D01*
X89352125Y-111733774D01*
X89433932Y-111886825D01*
X89459784Y-111918326D01*
X89457157Y-111944999D01*
X89457157Y-112144876D01*
X89433933Y-112173175D01*
X89352126Y-112326225D01*
X89301749Y-112492294D01*
X89289001Y-112621727D01*
X89289000Y-117382175D01*
X89217704Y-117453471D01*
X89083533Y-117654271D01*
X88991115Y-117877389D01*
X88944000Y-118114250D01*
X88856000Y-118114250D01*
X88808885Y-117877389D01*
X88716467Y-117654271D01*
X88582296Y-117453471D01*
X88511000Y-117382175D01*
X88511000Y-112621727D01*
X88498252Y-112492294D01*
X88447875Y-112326225D01*
X88366068Y-112173175D01*
X88342843Y-112144875D01*
X88342843Y-111944999D01*
X88340216Y-111918326D01*
X88366068Y-111886825D01*
X88447875Y-111733775D01*
X88498251Y-111567706D01*
X88515262Y-111395000D01*
X88498251Y-111222294D01*
X88447875Y-111056226D01*
X88366068Y-110903175D01*
X88283559Y-110802638D01*
X87952362Y-110471441D01*
X87851825Y-110388932D01*
X87698774Y-110307125D01*
X87532705Y-110256749D01*
X87360000Y-110239738D01*
X87187295Y-110256749D01*
X87021226Y-110307125D01*
X86868175Y-110388932D01*
X86734026Y-110499026D01*
X86623932Y-110633175D01*
X86542125Y-110786226D01*
X86491749Y-110952295D01*
X86474738Y-111125000D01*
X86491749Y-111297705D01*
X86542125Y-111463774D01*
X86561087Y-111499249D01*
X86483810Y-111593411D01*
X86425329Y-111702821D01*
X86389317Y-111821538D01*
X86377157Y-111944999D01*
X86342843Y-111944999D01*
X86330683Y-111821538D01*
X86294671Y-111702821D01*
X86236190Y-111593411D01*
X86158913Y-111499249D01*
X86177875Y-111463774D01*
X86228251Y-111297706D01*
X86245262Y-111125000D01*
X86228251Y-110952294D01*
X86177875Y-110786225D01*
X86096068Y-110633175D01*
X85985975Y-110499025D01*
X85851825Y-110388932D01*
X85698775Y-110307125D01*
X85532706Y-110256749D01*
X85360000Y-110239738D01*
X85187294Y-110256749D01*
X85021226Y-110307125D01*
X84868175Y-110388932D01*
X84767638Y-110471441D01*
X84436441Y-110802638D01*
X84353932Y-110903175D01*
X84272125Y-111056226D01*
X84221749Y-111222295D01*
X84204738Y-111395000D01*
X84221749Y-111567705D01*
X84272125Y-111733774D01*
X84353932Y-111886825D01*
X84379784Y-111918326D01*
X84377157Y-111944999D01*
X84377157Y-112144876D01*
X84353933Y-112173175D01*
X84272126Y-112326225D01*
X84221749Y-112492294D01*
X84209001Y-112621727D01*
X84209000Y-117382175D01*
X84137704Y-117453471D01*
X84003533Y-117654271D01*
X83911115Y-117877389D01*
X83864000Y-118114250D01*
X60858780Y-118114250D01*
X60802373Y-118028882D01*
X60257443Y-117738351D01*
X59666304Y-117559713D01*
X59051672Y-117499832D01*
X58437169Y-117561010D01*
X57846408Y-117740897D01*
X57307627Y-118028882D01*
X57031457Y-118446852D01*
X56642000Y-118446852D01*
X56642000Y-94488000D01*
X60655311Y-94488000D01*
X60658000Y-94515305D01*
X60658001Y-97381686D01*
X60655311Y-97409000D01*
X60666045Y-97517994D01*
X60683702Y-97576198D01*
X60697839Y-97622801D01*
X60749467Y-97719392D01*
X60818948Y-97804053D01*
X60840162Y-97821464D01*
X61182539Y-98163842D01*
X61199947Y-98185053D01*
X61221157Y-98202460D01*
X61221160Y-98202463D01*
X61243981Y-98221192D01*
X61284608Y-98254534D01*
X61381199Y-98306162D01*
X61454211Y-98328310D01*
X61486004Y-98337955D01*
X61497040Y-98339042D01*
X61567688Y-98346000D01*
X61567694Y-98346000D01*
X61594999Y-98348689D01*
X61622304Y-98346000D01*
X61636647Y-98346000D01*
X61626157Y-98452500D01*
X61626157Y-98952500D01*
X61638077Y-99073523D01*
X61673378Y-99189895D01*
X61730704Y-99297144D01*
X61807851Y-99391149D01*
X61901856Y-99468296D01*
X61928000Y-99482270D01*
X61928001Y-102461686D01*
X61925311Y-102489000D01*
X61936045Y-102597994D01*
X61940571Y-102612913D01*
X61967839Y-102702801D01*
X62019467Y-102799392D01*
X62088948Y-102884053D01*
X62110163Y-102901464D01*
X62984035Y-103775337D01*
X63001447Y-103796553D01*
X63086108Y-103866034D01*
X63182699Y-103917662D01*
X63287505Y-103949455D01*
X63369188Y-103957500D01*
X63369195Y-103957500D01*
X63396500Y-103960189D01*
X63423804Y-103957500D01*
X63488048Y-103957500D01*
X63508704Y-103996144D01*
X63585851Y-104090149D01*
X63679856Y-104167296D01*
X63787105Y-104224622D01*
X63903477Y-104259923D01*
X64024500Y-104271843D01*
X64499500Y-104271843D01*
X64620523Y-104259923D01*
X64736895Y-104224622D01*
X64844144Y-104167296D01*
X64938149Y-104090149D01*
X65015296Y-103996144D01*
X65035952Y-103957500D01*
X66837585Y-103957500D01*
X66844378Y-103979895D01*
X66901704Y-104087144D01*
X66978851Y-104181149D01*
X67072856Y-104258296D01*
X67161500Y-104305678D01*
X67161501Y-104736322D01*
X67072856Y-104783704D01*
X66978851Y-104860851D01*
X66901704Y-104954856D01*
X66844378Y-105062105D01*
X66809077Y-105178477D01*
X66797157Y-105299500D01*
X66797157Y-105774500D01*
X66809077Y-105895523D01*
X66844378Y-106011895D01*
X66901704Y-106119144D01*
X66978851Y-106213149D01*
X67072856Y-106290296D01*
X67180105Y-106347622D01*
X67296477Y-106382923D01*
X67417500Y-106394843D01*
X67917500Y-106394843D01*
X68038523Y-106382923D01*
X68154895Y-106347622D01*
X68262144Y-106290296D01*
X68356149Y-106213149D01*
X68433296Y-106119144D01*
X68490622Y-106011895D01*
X68525923Y-105895523D01*
X68537843Y-105774500D01*
X68537843Y-105299500D01*
X68525923Y-105178477D01*
X68490622Y-105062105D01*
X68433296Y-104954856D01*
X68356149Y-104860851D01*
X68273500Y-104793024D01*
X68273500Y-104305677D01*
X68362144Y-104258296D01*
X68456149Y-104181149D01*
X68533296Y-104087144D01*
X68580000Y-103999767D01*
X68626704Y-104087144D01*
X68703851Y-104181149D01*
X68797856Y-104258296D01*
X68905105Y-104315622D01*
X68936501Y-104325146D01*
X68936500Y-104763048D01*
X68897856Y-104783704D01*
X68803851Y-104860851D01*
X68726704Y-104954856D01*
X68669378Y-105062105D01*
X68634077Y-105178477D01*
X68622157Y-105299500D01*
X68622157Y-105774500D01*
X68634077Y-105895523D01*
X68669378Y-106011895D01*
X68726704Y-106119144D01*
X68803851Y-106213149D01*
X68897856Y-106290296D01*
X69005105Y-106347622D01*
X69121477Y-106382923D01*
X69242500Y-106394843D01*
X69742500Y-106394843D01*
X69863523Y-106382923D01*
X69979895Y-106347622D01*
X70087144Y-106290296D01*
X70181149Y-106213149D01*
X70258296Y-106119144D01*
X70315622Y-106011895D01*
X70350923Y-105895523D01*
X70362843Y-105774500D01*
X70362843Y-105299500D01*
X70350923Y-105178477D01*
X70315622Y-105062105D01*
X70258296Y-104954856D01*
X70181149Y-104860851D01*
X70087144Y-104783704D01*
X70048500Y-104763048D01*
X70048500Y-104278952D01*
X70087144Y-104258296D01*
X70181149Y-104181149D01*
X70258296Y-104087144D01*
X70315622Y-103979895D01*
X70350923Y-103863523D01*
X70362843Y-103742500D01*
X70362843Y-103267500D01*
X70350923Y-103146477D01*
X70315622Y-103030105D01*
X70272805Y-102950000D01*
X71206928Y-102950000D01*
X71219188Y-103074482D01*
X71255498Y-103194180D01*
X71314463Y-103304494D01*
X71393815Y-103401185D01*
X71490506Y-103480537D01*
X71600820Y-103539502D01*
X71720518Y-103575812D01*
X71845000Y-103588072D01*
X72509250Y-103585000D01*
X72668000Y-103426250D01*
X72668000Y-102677000D01*
X72922000Y-102677000D01*
X72922000Y-103426250D01*
X73080750Y-103585000D01*
X73745000Y-103588072D01*
X73869482Y-103575812D01*
X73989180Y-103539502D01*
X74099494Y-103480537D01*
X74196185Y-103401185D01*
X74275537Y-103304494D01*
X74334502Y-103194180D01*
X74370812Y-103074482D01*
X74383072Y-102950000D01*
X74380000Y-102835750D01*
X74221250Y-102677000D01*
X72922000Y-102677000D01*
X72668000Y-102677000D01*
X71368750Y-102677000D01*
X71210000Y-102835750D01*
X71206928Y-102950000D01*
X70272805Y-102950000D01*
X70258296Y-102922856D01*
X70181149Y-102828851D01*
X70087144Y-102751704D01*
X69998500Y-102704323D01*
X69998500Y-102150000D01*
X71206928Y-102150000D01*
X71210000Y-102264250D01*
X71368750Y-102423000D01*
X72668000Y-102423000D01*
X72668000Y-101673750D01*
X72922000Y-101673750D01*
X72922000Y-102423000D01*
X74221250Y-102423000D01*
X74380000Y-102264250D01*
X74383072Y-102150000D01*
X74370812Y-102025518D01*
X74334502Y-101905820D01*
X74275537Y-101795506D01*
X74196185Y-101698815D01*
X74099494Y-101619463D01*
X73989180Y-101560498D01*
X73869482Y-101524188D01*
X73745000Y-101511928D01*
X73080750Y-101515000D01*
X72922000Y-101673750D01*
X72668000Y-101673750D01*
X72509250Y-101515000D01*
X71845000Y-101511928D01*
X71720518Y-101524188D01*
X71600820Y-101560498D01*
X71490506Y-101619463D01*
X71393815Y-101698815D01*
X71314463Y-101795506D01*
X71255498Y-101905820D01*
X71219188Y-102025518D01*
X71206928Y-102150000D01*
X69998500Y-102150000D01*
X69998500Y-101997801D01*
X70008458Y-101987843D01*
X70710000Y-101987843D01*
X70784689Y-101980487D01*
X70856508Y-101958701D01*
X70922696Y-101923322D01*
X70980711Y-101875711D01*
X71028322Y-101817696D01*
X71063701Y-101751508D01*
X71085487Y-101679689D01*
X71092843Y-101605000D01*
X71092843Y-100955000D01*
X71088222Y-100908080D01*
X71462157Y-100534145D01*
X71462157Y-101050000D01*
X71469513Y-101124689D01*
X71491299Y-101196508D01*
X71526678Y-101262696D01*
X71574289Y-101320711D01*
X71632304Y-101368322D01*
X71698492Y-101403701D01*
X71770311Y-101425487D01*
X71845000Y-101432843D01*
X73745000Y-101432843D01*
X73819689Y-101425487D01*
X73891508Y-101403701D01*
X73957696Y-101368322D01*
X74015711Y-101320711D01*
X74063322Y-101262696D01*
X74098701Y-101196508D01*
X74120487Y-101124689D01*
X74127843Y-101050000D01*
X74127843Y-100250000D01*
X74120487Y-100175311D01*
X74098701Y-100103492D01*
X74063322Y-100037304D01*
X74015711Y-99979289D01*
X73957696Y-99931678D01*
X73891508Y-99896299D01*
X73819689Y-99874513D01*
X73745000Y-99867157D01*
X73351000Y-99867157D01*
X73351000Y-98250302D01*
X73779842Y-97821460D01*
X73801053Y-97804053D01*
X73818460Y-97782843D01*
X73818463Y-97782840D01*
X73847184Y-97747843D01*
X73870534Y-97719392D01*
X73922162Y-97622801D01*
X73953955Y-97517995D01*
X73962000Y-97436312D01*
X73962000Y-97436298D01*
X73964688Y-97409001D01*
X73962000Y-97381704D01*
X73962000Y-96561270D01*
X73988144Y-96547296D01*
X74082149Y-96470149D01*
X74159296Y-96376144D01*
X74216622Y-96268895D01*
X74251923Y-96152523D01*
X74263843Y-96031500D01*
X74263843Y-95531500D01*
X74251923Y-95410477D01*
X74216622Y-95294105D01*
X74159296Y-95186856D01*
X74082149Y-95092851D01*
X73988144Y-95015704D01*
X73880895Y-94958378D01*
X73764523Y-94923077D01*
X73643500Y-94911157D01*
X73168500Y-94911157D01*
X73047477Y-94923077D01*
X72931105Y-94958378D01*
X72823856Y-95015704D01*
X72729851Y-95092851D01*
X72652704Y-95186856D01*
X72595378Y-95294105D01*
X72560077Y-95410477D01*
X72548157Y-95531500D01*
X72548157Y-96031500D01*
X72560077Y-96152523D01*
X72595378Y-96268895D01*
X72652704Y-96376144D01*
X72729851Y-96470149D01*
X72823856Y-96547296D01*
X72850000Y-96561271D01*
X72850001Y-97178697D01*
X72421167Y-97607532D01*
X72399947Y-97624947D01*
X72330466Y-97709608D01*
X72278838Y-97806200D01*
X72247045Y-97911006D01*
X72239000Y-97992689D01*
X72239000Y-97992696D01*
X72236311Y-98020000D01*
X72239000Y-98047305D01*
X72239001Y-99867157D01*
X71845000Y-99867157D01*
X71770311Y-99874513D01*
X71698492Y-99896299D01*
X71676000Y-99908321D01*
X71676000Y-97412805D01*
X71678689Y-97385500D01*
X71676000Y-97358195D01*
X71676000Y-97358188D01*
X71667955Y-97276505D01*
X71636162Y-97171699D01*
X71636162Y-97171698D01*
X71584534Y-97075108D01*
X71532464Y-97011661D01*
X71532460Y-97011657D01*
X71515053Y-96990447D01*
X71493843Y-96973040D01*
X70362843Y-95842041D01*
X70362843Y-95520500D01*
X70350923Y-95399477D01*
X70315622Y-95283105D01*
X70258296Y-95175856D01*
X70181149Y-95081851D01*
X70174724Y-95076578D01*
X70738802Y-94512500D01*
X72632048Y-94512500D01*
X72652704Y-94551144D01*
X72729851Y-94645149D01*
X72823856Y-94722296D01*
X72931105Y-94779622D01*
X73047477Y-94814923D01*
X73168500Y-94826843D01*
X73643500Y-94826843D01*
X73764523Y-94814923D01*
X73880895Y-94779622D01*
X73988144Y-94722296D01*
X74082149Y-94645149D01*
X74159296Y-94551144D01*
X74216622Y-94443895D01*
X74251923Y-94327523D01*
X74263843Y-94206500D01*
X74263843Y-93706500D01*
X74251923Y-93585477D01*
X74216622Y-93469105D01*
X74159296Y-93361856D01*
X74082149Y-93267851D01*
X73988144Y-93190704D01*
X73880895Y-93133378D01*
X73764523Y-93098077D01*
X73643500Y-93086157D01*
X73168500Y-93086157D01*
X73047477Y-93098077D01*
X72931105Y-93133378D01*
X72823856Y-93190704D01*
X72729851Y-93267851D01*
X72652704Y-93361856D01*
X72632048Y-93400500D01*
X71215802Y-93400500D01*
X72128843Y-92487460D01*
X72150053Y-92470053D01*
X72167460Y-92448843D01*
X72167463Y-92448840D01*
X72186192Y-92426019D01*
X72219534Y-92385392D01*
X72271162Y-92288801D01*
X72302955Y-92183995D01*
X72311000Y-92102312D01*
X72311000Y-92102306D01*
X72313689Y-92075001D01*
X72311000Y-92047696D01*
X72311000Y-87225301D01*
X72406302Y-87130000D01*
X73012157Y-87130000D01*
X73012157Y-88324000D01*
X73019513Y-88398689D01*
X73041299Y-88470508D01*
X73076678Y-88536696D01*
X73124289Y-88594711D01*
X73182304Y-88642322D01*
X73248492Y-88677701D01*
X73320311Y-88699487D01*
X73395000Y-88706843D01*
X73739001Y-88706843D01*
X73739001Y-89507686D01*
X73736311Y-89535000D01*
X73747045Y-89643994D01*
X73778839Y-89748801D01*
X73830467Y-89845392D01*
X73899948Y-89930053D01*
X73921163Y-89947464D01*
X74614000Y-90640302D01*
X74614000Y-90646004D01*
X74537856Y-90686704D01*
X74443851Y-90763851D01*
X74366704Y-90857856D01*
X74309378Y-90965105D01*
X74295000Y-91012503D01*
X74280622Y-90965105D01*
X74223296Y-90857856D01*
X74146149Y-90763851D01*
X74052144Y-90686704D01*
X73944895Y-90629378D01*
X73828523Y-90594077D01*
X73707500Y-90582157D01*
X73132500Y-90582157D01*
X73011477Y-90594077D01*
X72895105Y-90629378D01*
X72787856Y-90686704D01*
X72693851Y-90763851D01*
X72616704Y-90857856D01*
X72559378Y-90965105D01*
X72524077Y-91081477D01*
X72512157Y-91202500D01*
X72512157Y-91677500D01*
X72524077Y-91798523D01*
X72559378Y-91914895D01*
X72616704Y-92022144D01*
X72693851Y-92116149D01*
X72787856Y-92193296D01*
X72895105Y-92250622D01*
X73011477Y-92285923D01*
X73132500Y-92297843D01*
X73491541Y-92297843D01*
X74486980Y-93293283D01*
X74430704Y-93361856D01*
X74373378Y-93469105D01*
X74338077Y-93585477D01*
X74326157Y-93706500D01*
X74326157Y-94206500D01*
X74338077Y-94327523D01*
X74373378Y-94443895D01*
X74430704Y-94551144D01*
X74507851Y-94645149D01*
X74601856Y-94722296D01*
X74709105Y-94779622D01*
X74825477Y-94814923D01*
X74946500Y-94826843D01*
X75421500Y-94826843D01*
X75542523Y-94814923D01*
X75658895Y-94779622D01*
X75766144Y-94722296D01*
X75860149Y-94645149D01*
X75937296Y-94551144D01*
X75994622Y-94443895D01*
X76029923Y-94327523D01*
X76041843Y-94206500D01*
X76041843Y-93706500D01*
X76029923Y-93585477D01*
X75994622Y-93469105D01*
X75937296Y-93361856D01*
X75860149Y-93267851D01*
X75766144Y-93190704D01*
X75740004Y-93176732D01*
X75740000Y-93176695D01*
X75740000Y-93176688D01*
X75731955Y-93095005D01*
X75700162Y-92990199D01*
X75648534Y-92893608D01*
X75618626Y-92857166D01*
X75596464Y-92830161D01*
X75596460Y-92830157D01*
X75579053Y-92808947D01*
X75557843Y-92791540D01*
X75064145Y-92297843D01*
X75457500Y-92297843D01*
X75578523Y-92285923D01*
X75694895Y-92250622D01*
X75802144Y-92193296D01*
X75896149Y-92116149D01*
X75973296Y-92022144D01*
X76030622Y-91914895D01*
X76065923Y-91798523D01*
X76077843Y-91677500D01*
X76077843Y-91202500D01*
X76065923Y-91081477D01*
X76030622Y-90965105D01*
X75973296Y-90857856D01*
X75896149Y-90763851D01*
X75802144Y-90686704D01*
X75726000Y-90646004D01*
X75726000Y-90437304D01*
X75728689Y-90410000D01*
X75726000Y-90382695D01*
X75726000Y-90382688D01*
X75717955Y-90301005D01*
X75686162Y-90196199D01*
X75634534Y-90099608D01*
X75565053Y-90014947D01*
X75543837Y-89997535D01*
X74851000Y-89304699D01*
X74851000Y-88706843D01*
X75195000Y-88706843D01*
X75269689Y-88699487D01*
X75341508Y-88677701D01*
X75407696Y-88642322D01*
X75465711Y-88594711D01*
X75513322Y-88536696D01*
X75548701Y-88470508D01*
X75570487Y-88398689D01*
X75577843Y-88324000D01*
X75577843Y-87455000D01*
X76684079Y-87455000D01*
X78494000Y-89264922D01*
X78494001Y-98381720D01*
X78489738Y-98425000D01*
X78506749Y-98597705D01*
X78557125Y-98763774D01*
X78638932Y-98916825D01*
X78707085Y-98999869D01*
X78749026Y-99050975D01*
X78782640Y-99078561D01*
X79991439Y-100287361D01*
X80019025Y-100320975D01*
X80052637Y-100348559D01*
X80153174Y-100431068D01*
X80201690Y-100457000D01*
X80306225Y-100512875D01*
X80472294Y-100563252D01*
X80601727Y-100576000D01*
X80601729Y-100576000D01*
X80644999Y-100580262D01*
X80688269Y-100576000D01*
X80765353Y-100576000D01*
X80738587Y-100587087D01*
X80551380Y-100712174D01*
X80544554Y-100719000D01*
X76351000Y-100719000D01*
X76351000Y-99317296D01*
X76353688Y-99289999D01*
X76351000Y-99262702D01*
X76351000Y-99262688D01*
X76342955Y-99181005D01*
X76311162Y-99076199D01*
X76259534Y-98979608D01*
X76208533Y-98917464D01*
X76207463Y-98916160D01*
X76207460Y-98916157D01*
X76190053Y-98894947D01*
X76168842Y-98877540D01*
X75740000Y-98448698D01*
X75740000Y-96561270D01*
X75766144Y-96547296D01*
X75860149Y-96470149D01*
X75937296Y-96376144D01*
X75994622Y-96268895D01*
X76029923Y-96152523D01*
X76041843Y-96031500D01*
X76041843Y-95531500D01*
X76029923Y-95410477D01*
X75994622Y-95294105D01*
X75937296Y-95186856D01*
X75860149Y-95092851D01*
X75766144Y-95015704D01*
X75658895Y-94958378D01*
X75542523Y-94923077D01*
X75421500Y-94911157D01*
X74946500Y-94911157D01*
X74825477Y-94923077D01*
X74709105Y-94958378D01*
X74601856Y-95015704D01*
X74507851Y-95092851D01*
X74430704Y-95186856D01*
X74373378Y-95294105D01*
X74338077Y-95410477D01*
X74326157Y-95531500D01*
X74326157Y-96031500D01*
X74338077Y-96152523D01*
X74373378Y-96268895D01*
X74430704Y-96376144D01*
X74507851Y-96470149D01*
X74601856Y-96547296D01*
X74628000Y-96561270D01*
X74628001Y-98651686D01*
X74625311Y-98679000D01*
X74636045Y-98787994D01*
X74663084Y-98877125D01*
X74667839Y-98892801D01*
X74719467Y-98989392D01*
X74788948Y-99074053D01*
X74810163Y-99091464D01*
X75239000Y-99520303D01*
X75239001Y-100817157D01*
X74845000Y-100817157D01*
X74770311Y-100824513D01*
X74698492Y-100846299D01*
X74632304Y-100881678D01*
X74574289Y-100929289D01*
X74526678Y-100987304D01*
X74491299Y-101053492D01*
X74469513Y-101125311D01*
X74462157Y-101200000D01*
X74462157Y-102000000D01*
X74469513Y-102074689D01*
X74491299Y-102146508D01*
X74526678Y-102212696D01*
X74574289Y-102270711D01*
X74632304Y-102318322D01*
X74698492Y-102353701D01*
X74770311Y-102375487D01*
X74845000Y-102382843D01*
X75390685Y-102382843D01*
X75456225Y-102417875D01*
X75622294Y-102468252D01*
X75751727Y-102481000D01*
X80399000Y-102481000D01*
X80399001Y-103841720D01*
X80394738Y-103885000D01*
X80407989Y-104019534D01*
X80411749Y-104057706D01*
X80415831Y-104071162D01*
X80462125Y-104223774D01*
X80543932Y-104376825D01*
X80612085Y-104459869D01*
X80654026Y-104510975D01*
X80687640Y-104538561D01*
X81289000Y-105139922D01*
X81289000Y-105621730D01*
X81284738Y-105665000D01*
X81289000Y-105708270D01*
X81289000Y-105708273D01*
X81301749Y-105837706D01*
X81315202Y-105882053D01*
X81352125Y-106003774D01*
X81433932Y-106156825D01*
X81480156Y-106213149D01*
X81544026Y-106290975D01*
X81577640Y-106318561D01*
X82531439Y-107272361D01*
X82559025Y-107305975D01*
X82592637Y-107333559D01*
X82693174Y-107416068D01*
X82846225Y-107497875D01*
X83012294Y-107548252D01*
X83141727Y-107561000D01*
X83141730Y-107561000D01*
X83185000Y-107565262D01*
X83228270Y-107561000D01*
X91396730Y-107561000D01*
X91440000Y-107565262D01*
X91483270Y-107561000D01*
X91483273Y-107561000D01*
X91612706Y-107548252D01*
X91778775Y-107497875D01*
X91931825Y-107416068D01*
X92065975Y-107305975D01*
X92093565Y-107272356D01*
X92922362Y-106443560D01*
X92955975Y-106415975D01*
X93017320Y-106341225D01*
X93066068Y-106281826D01*
X93147875Y-106128775D01*
X93157911Y-106095690D01*
X93198252Y-105962706D01*
X93211000Y-105833273D01*
X93211000Y-105833271D01*
X93215262Y-105790001D01*
X93211000Y-105746731D01*
X93211000Y-104818269D01*
X93215262Y-104774999D01*
X93205822Y-104679157D01*
X93198252Y-104602294D01*
X93162843Y-104485567D01*
X93162843Y-104175000D01*
X93155487Y-104100311D01*
X93133701Y-104028492D01*
X93098322Y-103962304D01*
X93050711Y-103904289D01*
X92992696Y-103856678D01*
X92926508Y-103821299D01*
X92854689Y-103799513D01*
X92780000Y-103792157D01*
X92593079Y-103792157D01*
X92321000Y-103520079D01*
X92321000Y-102335446D01*
X92327826Y-102328620D01*
X92452913Y-102141413D01*
X92539075Y-101933401D01*
X92583000Y-101712576D01*
X92583000Y-101487424D01*
X92539075Y-101266599D01*
X92452913Y-101058587D01*
X92327826Y-100871380D01*
X92168620Y-100712174D01*
X91981413Y-100587087D01*
X91954647Y-100576000D01*
X94250079Y-100576000D01*
X95377000Y-101702922D01*
X95377000Y-101712576D01*
X95420925Y-101933401D01*
X95507087Y-102141413D01*
X95632174Y-102328620D01*
X95639000Y-102335446D01*
X95639001Y-103520077D01*
X95366922Y-103792157D01*
X95180000Y-103792157D01*
X95105311Y-103799513D01*
X95033492Y-103821299D01*
X94967304Y-103856678D01*
X94909289Y-103904289D01*
X94861678Y-103962304D01*
X94826299Y-104028492D01*
X94804513Y-104100311D01*
X94797157Y-104175000D01*
X94797157Y-104485569D01*
X94761749Y-104602295D01*
X94744738Y-104775000D01*
X94761749Y-104947705D01*
X94797157Y-105064431D01*
X94797157Y-105375000D01*
X94804513Y-105449689D01*
X94826299Y-105521508D01*
X94861678Y-105587696D01*
X94909289Y-105645711D01*
X94967304Y-105693322D01*
X95033492Y-105728701D01*
X95105311Y-105750487D01*
X95180000Y-105757843D01*
X96080000Y-105757843D01*
X96154689Y-105750487D01*
X96226508Y-105728701D01*
X96292696Y-105693322D01*
X96350711Y-105645711D01*
X96398322Y-105587696D01*
X96433701Y-105521508D01*
X96455487Y-105449689D01*
X96462843Y-105375000D01*
X96462843Y-105188078D01*
X97112360Y-104538561D01*
X97145975Y-104510975D01*
X97207320Y-104436225D01*
X97256068Y-104376826D01*
X97337875Y-104223775D01*
X97350354Y-104182637D01*
X97388252Y-104057706D01*
X97401000Y-103928273D01*
X97401000Y-103928271D01*
X97405262Y-103885001D01*
X97401000Y-103841731D01*
X97401000Y-102335446D01*
X97407826Y-102328620D01*
X97532913Y-102141413D01*
X97619075Y-101933401D01*
X97663000Y-101712576D01*
X97663000Y-101487424D01*
X97619075Y-101266599D01*
X97532913Y-101058587D01*
X97407826Y-100871380D01*
X97248620Y-100712174D01*
X97061413Y-100587087D01*
X96853401Y-100500925D01*
X96632576Y-100457000D01*
X96622922Y-100457000D01*
X95268566Y-99102645D01*
X95240975Y-99069025D01*
X95106825Y-98958932D01*
X94953775Y-98877125D01*
X94787706Y-98826748D01*
X94658273Y-98814000D01*
X94658270Y-98814000D01*
X94615000Y-98809738D01*
X94571730Y-98814000D01*
X88308270Y-98814000D01*
X88265000Y-98809738D01*
X88221730Y-98814000D01*
X88221727Y-98814000D01*
X88092294Y-98826748D01*
X87926225Y-98877125D01*
X87773174Y-98958932D01*
X87747124Y-98980311D01*
X87639025Y-99069025D01*
X87611441Y-99102637D01*
X86360000Y-100354078D01*
X85108566Y-99102645D01*
X85080975Y-99069025D01*
X84946825Y-98958932D01*
X84793775Y-98877125D01*
X84627706Y-98826748D01*
X84498273Y-98814000D01*
X84498270Y-98814000D01*
X84455000Y-98809738D01*
X84411730Y-98814000D01*
X81009922Y-98814000D01*
X80256000Y-98060079D01*
X80256000Y-97034647D01*
X80267087Y-97061413D01*
X80392174Y-97248620D01*
X80551380Y-97407826D01*
X80738587Y-97532913D01*
X80946599Y-97619075D01*
X81167424Y-97663000D01*
X81392576Y-97663000D01*
X81613401Y-97619075D01*
X81821413Y-97532913D01*
X82008620Y-97407826D01*
X82015446Y-97401000D01*
X85624554Y-97401000D01*
X85631380Y-97407826D01*
X85818587Y-97532913D01*
X86026599Y-97619075D01*
X86247424Y-97663000D01*
X86472576Y-97663000D01*
X86693401Y-97619075D01*
X86901413Y-97532913D01*
X87088620Y-97407826D01*
X87247826Y-97248620D01*
X87372913Y-97061413D01*
X87459075Y-96853401D01*
X87503000Y-96632576D01*
X87503000Y-96407424D01*
X90297000Y-96407424D01*
X90297000Y-96632576D01*
X90340925Y-96853401D01*
X90427087Y-97061413D01*
X90552174Y-97248620D01*
X90711380Y-97407826D01*
X90898587Y-97532913D01*
X91106599Y-97619075D01*
X91327424Y-97663000D01*
X91552576Y-97663000D01*
X91773401Y-97619075D01*
X91981413Y-97532913D01*
X92168620Y-97407826D01*
X92175446Y-97401000D01*
X95784554Y-97401000D01*
X95791380Y-97407826D01*
X95978587Y-97532913D01*
X96186599Y-97619075D01*
X96407424Y-97663000D01*
X96632576Y-97663000D01*
X96853401Y-97619075D01*
X97061413Y-97532913D01*
X97248620Y-97407826D01*
X97407826Y-97248620D01*
X97532913Y-97061413D01*
X97619075Y-96853401D01*
X97663000Y-96632576D01*
X97663000Y-96407424D01*
X97619075Y-96186599D01*
X97532913Y-95978587D01*
X97407826Y-95791380D01*
X97248620Y-95632174D01*
X97061413Y-95507087D01*
X96853401Y-95420925D01*
X96632576Y-95377000D01*
X96407424Y-95377000D01*
X96186599Y-95420925D01*
X95978587Y-95507087D01*
X95791380Y-95632174D01*
X95784554Y-95639000D01*
X92175446Y-95639000D01*
X92168620Y-95632174D01*
X91981413Y-95507087D01*
X91773401Y-95420925D01*
X91552576Y-95377000D01*
X91327424Y-95377000D01*
X91106599Y-95420925D01*
X90898587Y-95507087D01*
X90711380Y-95632174D01*
X90552174Y-95791380D01*
X90427087Y-95978587D01*
X90340925Y-96186599D01*
X90297000Y-96407424D01*
X87503000Y-96407424D01*
X87459075Y-96186599D01*
X87372913Y-95978587D01*
X87247826Y-95791380D01*
X87088620Y-95632174D01*
X86901413Y-95507087D01*
X86693401Y-95420925D01*
X86472576Y-95377000D01*
X86247424Y-95377000D01*
X86026599Y-95420925D01*
X85818587Y-95507087D01*
X85631380Y-95632174D01*
X85624554Y-95639000D01*
X82015446Y-95639000D01*
X82008620Y-95632174D01*
X81821413Y-95507087D01*
X81613401Y-95420925D01*
X81392576Y-95377000D01*
X81167424Y-95377000D01*
X80946599Y-95420925D01*
X80738587Y-95507087D01*
X80551380Y-95632174D01*
X80392174Y-95791380D01*
X80267087Y-95978587D01*
X80256000Y-96005353D01*
X80256000Y-94494647D01*
X80267087Y-94521413D01*
X80392174Y-94708620D01*
X80551380Y-94867826D01*
X80738587Y-94992913D01*
X80946599Y-95079075D01*
X81167424Y-95123000D01*
X81392576Y-95123000D01*
X81613401Y-95079075D01*
X81821413Y-94992913D01*
X82008620Y-94867826D01*
X82167826Y-94708620D01*
X82292913Y-94521413D01*
X82379075Y-94313401D01*
X82423000Y-94092576D01*
X82423000Y-93867424D01*
X85217000Y-93867424D01*
X85217000Y-94092576D01*
X85260925Y-94313401D01*
X85347087Y-94521413D01*
X85472174Y-94708620D01*
X85631380Y-94867826D01*
X85818587Y-94992913D01*
X86026599Y-95079075D01*
X86247424Y-95123000D01*
X86472576Y-95123000D01*
X86693401Y-95079075D01*
X86901413Y-94992913D01*
X87088620Y-94867826D01*
X87247826Y-94708620D01*
X87372913Y-94521413D01*
X87459075Y-94313401D01*
X87503000Y-94092576D01*
X87503000Y-93867424D01*
X90297000Y-93867424D01*
X90297000Y-94092576D01*
X90340925Y-94313401D01*
X90427087Y-94521413D01*
X90552174Y-94708620D01*
X90711380Y-94867826D01*
X90898587Y-94992913D01*
X91106599Y-95079075D01*
X91327424Y-95123000D01*
X91552576Y-95123000D01*
X91773401Y-95079075D01*
X91981413Y-94992913D01*
X92168620Y-94867826D01*
X92327826Y-94708620D01*
X92452913Y-94521413D01*
X92539075Y-94313401D01*
X92583000Y-94092576D01*
X92583000Y-93867424D01*
X95377000Y-93867424D01*
X95377000Y-94092576D01*
X95420925Y-94313401D01*
X95507087Y-94521413D01*
X95632174Y-94708620D01*
X95791380Y-94867826D01*
X95978587Y-94992913D01*
X96186599Y-95079075D01*
X96407424Y-95123000D01*
X96632576Y-95123000D01*
X96853401Y-95079075D01*
X97061413Y-94992913D01*
X97248620Y-94867826D01*
X97407826Y-94708620D01*
X97532913Y-94521413D01*
X97619075Y-94313401D01*
X97663000Y-94092576D01*
X97663000Y-93867424D01*
X97619075Y-93646599D01*
X97532913Y-93438587D01*
X97407826Y-93251380D01*
X97248620Y-93092174D01*
X97061413Y-92967087D01*
X96853401Y-92880925D01*
X96632576Y-92837000D01*
X96407424Y-92837000D01*
X96186599Y-92880925D01*
X95978587Y-92967087D01*
X95791380Y-93092174D01*
X95632174Y-93251380D01*
X95507087Y-93438587D01*
X95420925Y-93646599D01*
X95377000Y-93867424D01*
X92583000Y-93867424D01*
X92539075Y-93646599D01*
X92452913Y-93438587D01*
X92327826Y-93251380D01*
X92168620Y-93092174D01*
X91981413Y-92967087D01*
X91773401Y-92880925D01*
X91552576Y-92837000D01*
X91327424Y-92837000D01*
X91106599Y-92880925D01*
X90898587Y-92967087D01*
X90711380Y-93092174D01*
X90552174Y-93251380D01*
X90427087Y-93438587D01*
X90340925Y-93646599D01*
X90297000Y-93867424D01*
X87503000Y-93867424D01*
X87459075Y-93646599D01*
X87372913Y-93438587D01*
X87247826Y-93251380D01*
X87088620Y-93092174D01*
X86901413Y-92967087D01*
X86693401Y-92880925D01*
X86472576Y-92837000D01*
X86247424Y-92837000D01*
X86026599Y-92880925D01*
X85818587Y-92967087D01*
X85631380Y-93092174D01*
X85472174Y-93251380D01*
X85347087Y-93438587D01*
X85260925Y-93646599D01*
X85217000Y-93867424D01*
X82423000Y-93867424D01*
X82379075Y-93646599D01*
X82292913Y-93438587D01*
X82167826Y-93251380D01*
X82008620Y-93092174D01*
X81821413Y-92967087D01*
X81613401Y-92880925D01*
X81392576Y-92837000D01*
X81167424Y-92837000D01*
X80946599Y-92880925D01*
X80738587Y-92967087D01*
X80551380Y-93092174D01*
X80392174Y-93251380D01*
X80267087Y-93438587D01*
X80256000Y-93465353D01*
X80256000Y-91954647D01*
X80267087Y-91981413D01*
X80392174Y-92168620D01*
X80551380Y-92327826D01*
X80738587Y-92452913D01*
X80946599Y-92539075D01*
X81167424Y-92583000D01*
X81392576Y-92583000D01*
X81613401Y-92539075D01*
X81821413Y-92452913D01*
X82008620Y-92327826D01*
X82167826Y-92168620D01*
X82292913Y-91981413D01*
X82379075Y-91773401D01*
X82423000Y-91552576D01*
X82423000Y-91327424D01*
X85217000Y-91327424D01*
X85217000Y-91552576D01*
X85260925Y-91773401D01*
X85347087Y-91981413D01*
X85472174Y-92168620D01*
X85631380Y-92327826D01*
X85818587Y-92452913D01*
X86026599Y-92539075D01*
X86247424Y-92583000D01*
X86472576Y-92583000D01*
X86693401Y-92539075D01*
X86901413Y-92452913D01*
X87088620Y-92327826D01*
X87247826Y-92168620D01*
X87372913Y-91981413D01*
X87459075Y-91773401D01*
X87503000Y-91552576D01*
X87503000Y-91542921D01*
X88222361Y-90823561D01*
X88255975Y-90795975D01*
X88338017Y-90696006D01*
X88366068Y-90661826D01*
X88442276Y-90519250D01*
X88447875Y-90508775D01*
X88498252Y-90342706D01*
X88511000Y-90213273D01*
X88511000Y-90213271D01*
X88515262Y-90170001D01*
X88511000Y-90126731D01*
X88511000Y-84797825D01*
X88582296Y-84726529D01*
X88716467Y-84525729D01*
X88808885Y-84302611D01*
X88856000Y-84065750D01*
X88856000Y-83824250D01*
X88944000Y-83824250D01*
X88944000Y-84065750D01*
X88991115Y-84302611D01*
X89083533Y-84525729D01*
X89217704Y-84726529D01*
X89289000Y-84797825D01*
X89289001Y-90126720D01*
X89284738Y-90170000D01*
X89293312Y-90257045D01*
X89301749Y-90342706D01*
X89313878Y-90382688D01*
X89352125Y-90508774D01*
X89433932Y-90661825D01*
X89461984Y-90696006D01*
X89544026Y-90795975D01*
X89577640Y-90823561D01*
X90297000Y-91542922D01*
X90297000Y-91552576D01*
X90340925Y-91773401D01*
X90427087Y-91981413D01*
X90552174Y-92168620D01*
X90711380Y-92327826D01*
X90898587Y-92452913D01*
X91106599Y-92539075D01*
X91327424Y-92583000D01*
X91552576Y-92583000D01*
X91773401Y-92539075D01*
X91981413Y-92452913D01*
X92168620Y-92327826D01*
X92327826Y-92168620D01*
X92452913Y-91981413D01*
X92539075Y-91773401D01*
X92583000Y-91552576D01*
X92583000Y-91327424D01*
X92539075Y-91106599D01*
X92452913Y-90898587D01*
X92327826Y-90711380D01*
X92168620Y-90552174D01*
X91981413Y-90427087D01*
X91773401Y-90340925D01*
X91552576Y-90297000D01*
X91542922Y-90297000D01*
X91051000Y-89805079D01*
X91051000Y-84797825D01*
X91122296Y-84726529D01*
X91256467Y-84525729D01*
X91348885Y-84302611D01*
X91396000Y-84065750D01*
X91396000Y-83824250D01*
X91348885Y-83587389D01*
X91256467Y-83364271D01*
X91122296Y-83163471D01*
X91058825Y-83100000D01*
X91482157Y-83100000D01*
X91482157Y-84790000D01*
X91489513Y-84864689D01*
X91511299Y-84936508D01*
X91546678Y-85002696D01*
X91594289Y-85060711D01*
X91652304Y-85108322D01*
X91718492Y-85143701D01*
X91790311Y-85165487D01*
X91865000Y-85172843D01*
X92816922Y-85172843D01*
X95639000Y-87994922D01*
X95639001Y-90704553D01*
X95632174Y-90711380D01*
X95507087Y-90898587D01*
X95420925Y-91106599D01*
X95377000Y-91327424D01*
X95377000Y-91552576D01*
X95420925Y-91773401D01*
X95507087Y-91981413D01*
X95632174Y-92168620D01*
X95791380Y-92327826D01*
X95978587Y-92452913D01*
X96186599Y-92539075D01*
X96407424Y-92583000D01*
X96632576Y-92583000D01*
X96853401Y-92539075D01*
X97061413Y-92452913D01*
X97248620Y-92327826D01*
X97407826Y-92168620D01*
X97532913Y-91981413D01*
X97619075Y-91773401D01*
X97663000Y-91552576D01*
X97663000Y-91327424D01*
X97619075Y-91106599D01*
X97532913Y-90898587D01*
X97407826Y-90711380D01*
X97401000Y-90704554D01*
X97401000Y-87673270D01*
X97405262Y-87630000D01*
X97397746Y-87553689D01*
X97388252Y-87457294D01*
X97337875Y-87291225D01*
X97256068Y-87138174D01*
X97196692Y-87065825D01*
X97145975Y-87004025D01*
X97112362Y-86976440D01*
X93937843Y-83801922D01*
X93937843Y-83100000D01*
X93930487Y-83025311D01*
X93908701Y-82953492D01*
X93873322Y-82887304D01*
X93825711Y-82829289D01*
X93767696Y-82781678D01*
X93701508Y-82746299D01*
X93629689Y-82724513D01*
X93555000Y-82717157D01*
X91865000Y-82717157D01*
X91790311Y-82724513D01*
X91718492Y-82746299D01*
X91652304Y-82781678D01*
X91594289Y-82829289D01*
X91546678Y-82887304D01*
X91511299Y-82953492D01*
X91489513Y-83025311D01*
X91482157Y-83100000D01*
X91058825Y-83100000D01*
X90951529Y-82992704D01*
X90750729Y-82858533D01*
X90527611Y-82766115D01*
X90290750Y-82719000D01*
X90049250Y-82719000D01*
X89812389Y-82766115D01*
X89589271Y-82858533D01*
X89388471Y-82992704D01*
X89217704Y-83163471D01*
X89083533Y-83364271D01*
X88991115Y-83587389D01*
X88944000Y-83824250D01*
X88856000Y-83824250D01*
X88808885Y-83587389D01*
X88716467Y-83364271D01*
X88582296Y-83163471D01*
X88411529Y-82992704D01*
X88210729Y-82858533D01*
X87987611Y-82766115D01*
X87750750Y-82719000D01*
X87509250Y-82719000D01*
X87272389Y-82766115D01*
X87049271Y-82858533D01*
X86848471Y-82992704D01*
X86677704Y-83163471D01*
X86543533Y-83364271D01*
X86451115Y-83587389D01*
X86404000Y-83824250D01*
X86404000Y-84065750D01*
X86451115Y-84302611D01*
X86543533Y-84525729D01*
X86677704Y-84726529D01*
X86749000Y-84797825D01*
X86749001Y-89805077D01*
X86257079Y-90297000D01*
X86247424Y-90297000D01*
X86026599Y-90340925D01*
X85818587Y-90427087D01*
X85631380Y-90552174D01*
X85472174Y-90711380D01*
X85347087Y-90898587D01*
X85260925Y-91106599D01*
X85217000Y-91327424D01*
X82423000Y-91327424D01*
X82379075Y-91106599D01*
X82292913Y-90898587D01*
X82167826Y-90711380D01*
X82161000Y-90704554D01*
X82161000Y-88119921D01*
X85109922Y-85171000D01*
X85210750Y-85171000D01*
X85447611Y-85123885D01*
X85670729Y-85031467D01*
X85871529Y-84897296D01*
X86042296Y-84726529D01*
X86176467Y-84525729D01*
X86268885Y-84302611D01*
X86316000Y-84065750D01*
X86316000Y-83824250D01*
X86268885Y-83587389D01*
X86176467Y-83364271D01*
X86042296Y-83163471D01*
X85871529Y-82992704D01*
X85670729Y-82858533D01*
X85447611Y-82766115D01*
X85210750Y-82719000D01*
X84969250Y-82719000D01*
X84732389Y-82766115D01*
X84509271Y-82858533D01*
X84308471Y-82992704D01*
X84137704Y-83163471D01*
X84003533Y-83364271D01*
X83911115Y-83587389D01*
X83864000Y-83824250D01*
X83864000Y-83925078D01*
X80687645Y-87101434D01*
X80654025Y-87129025D01*
X80595799Y-87199975D01*
X80543932Y-87263175D01*
X80476115Y-87390053D01*
X80462125Y-87416226D01*
X80411748Y-87582295D01*
X80399000Y-87711727D01*
X80394738Y-87755000D01*
X80399000Y-87798270D01*
X80399001Y-90704553D01*
X80392174Y-90711380D01*
X80267087Y-90898587D01*
X80256000Y-90925353D01*
X80256000Y-88943270D01*
X80260262Y-88900000D01*
X80256000Y-88856727D01*
X80243252Y-88727294D01*
X80192875Y-88561225D01*
X80159215Y-88498251D01*
X80111068Y-88408174D01*
X80028559Y-88307637D01*
X80000975Y-88274025D01*
X79967362Y-88246440D01*
X77702566Y-85981645D01*
X77674975Y-85948025D01*
X77540825Y-85837932D01*
X77387775Y-85756125D01*
X77221706Y-85705748D01*
X77092273Y-85693000D01*
X77092270Y-85693000D01*
X77049000Y-85688738D01*
X77005730Y-85693000D01*
X75577843Y-85693000D01*
X75577843Y-84824000D01*
X75570487Y-84749311D01*
X75548701Y-84677492D01*
X75513322Y-84611304D01*
X75465711Y-84553289D01*
X75407696Y-84505678D01*
X75341508Y-84470299D01*
X75269689Y-84448513D01*
X75195000Y-84441157D01*
X73395000Y-84441157D01*
X73320311Y-84448513D01*
X73248492Y-84470299D01*
X73182304Y-84505678D01*
X73124289Y-84553289D01*
X73076678Y-84611304D01*
X73041299Y-84677492D01*
X73019513Y-84749311D01*
X73012157Y-84824000D01*
X73012157Y-86018000D01*
X72203304Y-86018000D01*
X72176000Y-86015311D01*
X72148695Y-86018000D01*
X72148688Y-86018000D01*
X72067005Y-86026045D01*
X71962199Y-86057838D01*
X71865608Y-86109466D01*
X71780947Y-86178947D01*
X71763535Y-86200163D01*
X71381168Y-86582531D01*
X71359947Y-86599947D01*
X71290466Y-86684608D01*
X71238838Y-86781200D01*
X71207045Y-86886006D01*
X71199000Y-86967689D01*
X71199000Y-86967696D01*
X71196311Y-86995000D01*
X71199000Y-87022304D01*
X71199001Y-91844696D01*
X70254699Y-92789000D01*
X68607304Y-92789000D01*
X68580000Y-92786311D01*
X68552695Y-92789000D01*
X68552688Y-92789000D01*
X68471005Y-92797045D01*
X68366199Y-92828838D01*
X68269608Y-92880466D01*
X68184947Y-92949947D01*
X68167536Y-92971162D01*
X67293668Y-93845031D01*
X67272447Y-93862447D01*
X67202966Y-93947108D01*
X67151338Y-94043700D01*
X67119545Y-94148506D01*
X67111500Y-94230189D01*
X67111500Y-94230196D01*
X67108811Y-94257500D01*
X67111500Y-94284805D01*
X67111500Y-94984048D01*
X67072856Y-95004704D01*
X66978851Y-95081851D01*
X66901704Y-95175856D01*
X66887730Y-95202000D01*
X66194304Y-95202000D01*
X66166999Y-95199311D01*
X66139695Y-95202000D01*
X66139688Y-95202000D01*
X66058005Y-95210045D01*
X65953199Y-95241838D01*
X65856608Y-95293466D01*
X65771947Y-95362947D01*
X65754535Y-95384163D01*
X64943422Y-96195277D01*
X64938149Y-96188851D01*
X64844144Y-96111704D01*
X64736895Y-96054378D01*
X64620523Y-96019077D01*
X64499500Y-96007157D01*
X64024500Y-96007157D01*
X63903477Y-96019077D01*
X63787105Y-96054378D01*
X63679856Y-96111704D01*
X63585851Y-96188851D01*
X63508704Y-96282856D01*
X63488048Y-96321500D01*
X63257952Y-96321500D01*
X63237296Y-96282856D01*
X63160149Y-96188851D01*
X63066144Y-96111704D01*
X62958895Y-96054378D01*
X62842523Y-96019077D01*
X62721500Y-96007157D01*
X62246500Y-96007157D01*
X62125477Y-96019077D01*
X62009105Y-96054378D01*
X61901856Y-96111704D01*
X61807851Y-96188851D01*
X61770000Y-96234973D01*
X61770000Y-94718301D01*
X63913843Y-92574460D01*
X63935053Y-92557053D01*
X63952460Y-92535843D01*
X63952464Y-92535839D01*
X63974626Y-92508834D01*
X64004534Y-92472392D01*
X64056162Y-92375801D01*
X64087955Y-92270995D01*
X64096000Y-92189312D01*
X64096000Y-92189305D01*
X64098689Y-92162000D01*
X64096000Y-92134695D01*
X64096000Y-92087843D01*
X65290000Y-92087843D01*
X65364689Y-92080487D01*
X65436508Y-92058701D01*
X65502696Y-92023322D01*
X65560711Y-91975711D01*
X65608322Y-91917696D01*
X65643701Y-91851508D01*
X65665487Y-91779689D01*
X65672843Y-91705000D01*
X66151928Y-91705000D01*
X66164188Y-91829482D01*
X66200498Y-91949180D01*
X66259463Y-92059494D01*
X66338815Y-92156185D01*
X66435506Y-92235537D01*
X66545820Y-92294502D01*
X66665518Y-92330812D01*
X66790000Y-92343072D01*
X68254250Y-92340000D01*
X68413000Y-92181250D01*
X68413000Y-90932000D01*
X68667000Y-90932000D01*
X68667000Y-92181250D01*
X68825750Y-92340000D01*
X70290000Y-92343072D01*
X70414482Y-92330812D01*
X70534180Y-92294502D01*
X70644494Y-92235537D01*
X70741185Y-92156185D01*
X70820537Y-92059494D01*
X70879502Y-91949180D01*
X70915812Y-91829482D01*
X70928072Y-91705000D01*
X70925000Y-91090750D01*
X70766250Y-90932000D01*
X68667000Y-90932000D01*
X68413000Y-90932000D01*
X66313750Y-90932000D01*
X66155000Y-91090750D01*
X66151928Y-91705000D01*
X65672843Y-91705000D01*
X65672843Y-89905000D01*
X66151928Y-89905000D01*
X66155000Y-90519250D01*
X66313750Y-90678000D01*
X68413000Y-90678000D01*
X68413000Y-89428750D01*
X68667000Y-89428750D01*
X68667000Y-90678000D01*
X70766250Y-90678000D01*
X70925000Y-90519250D01*
X70928072Y-89905000D01*
X70915812Y-89780518D01*
X70879502Y-89660820D01*
X70820537Y-89550506D01*
X70741185Y-89453815D01*
X70644494Y-89374463D01*
X70534180Y-89315498D01*
X70414482Y-89279188D01*
X70290000Y-89266928D01*
X68825750Y-89270000D01*
X68667000Y-89428750D01*
X68413000Y-89428750D01*
X68254250Y-89270000D01*
X66790000Y-89266928D01*
X66665518Y-89279188D01*
X66545820Y-89315498D01*
X66435506Y-89374463D01*
X66338815Y-89453815D01*
X66259463Y-89550506D01*
X66200498Y-89660820D01*
X66164188Y-89780518D01*
X66151928Y-89905000D01*
X65672843Y-89905000D01*
X65665487Y-89830311D01*
X65643701Y-89758492D01*
X65608322Y-89692304D01*
X65560711Y-89634289D01*
X65502696Y-89586678D01*
X65436508Y-89551299D01*
X65364689Y-89529513D01*
X65290000Y-89522157D01*
X61790000Y-89522157D01*
X61715311Y-89529513D01*
X61643492Y-89551299D01*
X61577304Y-89586678D01*
X61519289Y-89634289D01*
X61471678Y-89692304D01*
X61436299Y-89758492D01*
X61414513Y-89830311D01*
X61407157Y-89905000D01*
X61407157Y-91705000D01*
X61414513Y-91779689D01*
X61436299Y-91851508D01*
X61471678Y-91917696D01*
X61519289Y-91975711D01*
X61577304Y-92023322D01*
X61643492Y-92058701D01*
X61715311Y-92080487D01*
X61790000Y-92087843D01*
X62827854Y-92087843D01*
X60840168Y-94075531D01*
X60818947Y-94092947D01*
X60749466Y-94177608D01*
X60697838Y-94274200D01*
X60666045Y-94379006D01*
X60658000Y-94460689D01*
X60658000Y-94460696D01*
X60655311Y-94488000D01*
X56642000Y-94488000D01*
X56642000Y-83821049D01*
X63511500Y-83821049D01*
X63511500Y-84068951D01*
X63559864Y-84312091D01*
X63654732Y-84541123D01*
X63792459Y-84747247D01*
X63967753Y-84922541D01*
X64173877Y-85060268D01*
X64402909Y-85155136D01*
X64646049Y-85203500D01*
X64893951Y-85203500D01*
X65137091Y-85155136D01*
X65366123Y-85060268D01*
X65572247Y-84922541D01*
X65747541Y-84747247D01*
X65795189Y-84675937D01*
X65794428Y-84822500D01*
X65806688Y-84946982D01*
X65842998Y-85066680D01*
X65901963Y-85176994D01*
X65981315Y-85273685D01*
X66078006Y-85353037D01*
X66188320Y-85412002D01*
X66308018Y-85448312D01*
X66432500Y-85460572D01*
X67024250Y-85457500D01*
X67183000Y-85298750D01*
X67183000Y-84072000D01*
X67437000Y-84072000D01*
X67437000Y-85298750D01*
X67595750Y-85457500D01*
X68187500Y-85460572D01*
X68311982Y-85448312D01*
X68431680Y-85412002D01*
X68541994Y-85353037D01*
X68638685Y-85273685D01*
X68718037Y-85176994D01*
X68777002Y-85066680D01*
X68813312Y-84946982D01*
X68825572Y-84822500D01*
X68822500Y-84230750D01*
X68663750Y-84072000D01*
X67437000Y-84072000D01*
X67183000Y-84072000D01*
X67163000Y-84072000D01*
X67163000Y-83818000D01*
X67183000Y-83818000D01*
X67183000Y-83798000D01*
X67437000Y-83798000D01*
X67437000Y-83818000D01*
X68663750Y-83818000D01*
X68822500Y-83659250D01*
X68825572Y-83067500D01*
X68813312Y-82943018D01*
X68777002Y-82823320D01*
X68718037Y-82713006D01*
X68711467Y-82705000D01*
X73012157Y-82705000D01*
X73012157Y-83324000D01*
X73019513Y-83398689D01*
X73041299Y-83470508D01*
X73076678Y-83536696D01*
X73124289Y-83594711D01*
X73182304Y-83642322D01*
X73248492Y-83677701D01*
X73320311Y-83699487D01*
X73395000Y-83706843D01*
X75195000Y-83706843D01*
X75269689Y-83699487D01*
X75341508Y-83677701D01*
X75407696Y-83642322D01*
X75465711Y-83594711D01*
X75513322Y-83536696D01*
X75548701Y-83470508D01*
X75570487Y-83398689D01*
X75577843Y-83324000D01*
X75577843Y-82213148D01*
X97671457Y-82213148D01*
X97947627Y-82631118D01*
X98492557Y-82921649D01*
X99083696Y-83100287D01*
X99698328Y-83160168D01*
X100312831Y-83098990D01*
X100903592Y-82919103D01*
X101442373Y-82631118D01*
X101718543Y-82213148D01*
X99695000Y-80189605D01*
X97671457Y-82213148D01*
X75577843Y-82213148D01*
X75577843Y-80013328D01*
X96544832Y-80013328D01*
X96606010Y-80627831D01*
X96785897Y-81218592D01*
X97073882Y-81757373D01*
X97491852Y-82033543D01*
X99515395Y-80010000D01*
X97491852Y-77986457D01*
X97073882Y-78262627D01*
X96783351Y-78807557D01*
X96604713Y-79398696D01*
X96544832Y-80013328D01*
X75577843Y-80013328D01*
X75577843Y-79824000D01*
X75570487Y-79749311D01*
X75548701Y-79677492D01*
X75513322Y-79611304D01*
X75465711Y-79553289D01*
X75407696Y-79505678D01*
X75341508Y-79470299D01*
X75269689Y-79448513D01*
X75195000Y-79441157D01*
X73395000Y-79441157D01*
X73320311Y-79448513D01*
X73248492Y-79470299D01*
X73182304Y-79505678D01*
X73124289Y-79553289D01*
X73076678Y-79611304D01*
X73041299Y-79677492D01*
X73019513Y-79749311D01*
X73012157Y-79824000D01*
X73012157Y-80443000D01*
X65547547Y-80443000D01*
X65491999Y-80437529D01*
X65436451Y-80443000D01*
X65436442Y-80443000D01*
X65270285Y-80459365D01*
X65057091Y-80524037D01*
X64860610Y-80629058D01*
X64688393Y-80770393D01*
X64652975Y-80813550D01*
X64009546Y-81456979D01*
X63966394Y-81492393D01*
X63930980Y-81535545D01*
X63930977Y-81535548D01*
X63825058Y-81664611D01*
X63720037Y-81861092D01*
X63675197Y-82008909D01*
X63655365Y-82074285D01*
X63639000Y-82240442D01*
X63639000Y-82240450D01*
X63633529Y-82296000D01*
X63639000Y-82351550D01*
X63639000Y-83386857D01*
X63559864Y-83577909D01*
X63511500Y-83821049D01*
X56642000Y-83821049D01*
X56642000Y-82213148D01*
X57031457Y-82213148D01*
X57307627Y-82631118D01*
X57852557Y-82921649D01*
X58443696Y-83100287D01*
X59058328Y-83160168D01*
X59672831Y-83098990D01*
X60263592Y-82919103D01*
X60802373Y-82631118D01*
X61078543Y-82213148D01*
X59055000Y-80189605D01*
X57031457Y-82213148D01*
X56642000Y-82213148D01*
X56642000Y-81894885D01*
X56851852Y-82033543D01*
X58875395Y-80010000D01*
X59234605Y-80010000D01*
X61258148Y-82033543D01*
X61676118Y-81757373D01*
X61966649Y-81212443D01*
X62145287Y-80621304D01*
X62205168Y-80006672D01*
X62143990Y-79392169D01*
X61964103Y-78801408D01*
X61676118Y-78262627D01*
X61258148Y-77986457D01*
X59234605Y-80010000D01*
X58875395Y-80010000D01*
X58861253Y-79995858D01*
X59040858Y-79816253D01*
X59055000Y-79830395D01*
X61078543Y-77806852D01*
X60939885Y-77597000D01*
X97810115Y-77597000D01*
X97671457Y-77806852D01*
G37*
%TD.AperFunction*%
D25*
X66901704Y-96340144D02*
X66978851Y-96434149D01*
X67072856Y-96511296D01*
X67111500Y-96531952D01*
X67111500Y-96850195D01*
X67108811Y-96877500D01*
X67111500Y-96904804D01*
X67111500Y-96904811D01*
X67119545Y-96986494D01*
X67151338Y-97091300D01*
X67202966Y-97187892D01*
X67272447Y-97272553D01*
X67293668Y-97289969D01*
X68167535Y-98163837D01*
X68184947Y-98185053D01*
X68269608Y-98254534D01*
X68366199Y-98306162D01*
X68471005Y-98337955D01*
X68552688Y-98346000D01*
X68552695Y-98346000D01*
X68580000Y-98348689D01*
X68607304Y-98346000D01*
X68984699Y-98346000D01*
X69310855Y-98672157D01*
X69150000Y-98672157D01*
X69075311Y-98679513D01*
X69003492Y-98701299D01*
X68937304Y-98736678D01*
X68879289Y-98784289D01*
X68831678Y-98842304D01*
X68796299Y-98908492D01*
X68774513Y-98980311D01*
X68767157Y-99055000D01*
X68767157Y-99705000D01*
X68774513Y-99779689D01*
X68796299Y-99851508D01*
X68831678Y-99917696D01*
X68879289Y-99975711D01*
X68937304Y-100023322D01*
X69003492Y-100058701D01*
X69075311Y-100080487D01*
X69150000Y-100087843D01*
X70335855Y-100087843D01*
X69851542Y-100572157D01*
X69150000Y-100572157D01*
X69075311Y-100579513D01*
X69003492Y-100601299D01*
X68937304Y-100636678D01*
X68879289Y-100684289D01*
X68831678Y-100742304D01*
X68796299Y-100808492D01*
X68774513Y-100880311D01*
X68767157Y-100955000D01*
X68767157Y-101605000D01*
X68774513Y-101679689D01*
X68796299Y-101751508D01*
X68831678Y-101817696D01*
X68879289Y-101875711D01*
X68886501Y-101881630D01*
X68886500Y-102704322D01*
X68797856Y-102751704D01*
X68703851Y-102828851D01*
X68626704Y-102922856D01*
X68580000Y-103010233D01*
X68533296Y-102922856D01*
X68456149Y-102828851D01*
X68362144Y-102751704D01*
X68273500Y-102704323D01*
X68273500Y-101881629D01*
X68280711Y-101875711D01*
X68328322Y-101817696D01*
X68363701Y-101751508D01*
X68385487Y-101679689D01*
X68392843Y-101605000D01*
X68392843Y-101162272D01*
X68461185Y-101106185D01*
X68540537Y-101009494D01*
X68599502Y-100899180D01*
X68635812Y-100779482D01*
X68648072Y-100655000D01*
X68645000Y-100615750D01*
X68486250Y-100457000D01*
X67357000Y-100457000D01*
X67357000Y-100477000D01*
X67103000Y-100477000D01*
X67103000Y-100457000D01*
X65973750Y-100457000D01*
X65815000Y-100615750D01*
X65811928Y-100655000D01*
X65824188Y-100779482D01*
X65860498Y-100899180D01*
X65919463Y-101009494D01*
X65998815Y-101106185D01*
X66067157Y-101162272D01*
X66067157Y-101605000D01*
X66074513Y-101679689D01*
X66096299Y-101751508D01*
X66131678Y-101817696D01*
X66179289Y-101875711D01*
X66237304Y-101923322D01*
X66303492Y-101958701D01*
X66375311Y-101980487D01*
X66450000Y-101987843D01*
X67151541Y-101987843D01*
X67161501Y-101997803D01*
X67161500Y-102704322D01*
X67072856Y-102751704D01*
X66978851Y-102828851D01*
X66965188Y-102845500D01*
X65035952Y-102845500D01*
X65015296Y-102806856D01*
X64938149Y-102712851D01*
X64896961Y-102679049D01*
X64981180Y-102653502D01*
X65091494Y-102594537D01*
X65188185Y-102515185D01*
X65267537Y-102418494D01*
X65326502Y-102308180D01*
X65362812Y-102188482D01*
X65375072Y-102064000D01*
X65372000Y-101862250D01*
X65213250Y-101703500D01*
X64389000Y-101703500D01*
X64389000Y-101723500D01*
X64135000Y-101723500D01*
X64135000Y-101703500D01*
X63310750Y-101703500D01*
X63152000Y-101862250D01*
X63148928Y-102064000D01*
X63161188Y-102188482D01*
X63197498Y-102308180D01*
X63256463Y-102418494D01*
X63335815Y-102515185D01*
X63432506Y-102594537D01*
X63542820Y-102653502D01*
X63627039Y-102679049D01*
X63585851Y-102712851D01*
X63544518Y-102763216D01*
X63040000Y-102258699D01*
X63040000Y-101089000D01*
X63148928Y-101089000D01*
X63152000Y-101290750D01*
X63310750Y-101449500D01*
X64135000Y-101449500D01*
X64135000Y-100612750D01*
X64389000Y-100612750D01*
X64389000Y-101449500D01*
X65213250Y-101449500D01*
X65372000Y-101290750D01*
X65375072Y-101089000D01*
X65362812Y-100964518D01*
X65326502Y-100844820D01*
X65267537Y-100734506D01*
X65188185Y-100637815D01*
X65091494Y-100558463D01*
X64981180Y-100499498D01*
X64861482Y-100463188D01*
X64737000Y-100450928D01*
X64547750Y-100454000D01*
X64389000Y-100612750D01*
X64135000Y-100612750D01*
X63976250Y-100454000D01*
X63787000Y-100450928D01*
X63662518Y-100463188D01*
X63542820Y-100499498D01*
X63432506Y-100558463D01*
X63335815Y-100637815D01*
X63256463Y-100734506D01*
X63197498Y-100844820D01*
X63161188Y-100964518D01*
X63148928Y-101089000D01*
X63040000Y-101089000D01*
X63040000Y-99482270D01*
X63066144Y-99468296D01*
X63160149Y-99391149D01*
X63237296Y-99297144D01*
X63294622Y-99189895D01*
X63329923Y-99073523D01*
X63341843Y-98952500D01*
X63341843Y-98568644D01*
X63404157Y-98630958D01*
X63404157Y-98952500D01*
X63416077Y-99073523D01*
X63451378Y-99189895D01*
X63508704Y-99297144D01*
X63585851Y-99391149D01*
X63679856Y-99468296D01*
X63787105Y-99525622D01*
X63903477Y-99560923D01*
X64024500Y-99572843D01*
X64499500Y-99572843D01*
X64620523Y-99560923D01*
X64736895Y-99525622D01*
X64844144Y-99468296D01*
X64938149Y-99391149D01*
X65015296Y-99297144D01*
X65035952Y-99258500D01*
X66067157Y-99258500D01*
X66067157Y-99497728D01*
X65998815Y-99553815D01*
X65919463Y-99650506D01*
X65860498Y-99760820D01*
X65824188Y-99880518D01*
X65811928Y-100005000D01*
X65815000Y-100044250D01*
X65973750Y-100203000D01*
X67103000Y-100203000D01*
X67103000Y-100183000D01*
X67357000Y-100183000D01*
X67357000Y-100203000D01*
X68486250Y-100203000D01*
X68645000Y-100044250D01*
X68648072Y-100005000D01*
X68635812Y-99880518D01*
X68599502Y-99760820D01*
X68540537Y-99650506D01*
X68461185Y-99553815D01*
X68392843Y-99497728D01*
X68392843Y-99055000D01*
X68385487Y-98980311D01*
X68363701Y-98908492D01*
X68328322Y-98842304D01*
X68280711Y-98784289D01*
X68222696Y-98736678D01*
X68156508Y-98701299D01*
X68084689Y-98679513D01*
X68010000Y-98672157D01*
X67308459Y-98672157D01*
X66964969Y-98328667D01*
X66947553Y-98307447D01*
X66862892Y-98237966D01*
X66766301Y-98186338D01*
X66661495Y-98154545D01*
X66579812Y-98146500D01*
X66579804Y-98146500D01*
X66552500Y-98143811D01*
X66525196Y-98146500D01*
X65035952Y-98146500D01*
X65015296Y-98107856D01*
X64938149Y-98013851D01*
X64844144Y-97936704D01*
X64736895Y-97879378D01*
X64620523Y-97844077D01*
X64499500Y-97832157D01*
X64177958Y-97832157D01*
X64093644Y-97747843D01*
X64499500Y-97747843D01*
X64620523Y-97735923D01*
X64736895Y-97700622D01*
X64844144Y-97643296D01*
X64938149Y-97566149D01*
X65015296Y-97472144D01*
X65035164Y-97434974D01*
X65047500Y-97436189D01*
X65074804Y-97433500D01*
X65074812Y-97433500D01*
X65156495Y-97425455D01*
X65261301Y-97393662D01*
X65357892Y-97342034D01*
X65442553Y-97272553D01*
X65459969Y-97251332D01*
X66397302Y-96314000D01*
X66887730Y-96314000D01*
X66901704Y-96340144D01*
%TA.AperFunction,Conductor*%
D26*
G36*
X66901704Y-96340144D02*
G01*
X66978851Y-96434149D01*
X67072856Y-96511296D01*
X67111500Y-96531952D01*
X67111500Y-96850195D01*
X67108811Y-96877500D01*
X67111500Y-96904804D01*
X67111500Y-96904811D01*
X67119545Y-96986494D01*
X67151338Y-97091300D01*
X67202966Y-97187892D01*
X67272447Y-97272553D01*
X67293668Y-97289969D01*
X68167535Y-98163837D01*
X68184947Y-98185053D01*
X68269608Y-98254534D01*
X68366199Y-98306162D01*
X68471005Y-98337955D01*
X68552688Y-98346000D01*
X68552695Y-98346000D01*
X68580000Y-98348689D01*
X68607304Y-98346000D01*
X68984699Y-98346000D01*
X69310855Y-98672157D01*
X69150000Y-98672157D01*
X69075311Y-98679513D01*
X69003492Y-98701299D01*
X68937304Y-98736678D01*
X68879289Y-98784289D01*
X68831678Y-98842304D01*
X68796299Y-98908492D01*
X68774513Y-98980311D01*
X68767157Y-99055000D01*
X68767157Y-99705000D01*
X68774513Y-99779689D01*
X68796299Y-99851508D01*
X68831678Y-99917696D01*
X68879289Y-99975711D01*
X68937304Y-100023322D01*
X69003492Y-100058701D01*
X69075311Y-100080487D01*
X69150000Y-100087843D01*
X70335855Y-100087843D01*
X69851542Y-100572157D01*
X69150000Y-100572157D01*
X69075311Y-100579513D01*
X69003492Y-100601299D01*
X68937304Y-100636678D01*
X68879289Y-100684289D01*
X68831678Y-100742304D01*
X68796299Y-100808492D01*
X68774513Y-100880311D01*
X68767157Y-100955000D01*
X68767157Y-101605000D01*
X68774513Y-101679689D01*
X68796299Y-101751508D01*
X68831678Y-101817696D01*
X68879289Y-101875711D01*
X68886501Y-101881630D01*
X68886500Y-102704322D01*
X68797856Y-102751704D01*
X68703851Y-102828851D01*
X68626704Y-102922856D01*
X68580000Y-103010233D01*
X68533296Y-102922856D01*
X68456149Y-102828851D01*
X68362144Y-102751704D01*
X68273500Y-102704323D01*
X68273500Y-101881629D01*
X68280711Y-101875711D01*
X68328322Y-101817696D01*
X68363701Y-101751508D01*
X68385487Y-101679689D01*
X68392843Y-101605000D01*
X68392843Y-101162272D01*
X68461185Y-101106185D01*
X68540537Y-101009494D01*
X68599502Y-100899180D01*
X68635812Y-100779482D01*
X68648072Y-100655000D01*
X68645000Y-100615750D01*
X68486250Y-100457000D01*
X67357000Y-100457000D01*
X67357000Y-100477000D01*
X67103000Y-100477000D01*
X67103000Y-100457000D01*
X65973750Y-100457000D01*
X65815000Y-100615750D01*
X65811928Y-100655000D01*
X65824188Y-100779482D01*
X65860498Y-100899180D01*
X65919463Y-101009494D01*
X65998815Y-101106185D01*
X66067157Y-101162272D01*
X66067157Y-101605000D01*
X66074513Y-101679689D01*
X66096299Y-101751508D01*
X66131678Y-101817696D01*
X66179289Y-101875711D01*
X66237304Y-101923322D01*
X66303492Y-101958701D01*
X66375311Y-101980487D01*
X66450000Y-101987843D01*
X67151541Y-101987843D01*
X67161501Y-101997803D01*
X67161500Y-102704322D01*
X67072856Y-102751704D01*
X66978851Y-102828851D01*
X66965188Y-102845500D01*
X65035952Y-102845500D01*
X65015296Y-102806856D01*
X64938149Y-102712851D01*
X64896961Y-102679049D01*
X64981180Y-102653502D01*
X65091494Y-102594537D01*
X65188185Y-102515185D01*
X65267537Y-102418494D01*
X65326502Y-102308180D01*
X65362812Y-102188482D01*
X65375072Y-102064000D01*
X65372000Y-101862250D01*
X65213250Y-101703500D01*
X64389000Y-101703500D01*
X64389000Y-101723500D01*
X64135000Y-101723500D01*
X64135000Y-101703500D01*
X63310750Y-101703500D01*
X63152000Y-101862250D01*
X63148928Y-102064000D01*
X63161188Y-102188482D01*
X63197498Y-102308180D01*
X63256463Y-102418494D01*
X63335815Y-102515185D01*
X63432506Y-102594537D01*
X63542820Y-102653502D01*
X63627039Y-102679049D01*
X63585851Y-102712851D01*
X63544518Y-102763216D01*
X63040000Y-102258699D01*
X63040000Y-101089000D01*
X63148928Y-101089000D01*
X63152000Y-101290750D01*
X63310750Y-101449500D01*
X64135000Y-101449500D01*
X64135000Y-100612750D01*
X64389000Y-100612750D01*
X64389000Y-101449500D01*
X65213250Y-101449500D01*
X65372000Y-101290750D01*
X65375072Y-101089000D01*
X65362812Y-100964518D01*
X65326502Y-100844820D01*
X65267537Y-100734506D01*
X65188185Y-100637815D01*
X65091494Y-100558463D01*
X64981180Y-100499498D01*
X64861482Y-100463188D01*
X64737000Y-100450928D01*
X64547750Y-100454000D01*
X64389000Y-100612750D01*
X64135000Y-100612750D01*
X63976250Y-100454000D01*
X63787000Y-100450928D01*
X63662518Y-100463188D01*
X63542820Y-100499498D01*
X63432506Y-100558463D01*
X63335815Y-100637815D01*
X63256463Y-100734506D01*
X63197498Y-100844820D01*
X63161188Y-100964518D01*
X63148928Y-101089000D01*
X63040000Y-101089000D01*
X63040000Y-99482270D01*
X63066144Y-99468296D01*
X63160149Y-99391149D01*
X63237296Y-99297144D01*
X63294622Y-99189895D01*
X63329923Y-99073523D01*
X63341843Y-98952500D01*
X63341843Y-98568644D01*
X63404157Y-98630958D01*
X63404157Y-98952500D01*
X63416077Y-99073523D01*
X63451378Y-99189895D01*
X63508704Y-99297144D01*
X63585851Y-99391149D01*
X63679856Y-99468296D01*
X63787105Y-99525622D01*
X63903477Y-99560923D01*
X64024500Y-99572843D01*
X64499500Y-99572843D01*
X64620523Y-99560923D01*
X64736895Y-99525622D01*
X64844144Y-99468296D01*
X64938149Y-99391149D01*
X65015296Y-99297144D01*
X65035952Y-99258500D01*
X66067157Y-99258500D01*
X66067157Y-99497728D01*
X65998815Y-99553815D01*
X65919463Y-99650506D01*
X65860498Y-99760820D01*
X65824188Y-99880518D01*
X65811928Y-100005000D01*
X65815000Y-100044250D01*
X65973750Y-100203000D01*
X67103000Y-100203000D01*
X67103000Y-100183000D01*
X67357000Y-100183000D01*
X67357000Y-100203000D01*
X68486250Y-100203000D01*
X68645000Y-100044250D01*
X68648072Y-100005000D01*
X68635812Y-99880518D01*
X68599502Y-99760820D01*
X68540537Y-99650506D01*
X68461185Y-99553815D01*
X68392843Y-99497728D01*
X68392843Y-99055000D01*
X68385487Y-98980311D01*
X68363701Y-98908492D01*
X68328322Y-98842304D01*
X68280711Y-98784289D01*
X68222696Y-98736678D01*
X68156508Y-98701299D01*
X68084689Y-98679513D01*
X68010000Y-98672157D01*
X67308459Y-98672157D01*
X66964969Y-98328667D01*
X66947553Y-98307447D01*
X66862892Y-98237966D01*
X66766301Y-98186338D01*
X66661495Y-98154545D01*
X66579812Y-98146500D01*
X66579804Y-98146500D01*
X66552500Y-98143811D01*
X66525196Y-98146500D01*
X65035952Y-98146500D01*
X65015296Y-98107856D01*
X64938149Y-98013851D01*
X64844144Y-97936704D01*
X64736895Y-97879378D01*
X64620523Y-97844077D01*
X64499500Y-97832157D01*
X64177958Y-97832157D01*
X64093644Y-97747843D01*
X64499500Y-97747843D01*
X64620523Y-97735923D01*
X64736895Y-97700622D01*
X64844144Y-97643296D01*
X64938149Y-97566149D01*
X65015296Y-97472144D01*
X65035164Y-97434974D01*
X65047500Y-97436189D01*
X65074804Y-97433500D01*
X65074812Y-97433500D01*
X65156495Y-97425455D01*
X65261301Y-97393662D01*
X65357892Y-97342034D01*
X65442553Y-97272553D01*
X65459969Y-97251332D01*
X66397302Y-96314000D01*
X66887730Y-96314000D01*
X66901704Y-96340144D01*
G37*
%TD.AperFunction*%
%TD*%
M02*
