%FSLAX45Y45*%
G04 Gerber Fmt 4.5, Leading zero omitted, Abs format (unit mm)*
G04 Created by KiCad (PCBNEW (5.1.10)-1) date 2021-10-30 21:20:29*
%MOMM*%
%LPD*%
G01*
G04 APERTURE LIST*
%TA.AperFunction,Profile*%
%ADD10C,0.150000*%
%TD*%
%ADD11C,0.200000*%
%ADD12C,0.300000*%
G04 APERTURE END LIST*
D10*
X9969500Y-12382500D02*
X5905500Y-12382500D01*
X10287000Y-8001000D02*
X10287000Y-12065000D01*
X5905500Y-7683500D02*
X9969500Y-7683500D01*
X5588000Y-12065000D02*
X5588000Y-8001000D01*
X5905500Y-12382500D02*
G75*
G02*
X5588000Y-12065000I0J317500D01*
G01*
X10287000Y-12065000D02*
G75*
G02*
X9969500Y-12382500I-317500J0D01*
G01*
X9969500Y-7683500D02*
G75*
G02*
X10287000Y-8001000I0J-317500D01*
G01*
X5588000Y-8001000D02*
G75*
G02*
X5905500Y-7683500I317500J0D01*
G01*
D11*
D12*
X5866928Y-12855714D02*
X5866928Y-12555714D01*
X5938357Y-12555714D01*
X5981214Y-12570000D01*
X6009786Y-12598571D01*
X6024071Y-12627143D01*
X6038357Y-12684286D01*
X6038357Y-12727143D01*
X6024071Y-12784286D01*
X6009786Y-12812857D01*
X5981214Y-12841429D01*
X5938357Y-12855714D01*
X5866928Y-12855714D01*
X6166928Y-12855714D02*
X6166928Y-12655714D01*
X6166928Y-12712857D02*
X6181214Y-12684286D01*
X6195500Y-12670000D01*
X6224071Y-12655714D01*
X6252643Y-12655714D01*
X6352643Y-12855714D02*
X6352643Y-12655714D01*
X6352643Y-12555714D02*
X6338357Y-12570000D01*
X6352643Y-12584286D01*
X6366928Y-12570000D01*
X6352643Y-12555714D01*
X6352643Y-12584286D01*
X6538357Y-12855714D02*
X6509786Y-12841429D01*
X6495500Y-12812857D01*
X6495500Y-12555714D01*
X6695500Y-12855714D02*
X6666928Y-12841429D01*
X6652643Y-12812857D01*
X6652643Y-12555714D01*
X7038357Y-12855714D02*
X7038357Y-12555714D01*
X7138357Y-12770000D01*
X7238357Y-12555714D01*
X7238357Y-12855714D01*
X7509786Y-12855714D02*
X7509786Y-12698571D01*
X7495500Y-12670000D01*
X7466928Y-12655714D01*
X7409786Y-12655714D01*
X7381214Y-12670000D01*
X7509786Y-12841429D02*
X7481214Y-12855714D01*
X7409786Y-12855714D01*
X7381214Y-12841429D01*
X7366928Y-12812857D01*
X7366928Y-12784286D01*
X7381214Y-12755714D01*
X7409786Y-12741429D01*
X7481214Y-12741429D01*
X7509786Y-12727143D01*
X7652643Y-12655714D02*
X7652643Y-12955714D01*
X7652643Y-12670000D02*
X7681214Y-12655714D01*
X7738357Y-12655714D01*
X7766928Y-12670000D01*
X7781214Y-12684286D01*
X7795500Y-12712857D01*
X7795500Y-12798571D01*
X7781214Y-12827143D01*
X7766928Y-12841429D01*
X7738357Y-12855714D01*
X7681214Y-12855714D01*
X7652643Y-12841429D01*
X7924071Y-12827143D02*
X7938357Y-12841429D01*
X7924071Y-12855714D01*
X7909786Y-12841429D01*
X7924071Y-12827143D01*
X7924071Y-12855714D01*
X7924071Y-12670000D02*
X7938357Y-12684286D01*
X7924071Y-12698571D01*
X7909786Y-12684286D01*
X7924071Y-12670000D01*
X7924071Y-12698571D01*
M02*
